M48
; DRILL file {KiCad (5.99.0-13086-gffd1139cfe)} date Fri Nov  5 01:59:14 2021
; FORMAT={2:4/ absolute / inch / suppress leading zeros}
; #@! TF.CreationDate,2021-11-05T01:59:14+03:00
; #@! TF.GenerationSoftware,Kicad,Pcbnew,(5.99.0-13086-gffd1139cfe)
; #@! TF.FileFunction,MixedPlating,1,2
FMAT,2
INCH,TZ
; #@! TA.AperFunction,Plated,PTH,ComponentDrill
T1C0.0118
; #@! TA.AperFunction,Plated,PTH,ComponentDrill
T2C0.0118
; #@! TA.AperFunction,Plated,PTH,ViaDrill
T3C0.0157
; #@! TA.AperFunction,Plated,PTH,ComponentDrill
T4C0.0320
; #@! TA.AperFunction,Plated,PTH,ComponentDrill
T5C0.0374
; #@! TA.AperFunction,Plated,PTH,ComponentDrill
T6C0.0394
; #@! TA.AperFunction,Plated,PTH,ComponentDrill
T7C0.0433
; #@! TA.AperFunction,Plated,PTH,ComponentDrill
T8C0.0689
; #@! TA.AperFunction,NonPlated,NPTH,ComponentDrill
T9C0.0787
; #@! TA.AperFunction,NonPlated,NPTH,ComponentDrill
T10C0.1378
; #@! TA.AperFunction,NonPlated,NPTH,ComponentDrill
T11C0.1693
%
G90
G05
T1
X13607Y26590
X13637Y25192
X13725Y27092
X14070Y26885
X22057Y30472
X22411Y37372
X22805Y37372
X25010Y30472
X25325Y30472
X25640Y30472
T2
X11506Y8866
X11900Y8866
X12293Y8866
X12687Y8866
X13120Y23925
X13514Y23925
X14911Y23925
X15305Y23925
T3
X2047Y36850
X2244Y9843
X2283Y23661
X2362Y31339
X2402Y15748
X2441Y44291
X2520Y55709
X3386Y78465
X3465Y48504
X3622Y65354
X4213Y58583
X4370Y71890
X4409Y84409
X4606Y79488
X4882Y74921
X4921Y59606
X4961Y62992
X4961Y51732
X5000Y61142
X5000Y57087
X5039Y64449
X5039Y2126
X5236Y5906
X5472Y40315
X5512Y20315
X5591Y80709
X5709Y50984
X6181Y79409
X6220Y51850
X6378Y33622
X6614Y44055
X6614Y27008
X6693Y62913
X6732Y69016
X6772Y76220
X6850Y75157
X6850Y61024
X6850Y59567
X6850Y57953
X6850Y13189
X6890Y64528
X8012Y76831
X8425Y62756
X8425Y59606
X8465Y60866
X8543Y68346
X8583Y80551
X8937Y71417
X9961Y35197
X10276Y45866
X10433Y23740
X10433Y22165
X10433Y20000
X10433Y17835
X10433Y15472
X10433Y13307
X10433Y11142
X10433Y8976
X10748Y28228
X11260Y40118
X11378Y74685
X11378Y71339
X11417Y1850
X11457Y69370
X11929Y48780
X12008Y80551
X12008Y27283
X12008Y25315
X13189Y27874
X13346Y71102
X13898Y28102
X13937Y84724
X14114Y68504
X14173Y24528
X14311Y59843
X14467Y57480
X14567Y53543
X14567Y27874
X14567Y8189
X14606Y80591
X14764Y76102
X14961Y8189
X14979Y56614
X14981Y69291
X15354Y50787
X15354Y8189
X15512Y28543
X15591Y37874
X15591Y33937
X15669Y49843
X15709Y44252
X15906Y68268
X15940Y27882
X16220Y58150
X16226Y51890
X16299Y74724
X16378Y1850
X16535Y52283
X16535Y7992
X17087Y31339
X17119Y18196
X17126Y26890
X17126Y25118
X17126Y23740
X17126Y20787
X17126Y14882
X17126Y12126
X17126Y9764
X17165Y44449
X17244Y50079
X17283Y65354
X17323Y40315
X17677Y53543
X17913Y79331
X17913Y52677
X17913Y21969
X18189Y76089
X18465Y23898
X18465Y22559
X18504Y49213
X18701Y50394
X18937Y80787
X19213Y37795
X19567Y60276
X19685Y28268
X19685Y12205
X19685Y7520
X19724Y70630
X19764Y64370
X20079Y4764
X20276Y76102
X20866Y66142
X21102Y49567
X21457Y76102
X21457Y37126
X21457Y35354
X21457Y32795
X21457Y30630
X21575Y72087
X21575Y17323
X21614Y20748
X21732Y68189
X21732Y25866
X22047Y66929
X22047Y37913
X22323Y53701
X22598Y9449
X22638Y76102
X22677Y74134
X22677Y68189
X22677Y1929
X22992Y28150
X23031Y29843
X23071Y84606
X23228Y67717
X23228Y37913
X24409Y29843
X24921Y21417
X25079Y23858
X25118Y25197
X25157Y28150
X25197Y22480
X25315Y59449
X25325Y29911
X25354Y80591
X25354Y65906
X25394Y37913
X25472Y14488
X25591Y20984
X25640Y24577
X25827Y3819
X25984Y53819
X26063Y73504
X26142Y21457
X26220Y22795
X26339Y20197
X26378Y29449
X26693Y51535
X27072Y75084
X27126Y1890
X27756Y75118
X27756Y29449
X27874Y4843
X27953Y37913
X28110Y50630
X28504Y83071
X28740Y37126
X28740Y30433
X28755Y33824
X28858Y64606
X28976Y70984
X29134Y80591
X29213Y59449
X29331Y30039
X29803Y25669
X29921Y50039
X30354Y77795
X30354Y75354
X30866Y34291
X30906Y49882
X31535Y28937
X31732Y62835
X31732Y54764
X31929Y69291
X32205Y73189
X32205Y49843
X32362Y80630
X32559Y7362
X33150Y84606
X33228Y80512
X33307Y4724
X33858Y1811
X34291Y59488
X34409Y68071
X34606Y49921
X34606Y37520
X34724Y72913
X35157Y53937
X35276Y51850
X35315Y77638
X35827Y49921
X35984Y75591
X36142Y30354
X36850Y69764
X37008Y58661
X37087Y65118
X37205Y7441
X37244Y48976
X37283Y52441
X37362Y23898
X37362Y19213
X38071Y15118
X38228Y80669
X38543Y33346
X38780Y74449
X39094Y1732
X39173Y40433
X40354Y78661
X40354Y76890
X40591Y62913
X40630Y71732
X40669Y55512
X40984Y82913
X41220Y68701
X41260Y74882
X42126Y54252
X42559Y37953
X42992Y29134
X43031Y74803
X43031Y1811
X43307Y18268
X43386Y55315
X43465Y64646
X43858Y22638
X44449Y33504
X44567Y47480
X44764Y80748
X45039Y42008
X45236Y44213
X45276Y63701
X45315Y84567
X45669Y64488
X45669Y43622
X45669Y41654
X45669Y27874
X46024Y41102
X46220Y43189
X46457Y66417
X46575Y60709
X46850Y76102
X46890Y55472
X47362Y80591
X47520Y18346
X47835Y58976
X48504Y37323
X48504Y21575
X48701Y27244
X49409Y61397
X49449Y55709
X49646Y1772
X50354Y51654
X50433Y69252
X50748Y40354
X50807Y79843
X50827Y74134
X50827Y64488
X51024Y70945
X51575Y28780
X52087Y31732
X52126Y5197
X52244Y80669
X52441Y60276
X52953Y62057
X53228Y63701
X53268Y68425
X53484Y69213
X53484Y65207
X53543Y55039
X53937Y55758
X54331Y56614
X54685Y23543
X54685Y14724
X54724Y57333
X54764Y80591
X54906Y65796
X55433Y64429
X55472Y40787
X55472Y8937
X55591Y1890
X55669Y65000
X55906Y55118
X55984Y29488
X56063Y56850
X56063Y34173
X56102Y59764
X56102Y58425
X56614Y84646
X56693Y79409
X56693Y76102
X56732Y61693
X57283Y70354
X57441Y67244
X57441Y53465
X57520Y43701
X57559Y75197
X58543Y63740
X58543Y55748
X58583Y32992
X58661Y37126
X58701Y21969
X58740Y27126
X58740Y15669
X58780Y9646
T4
X15945Y78230
X15945Y76730
X17913Y78230
X17913Y76730
X18898Y78250
X18898Y76750
X19882Y78230
X19882Y76730
X20866Y78230
X20866Y76730
X21850Y78230
X21850Y76730
X22057Y29215
X22057Y27715
X22835Y78230
X22835Y76730
X23827Y78230
X23827Y76730
X24803Y78230
X24803Y76730
X25787Y78230
X25787Y76730
X26772Y78230
X26772Y76730
X27756Y78230
X27756Y76730
X28740Y78230
X28740Y76730
X38701Y78665
X38701Y76736
X43307Y78230
X43307Y76730
X46063Y78230
X46063Y76730
X47835Y78230
X47835Y76730
X49213Y78230
X49213Y76730
X50197Y78230
X50197Y76730
X51181Y78230
X51181Y76730
X51969Y78230
X51969Y76730
X55906Y78230
X55906Y76730
T5
X7579Y5815
X8563Y5815
X9547Y5815
X10531Y5815
X11516Y5815
X12500Y5815
X13484Y5815
X14469Y5815
X15453Y5815
X16437Y5815
T6
X3150Y63976
X3150Y62795
X3150Y61614
X3150Y60433
X3150Y59252
X3150Y58071
X3150Y56890
X3150Y51575
X5118Y78150
X6299Y78150
X7480Y78150
X8661Y78150
X9055Y23819
X9055Y22819
X9055Y21819
X9055Y20819
X9055Y19819
X9055Y18819
X9843Y78150
X11024Y78150
X12598Y78465
X13780Y78465
X13780Y76890
X14961Y78071
X16929Y77480
X17913Y73937
X19094Y73937
X20276Y73937
X21457Y73937
X24016Y74331
X24016Y72559
X25000Y75512
X26181Y75512
X26953Y19008
X26953Y18008
X26953Y17008
X26953Y16008
X26953Y15008
X26953Y14008
X26953Y13008
X26953Y12008
X26953Y11008
X26953Y10008
X27362Y42520
X27953Y19008
X27953Y18008
X27953Y17008
X27953Y16008
X27953Y15008
X27953Y14008
X27953Y13008
X27953Y12008
X27953Y11008
X27953Y10008
X28543Y75512
X28543Y42520
X28953Y22008
X28953Y21008
X28953Y20008
X28953Y19008
X28953Y18008
X28953Y17008
X28953Y16008
X28953Y15008
X28953Y14008
X28953Y13008
X28953Y12008
X28953Y11008
X28953Y10008
X29953Y22008
X29953Y21008
X29953Y20008
X29953Y19008
X29953Y18008
X29953Y17008
X29953Y16008
X29953Y15008
X29953Y14008
X29953Y13008
X29953Y12008
X29953Y11008
X29953Y10008
X30953Y22008
X30953Y21008
X30953Y20008
X30953Y19008
X30953Y18008
X30953Y17008
X30953Y16008
X30953Y15008
X30953Y14008
X30953Y13008
X30953Y12008
X30953Y11008
X30953Y10008
X31299Y43110
X31953Y22008
X31953Y21008
X31953Y20008
X31953Y19008
X31953Y18008
X31953Y17008
X31953Y16008
X31953Y15008
X31953Y14008
X31953Y13008
X31953Y12008
X31953Y11008
X31953Y10008
X32480Y42520
X32953Y22008
X32953Y21008
X32953Y20008
X32953Y19008
X32953Y18008
X32953Y17008
X32953Y16008
X32953Y15008
X32953Y14008
X32953Y13008
X32953Y12008
X32953Y11008
X32953Y10008
X33661Y42520
X33953Y19008
X33953Y18008
X33953Y17008
X33953Y16008
X33953Y15008
X33953Y14008
X33953Y13008
X33953Y12008
X33953Y11008
X33953Y10008
X34843Y42520
X34953Y19008
X34953Y18008
X34953Y17008
X34953Y16008
X34953Y15008
X34953Y14008
X34953Y13008
X34953Y12008
X34953Y11008
X34953Y10008
X36024Y42520
X37205Y42520
X37507Y77559
X44685Y74331
X45079Y77362
X46063Y74331
X48622Y74331
X50000Y74331
X52165Y74331
X52953Y76890
X53543Y36614
X53543Y34646
X53543Y32677
X53543Y30709
X54134Y78071
X54134Y76890
X55197Y53701
X55197Y52520
X55197Y51339
X55197Y50157
X55512Y69094
X55512Y67717
X55512Y66339
X57677Y66142
X57677Y64961
X57677Y62795
X57677Y61614
X57677Y59646
X57677Y58071
X57677Y56890
X57677Y54921
T7
X5689Y81496
X5689Y79843
X6909Y81496
X8012Y83150
X8012Y81496
X8012Y79843
X9114Y81496
X9114Y79843
X10217Y83150
X10217Y81496
X10217Y79843
X11319Y83150
X11319Y81496
X12421Y83150
X12421Y81496
X12421Y79843
X14665Y83150
X14665Y81496
X14665Y79843
X15768Y83150
X15768Y81496
X15768Y79843
X16870Y83150
X16870Y81496
X16870Y79843
X17972Y81496
X19075Y83150
X19075Y81496
X19075Y79843
X20177Y83150
X20177Y81496
X20177Y79843
X21280Y83150
X21280Y81496
X21280Y79843
X22382Y81496
X23484Y83150
X23484Y81496
X23484Y79843
X24587Y83150
X24587Y81496
X24587Y79843
X25689Y83150
X25689Y81496
X25689Y79843
X26791Y81496
X26791Y79843
X29035Y81496
X29035Y79843
X30138Y83150
X30138Y81496
X30138Y79843
X31240Y83150
X31240Y81496
X31240Y79843
X32343Y83150
X32343Y81496
X33445Y81496
X33445Y79843
X34547Y83150
X34547Y81496
X34547Y79843
X35650Y83150
X35650Y81496
X35650Y79843
X36752Y81496
X37972Y83150
X37972Y81496
X37972Y79843
X39350Y83150
X39350Y81496
X39350Y79843
X41831Y81496
X41831Y79843
X43209Y83150
X43209Y81496
X43209Y79843
X44429Y81496
X44429Y79843
X45531Y83150
X45531Y81496
X45531Y79843
X46634Y83150
X46634Y81496
X47736Y83150
X47736Y81496
X47736Y79843
X48839Y83150
X48839Y81496
X48839Y79843
X49941Y81496
X49941Y79843
X51043Y83150
X51043Y81496
X52146Y83150
X52146Y81496
X52146Y79843
X53248Y83150
X53248Y81496
X53248Y79843
X54350Y81496
X54350Y79843
X55453Y81496
X55453Y79843
T8
X9232Y69183
X9232Y67608
X9232Y66033
X9232Y64459
X9232Y62884
X9232Y61309
X9232Y59734
X9232Y58159
X9232Y56585
X9232Y55010
X9232Y53435
X9232Y51860
X10807Y68396
X10807Y66821
X10807Y65246
X10807Y63671
X10807Y62096
X10807Y60522
X10807Y58947
X10807Y57372
X10807Y55797
X10807Y54222
X10807Y52648
X12382Y69183
X12382Y67608
X12382Y66033
X12382Y64459
X12382Y62884
X12382Y61309
X12382Y59734
X12382Y58159
X12382Y56585
X12382Y55010
X12382Y53435
X12382Y51860
X24980Y52254
X24980Y49104
X25768Y50679
X26555Y52254
X26555Y49104
X27343Y50679
X28130Y52254
X28130Y49104
X28917Y50679
X29705Y52254
X29705Y49104
X30492Y50679
X31280Y52254
X31280Y49104
X32067Y50679
X32854Y52254
X32854Y49104
X33642Y50679
X34429Y52254
X34429Y49104
X35217Y50679
X36004Y52254
X36004Y49104
X48602Y69183
X48602Y67608
X48602Y66033
X48602Y64459
X48602Y62884
X48602Y61309
X48602Y59734
X48602Y58159
X48602Y56585
X48602Y55010
X48602Y53435
X48602Y51860
X50177Y68396
X50177Y66821
X50177Y65246
X50177Y63671
X50177Y62096
X50177Y60522
X50177Y58947
X50177Y57372
X50177Y55797
X50177Y54222
X50177Y52648
X51752Y69183
X51752Y67608
X51752Y66033
X51752Y64459
X51752Y62884
X51752Y61309
X51752Y59734
X51752Y58159
X51752Y56585
X51752Y55010
X51752Y53435
X51752Y51860
T9
X6555Y73002
X6555Y48041
X13681Y73593
X13681Y47451
X20571Y53553
X21161Y46427
X39823Y46427
X40413Y53553
X47303Y73593
X47303Y47451
X54429Y73002
X54429Y48041
T10
X5413Y86693
X27913Y86693
X55610Y86693
T11
X1575Y83937
X1575Y6299
X1969Y40551
X30512Y40551
X30512Y1575
X59055Y40551
X59055Y6299
X59449Y83937
T0
M30
