G04 #@! TF.GenerationSoftware,KiCad,Pcbnew,7.0.10-7.0.10~ubuntu22.04.1*
G04 #@! TF.CreationDate,2024-01-12T05:53:19+00:00*
G04 #@! TF.ProjectId,proteusOBD2Ahonda,70726f74-6575-4734-9f42-443241686f6e,a*
G04 #@! TF.SameCoordinates,PX3473bc0PY108ee440*
G04 #@! TF.FileFunction,Paste,Top*
G04 #@! TF.FilePolarity,Positive*
%FSLAX46Y46*%
G04 Gerber Fmt 4.6, Leading zero omitted, Abs format (unit mm)*
G04 Created by KiCad (PCBNEW 7.0.10-7.0.10~ubuntu22.04.1) date 2024-01-12 05:53:19*
%MOMM*%
%LPD*%
G01*
G04 APERTURE LIST*
%ADD10R,2.500000X1.800000*%
%ADD11O,0.000001X0.000001*%
%ADD12R,1.800000X2.500000*%
G04 APERTURE END LIST*
G04 #@! TO.C,R20*
G36*
G01*
X47375000Y198299521D02*
X48625000Y198299521D01*
G75*
G02*
X48725000Y198199521I0J-100000D01*
G01*
X48725000Y197399521D01*
G75*
G02*
X48625000Y197299521I-100000J0D01*
G01*
X47375000Y197299521D01*
G75*
G02*
X47275000Y197399521I0J100000D01*
G01*
X47275000Y198199521D01*
G75*
G02*
X47375000Y198299521I100000J0D01*
G01*
G37*
G36*
G01*
X47375000Y196399499D02*
X48625000Y196399499D01*
G75*
G02*
X48725000Y196299499I0J-100000D01*
G01*
X48725000Y195499499D01*
G75*
G02*
X48625000Y195399499I-100000J0D01*
G01*
X47375000Y195399499D01*
G75*
G02*
X47275000Y195499499I0J100000D01*
G01*
X47275000Y196299499D01*
G75*
G02*
X47375000Y196399499I100000J0D01*
G01*
G37*
G04 #@! TD*
G04 #@! TO.C,R18*
G36*
G01*
X57375000Y198250001D02*
X58625000Y198250001D01*
G75*
G02*
X58725000Y198150001I0J-100000D01*
G01*
X58725000Y197350001D01*
G75*
G02*
X58625000Y197250001I-100000J0D01*
G01*
X57375000Y197250001D01*
G75*
G02*
X57275000Y197350001I0J100000D01*
G01*
X57275000Y198150001D01*
G75*
G02*
X57375000Y198250001I100000J0D01*
G01*
G37*
G36*
G01*
X57375000Y196349979D02*
X58625000Y196349979D01*
G75*
G02*
X58725000Y196249979I0J-100000D01*
G01*
X58725000Y195449979D01*
G75*
G02*
X58625000Y195349979I-100000J0D01*
G01*
X57375000Y195349979D01*
G75*
G02*
X57275000Y195449979I0J100000D01*
G01*
X57275000Y196249979D01*
G75*
G02*
X57375000Y196349979I100000J0D01*
G01*
G37*
G04 #@! TD*
G04 #@! TO.C,R8*
G36*
G01*
X39150000Y195190000D02*
X39150000Y194410000D01*
G75*
G02*
X39080000Y194340000I-70000J0D01*
G01*
X38520000Y194340000D01*
G75*
G02*
X38450000Y194410000I0J70000D01*
G01*
X38450000Y195190000D01*
G75*
G02*
X38520000Y195260000I70000J0D01*
G01*
X39080000Y195260000D01*
G75*
G02*
X39150000Y195190000I0J-70000D01*
G01*
G37*
G36*
G01*
X37550000Y195190000D02*
X37550000Y194410000D01*
G75*
G02*
X37480000Y194340000I-70000J0D01*
G01*
X36920000Y194340000D01*
G75*
G02*
X36850000Y194410000I0J70000D01*
G01*
X36850000Y195190000D01*
G75*
G02*
X36920000Y195260000I70000J0D01*
G01*
X37480000Y195260000D01*
G75*
G02*
X37550000Y195190000I0J-70000D01*
G01*
G37*
G04 #@! TD*
D10*
G04 #@! TO.C,D3*
X128500000Y78000000D03*
X132500000Y78000000D03*
G04 #@! TD*
G04 #@! TO.C,R25*
G36*
G01*
X126875000Y198250001D02*
X128125000Y198250001D01*
G75*
G02*
X128225000Y198150001I0J-100000D01*
G01*
X128225000Y197350001D01*
G75*
G02*
X128125000Y197250001I-100000J0D01*
G01*
X126875000Y197250001D01*
G75*
G02*
X126775000Y197350001I0J100000D01*
G01*
X126775000Y198150001D01*
G75*
G02*
X126875000Y198250001I100000J0D01*
G01*
G37*
G36*
G01*
X126875000Y196349979D02*
X128125000Y196349979D01*
G75*
G02*
X128225000Y196249979I0J-100000D01*
G01*
X128225000Y195449979D01*
G75*
G02*
X128125000Y195349979I-100000J0D01*
G01*
X126875000Y195349979D01*
G75*
G02*
X126775000Y195449979I0J100000D01*
G01*
X126775000Y196249979D01*
G75*
G02*
X126875000Y196349979I100000J0D01*
G01*
G37*
G04 #@! TD*
D11*
G04 #@! TO.C,M3*
X36187499Y69913333D03*
G04 #@! TD*
G04 #@! TO.C,R5*
G36*
G01*
X44150000Y191410000D02*
X44150000Y192190000D01*
G75*
G02*
X44220000Y192260000I70000J0D01*
G01*
X44780000Y192260000D01*
G75*
G02*
X44850000Y192190000I0J-70000D01*
G01*
X44850000Y191410000D01*
G75*
G02*
X44780000Y191340000I-70000J0D01*
G01*
X44220000Y191340000D01*
G75*
G02*
X44150000Y191410000I0J70000D01*
G01*
G37*
G36*
G01*
X45750000Y191410000D02*
X45750000Y192190000D01*
G75*
G02*
X45820000Y192260000I70000J0D01*
G01*
X46380000Y192260000D01*
G75*
G02*
X46450000Y192190000I0J-70000D01*
G01*
X46450000Y191410000D01*
G75*
G02*
X46380000Y191340000I-70000J0D01*
G01*
X45820000Y191340000D01*
G75*
G02*
X45750000Y191410000I0J70000D01*
G01*
G37*
G04 #@! TD*
G04 #@! TO.C,R2*
G36*
G01*
X120875000Y198250001D02*
X122125000Y198250001D01*
G75*
G02*
X122225000Y198150001I0J-100000D01*
G01*
X122225000Y197350001D01*
G75*
G02*
X122125000Y197250001I-100000J0D01*
G01*
X120875000Y197250001D01*
G75*
G02*
X120775000Y197350001I0J100000D01*
G01*
X120775000Y198150001D01*
G75*
G02*
X120875000Y198250001I100000J0D01*
G01*
G37*
G36*
G01*
X120875000Y196349979D02*
X122125000Y196349979D01*
G75*
G02*
X122225000Y196249979I0J-100000D01*
G01*
X122225000Y195449979D01*
G75*
G02*
X122125000Y195349979I-100000J0D01*
G01*
X120875000Y195349979D01*
G75*
G02*
X120775000Y195449979I0J100000D01*
G01*
X120775000Y196249979D01*
G75*
G02*
X120875000Y196349979I100000J0D01*
G01*
G37*
G04 #@! TD*
G04 #@! TO.C,R14*
G36*
G01*
X49875000Y198250001D02*
X51125000Y198250001D01*
G75*
G02*
X51225000Y198150001I0J-100000D01*
G01*
X51225000Y197350001D01*
G75*
G02*
X51125000Y197250001I-100000J0D01*
G01*
X49875000Y197250001D01*
G75*
G02*
X49775000Y197350001I0J100000D01*
G01*
X49775000Y198150001D01*
G75*
G02*
X49875000Y198250001I100000J0D01*
G01*
G37*
G36*
G01*
X49875000Y196349979D02*
X51125000Y196349979D01*
G75*
G02*
X51225000Y196249979I0J-100000D01*
G01*
X51225000Y195449979D01*
G75*
G02*
X51125000Y195349979I-100000J0D01*
G01*
X49875000Y195349979D01*
G75*
G02*
X49775000Y195449979I0J100000D01*
G01*
X49775000Y196249979D01*
G75*
G02*
X49875000Y196349979I100000J0D01*
G01*
G37*
G04 #@! TD*
G04 #@! TO.C,R16*
G36*
G01*
X67375000Y198250001D02*
X68625000Y198250001D01*
G75*
G02*
X68725000Y198150001I0J-100000D01*
G01*
X68725000Y197350001D01*
G75*
G02*
X68625000Y197250001I-100000J0D01*
G01*
X67375000Y197250001D01*
G75*
G02*
X67275000Y197350001I0J100000D01*
G01*
X67275000Y198150001D01*
G75*
G02*
X67375000Y198250001I100000J0D01*
G01*
G37*
G36*
G01*
X67375000Y196349979D02*
X68625000Y196349979D01*
G75*
G02*
X68725000Y196249979I0J-100000D01*
G01*
X68725000Y195449979D01*
G75*
G02*
X68625000Y195349979I-100000J0D01*
G01*
X67375000Y195349979D01*
G75*
G02*
X67275000Y195449979I0J100000D01*
G01*
X67275000Y196249979D01*
G75*
G02*
X67375000Y196349979I100000J0D01*
G01*
G37*
G04 #@! TD*
G04 #@! TO.C,F1*
G36*
G01*
X97400000Y198465344D02*
X97400000Y199155344D01*
G75*
G02*
X97630000Y199385344I230000J0D01*
G01*
X98970000Y199385344D01*
G75*
G02*
X99200000Y199155344I0J-230000D01*
G01*
X99200000Y198465344D01*
G75*
G02*
X98970000Y198235344I-230000J0D01*
G01*
X97630000Y198235344D01*
G75*
G02*
X97400000Y198465344I0J230000D01*
G01*
G37*
G36*
G01*
X97400000Y195565324D02*
X97400000Y196255324D01*
G75*
G02*
X97630000Y196485324I230000J0D01*
G01*
X98970000Y196485324D01*
G75*
G02*
X99200000Y196255324I0J-230000D01*
G01*
X99200000Y195565324D01*
G75*
G02*
X98970000Y195335324I-230000J0D01*
G01*
X97630000Y195335324D01*
G75*
G02*
X97400000Y195565324I0J230000D01*
G01*
G37*
G04 #@! TD*
G04 #@! TO.C,R24*
G36*
G01*
X129375000Y198250001D02*
X130625000Y198250001D01*
G75*
G02*
X130725000Y198150001I0J-100000D01*
G01*
X130725000Y197350001D01*
G75*
G02*
X130625000Y197250001I-100000J0D01*
G01*
X129375000Y197250001D01*
G75*
G02*
X129275000Y197350001I0J100000D01*
G01*
X129275000Y198150001D01*
G75*
G02*
X129375000Y198250001I100000J0D01*
G01*
G37*
G36*
G01*
X129375000Y196349979D02*
X130625000Y196349979D01*
G75*
G02*
X130725000Y196249979I0J-100000D01*
G01*
X130725000Y195449979D01*
G75*
G02*
X130625000Y195349979I-100000J0D01*
G01*
X129375000Y195349979D01*
G75*
G02*
X129275000Y195449979I0J100000D01*
G01*
X129275000Y196249979D01*
G75*
G02*
X129375000Y196349979I100000J0D01*
G01*
G37*
G04 #@! TD*
G04 #@! TO.C,R3*
G36*
G01*
X53650000Y192190000D02*
X53650000Y191410000D01*
G75*
G02*
X53580000Y191340000I-70000J0D01*
G01*
X53020000Y191340000D01*
G75*
G02*
X52950000Y191410000I0J70000D01*
G01*
X52950000Y192190000D01*
G75*
G02*
X53020000Y192260000I70000J0D01*
G01*
X53580000Y192260000D01*
G75*
G02*
X53650000Y192190000I0J-70000D01*
G01*
G37*
G36*
G01*
X52050000Y192190000D02*
X52050000Y191410000D01*
G75*
G02*
X51980000Y191340000I-70000J0D01*
G01*
X51420000Y191340000D01*
G75*
G02*
X51350000Y191410000I0J70000D01*
G01*
X51350000Y192190000D01*
G75*
G02*
X51420000Y192260000I70000J0D01*
G01*
X51980000Y192260000D01*
G75*
G02*
X52050000Y192190000I0J-70000D01*
G01*
G37*
G04 #@! TD*
D10*
G04 #@! TO.C,D1*
X106900000Y197600000D03*
X102900000Y197600000D03*
G04 #@! TD*
G04 #@! TO.C,D5*
X128500000Y93000000D03*
X132500000Y93000000D03*
G04 #@! TD*
G04 #@! TO.C,R15*
G36*
G01*
X44875000Y198250001D02*
X46125000Y198250001D01*
G75*
G02*
X46225000Y198150001I0J-100000D01*
G01*
X46225000Y197350001D01*
G75*
G02*
X46125000Y197250001I-100000J0D01*
G01*
X44875000Y197250001D01*
G75*
G02*
X44775000Y197350001I0J100000D01*
G01*
X44775000Y198150001D01*
G75*
G02*
X44875000Y198250001I100000J0D01*
G01*
G37*
G36*
G01*
X44875000Y196349979D02*
X46125000Y196349979D01*
G75*
G02*
X46225000Y196249979I0J-100000D01*
G01*
X46225000Y195449979D01*
G75*
G02*
X46125000Y195349979I-100000J0D01*
G01*
X44875000Y195349979D01*
G75*
G02*
X44775000Y195449979I0J100000D01*
G01*
X44775000Y196249979D01*
G75*
G02*
X44875000Y196349979I100000J0D01*
G01*
G37*
G04 #@! TD*
G04 #@! TO.C,R7*
G36*
G01*
X56550000Y192190000D02*
X56550000Y191410000D01*
G75*
G02*
X56480000Y191340000I-70000J0D01*
G01*
X55920000Y191340000D01*
G75*
G02*
X55850000Y191410000I0J70000D01*
G01*
X55850000Y192190000D01*
G75*
G02*
X55920000Y192260000I70000J0D01*
G01*
X56480000Y192260000D01*
G75*
G02*
X56550000Y192190000I0J-70000D01*
G01*
G37*
G36*
G01*
X54950000Y192190000D02*
X54950000Y191410000D01*
G75*
G02*
X54880000Y191340000I-70000J0D01*
G01*
X54320000Y191340000D01*
G75*
G02*
X54250000Y191410000I0J70000D01*
G01*
X54250000Y192190000D01*
G75*
G02*
X54320000Y192260000I70000J0D01*
G01*
X54880000Y192260000D01*
G75*
G02*
X54950000Y192190000I0J-70000D01*
G01*
G37*
G04 #@! TD*
G04 #@! TO.C,R28*
G36*
G01*
X131375000Y198250001D02*
X132625000Y198250001D01*
G75*
G02*
X132725000Y198150001I0J-100000D01*
G01*
X132725000Y197350001D01*
G75*
G02*
X132625000Y197250001I-100000J0D01*
G01*
X131375000Y197250001D01*
G75*
G02*
X131275000Y197350001I0J100000D01*
G01*
X131275000Y198150001D01*
G75*
G02*
X131375000Y198250001I100000J0D01*
G01*
G37*
G36*
G01*
X131375000Y196349979D02*
X132625000Y196349979D01*
G75*
G02*
X132725000Y196249979I0J-100000D01*
G01*
X132725000Y195449979D01*
G75*
G02*
X132625000Y195349979I-100000J0D01*
G01*
X131375000Y195349979D01*
G75*
G02*
X131275000Y195449979I0J100000D01*
G01*
X131275000Y196249979D01*
G75*
G02*
X131375000Y196349979I100000J0D01*
G01*
G37*
G04 #@! TD*
G04 #@! TO.C,R10*
G36*
G01*
X69875000Y198250001D02*
X71125000Y198250001D01*
G75*
G02*
X71225000Y198150001I0J-100000D01*
G01*
X71225000Y197350001D01*
G75*
G02*
X71125000Y197250001I-100000J0D01*
G01*
X69875000Y197250001D01*
G75*
G02*
X69775000Y197350001I0J100000D01*
G01*
X69775000Y198150001D01*
G75*
G02*
X69875000Y198250001I100000J0D01*
G01*
G37*
G36*
G01*
X69875000Y196349979D02*
X71125000Y196349979D01*
G75*
G02*
X71225000Y196249979I0J-100000D01*
G01*
X71225000Y195449979D01*
G75*
G02*
X71125000Y195349979I-100000J0D01*
G01*
X69875000Y195349979D01*
G75*
G02*
X69775000Y195449979I0J100000D01*
G01*
X69775000Y196249979D01*
G75*
G02*
X69875000Y196349979I100000J0D01*
G01*
G37*
G04 #@! TD*
G04 #@! TO.C,R23*
G36*
G01*
X141375000Y198250001D02*
X142625000Y198250001D01*
G75*
G02*
X142725000Y198150001I0J-100000D01*
G01*
X142725000Y197350001D01*
G75*
G02*
X142625000Y197250001I-100000J0D01*
G01*
X141375000Y197250001D01*
G75*
G02*
X141275000Y197350001I0J100000D01*
G01*
X141275000Y198150001D01*
G75*
G02*
X141375000Y198250001I100000J0D01*
G01*
G37*
G36*
G01*
X141375000Y196349979D02*
X142625000Y196349979D01*
G75*
G02*
X142725000Y196249979I0J-100000D01*
G01*
X142725000Y195449979D01*
G75*
G02*
X142625000Y195349979I-100000J0D01*
G01*
X141375000Y195349979D01*
G75*
G02*
X141275000Y195449979I0J100000D01*
G01*
X141275000Y196249979D01*
G75*
G02*
X141375000Y196349979I100000J0D01*
G01*
G37*
G04 #@! TD*
G04 #@! TO.C,R4*
G36*
G01*
X47150000Y191410000D02*
X47150000Y192190000D01*
G75*
G02*
X47220000Y192260000I70000J0D01*
G01*
X47780000Y192260000D01*
G75*
G02*
X47850000Y192190000I0J-70000D01*
G01*
X47850000Y191410000D01*
G75*
G02*
X47780000Y191340000I-70000J0D01*
G01*
X47220000Y191340000D01*
G75*
G02*
X47150000Y191410000I0J70000D01*
G01*
G37*
G36*
G01*
X48750000Y191410000D02*
X48750000Y192190000D01*
G75*
G02*
X48820000Y192260000I70000J0D01*
G01*
X49380000Y192260000D01*
G75*
G02*
X49450000Y192190000I0J-70000D01*
G01*
X49450000Y191410000D01*
G75*
G02*
X49380000Y191340000I-70000J0D01*
G01*
X48820000Y191340000D01*
G75*
G02*
X48750000Y191410000I0J70000D01*
G01*
G37*
G04 #@! TD*
G04 #@! TO.C,R12*
G36*
G01*
X59895000Y198250001D02*
X61145000Y198250001D01*
G75*
G02*
X61245000Y198150001I0J-100000D01*
G01*
X61245000Y197350001D01*
G75*
G02*
X61145000Y197250001I-100000J0D01*
G01*
X59895000Y197250001D01*
G75*
G02*
X59795000Y197350001I0J100000D01*
G01*
X59795000Y198150001D01*
G75*
G02*
X59895000Y198250001I100000J0D01*
G01*
G37*
G36*
G01*
X59895000Y196349979D02*
X61145000Y196349979D01*
G75*
G02*
X61245000Y196249979I0J-100000D01*
G01*
X61245000Y195449979D01*
G75*
G02*
X61145000Y195349979I-100000J0D01*
G01*
X59895000Y195349979D01*
G75*
G02*
X59795000Y195449979I0J100000D01*
G01*
X59795000Y196249979D01*
G75*
G02*
X59895000Y196349979I100000J0D01*
G01*
G37*
G04 #@! TD*
G04 #@! TO.C,R21*
G36*
G01*
X39875000Y198250001D02*
X41125000Y198250001D01*
G75*
G02*
X41225000Y198150001I0J-100000D01*
G01*
X41225000Y197350001D01*
G75*
G02*
X41125000Y197250001I-100000J0D01*
G01*
X39875000Y197250001D01*
G75*
G02*
X39775000Y197350001I0J100000D01*
G01*
X39775000Y198150001D01*
G75*
G02*
X39875000Y198250001I100000J0D01*
G01*
G37*
G36*
G01*
X39875000Y196349979D02*
X41125000Y196349979D01*
G75*
G02*
X41225000Y196249979I0J-100000D01*
G01*
X41225000Y195449979D01*
G75*
G02*
X41125000Y195349979I-100000J0D01*
G01*
X39875000Y195349979D01*
G75*
G02*
X39775000Y195449979I0J100000D01*
G01*
X39775000Y196249979D01*
G75*
G02*
X39875000Y196349979I100000J0D01*
G01*
G37*
G04 #@! TD*
G04 #@! TO.C,R13*
G36*
G01*
X52375000Y198250001D02*
X53625000Y198250001D01*
G75*
G02*
X53725000Y198150001I0J-100000D01*
G01*
X53725000Y197350001D01*
G75*
G02*
X53625000Y197250001I-100000J0D01*
G01*
X52375000Y197250001D01*
G75*
G02*
X52275000Y197350001I0J100000D01*
G01*
X52275000Y198150001D01*
G75*
G02*
X52375000Y198250001I100000J0D01*
G01*
G37*
G36*
G01*
X52375000Y196349979D02*
X53625000Y196349979D01*
G75*
G02*
X53725000Y196249979I0J-100000D01*
G01*
X53725000Y195449979D01*
G75*
G02*
X53625000Y195349979I-100000J0D01*
G01*
X52375000Y195349979D01*
G75*
G02*
X52275000Y195449979I0J100000D01*
G01*
X52275000Y196249979D01*
G75*
G02*
X52375000Y196349979I100000J0D01*
G01*
G37*
G04 #@! TD*
G04 #@! TO.C,R27*
G36*
G01*
X116375000Y198250001D02*
X117625000Y198250001D01*
G75*
G02*
X117725000Y198150001I0J-100000D01*
G01*
X117725000Y197350001D01*
G75*
G02*
X117625000Y197250001I-100000J0D01*
G01*
X116375000Y197250001D01*
G75*
G02*
X116275000Y197350001I0J100000D01*
G01*
X116275000Y198150001D01*
G75*
G02*
X116375000Y198250001I100000J0D01*
G01*
G37*
G36*
G01*
X116375000Y196349979D02*
X117625000Y196349979D01*
G75*
G02*
X117725000Y196249979I0J-100000D01*
G01*
X117725000Y195449979D01*
G75*
G02*
X117625000Y195349979I-100000J0D01*
G01*
X116375000Y195349979D01*
G75*
G02*
X116275000Y195449979I0J100000D01*
G01*
X116275000Y196249979D01*
G75*
G02*
X116375000Y196349979I100000J0D01*
G01*
G37*
G04 #@! TD*
G04 #@! TO.C,D6*
X128500000Y88000000D03*
X132500000Y88000000D03*
G04 #@! TD*
D12*
G04 #@! TO.C,D2*
X145000000Y195374889D03*
X145000000Y199374889D03*
G04 #@! TD*
G04 #@! TO.C,R17*
G36*
G01*
X62375000Y198250001D02*
X63625000Y198250001D01*
G75*
G02*
X63725000Y198150001I0J-100000D01*
G01*
X63725000Y197350001D01*
G75*
G02*
X63625000Y197250001I-100000J0D01*
G01*
X62375000Y197250001D01*
G75*
G02*
X62275000Y197350001I0J100000D01*
G01*
X62275000Y198150001D01*
G75*
G02*
X62375000Y198250001I100000J0D01*
G01*
G37*
G36*
G01*
X62375000Y196349979D02*
X63625000Y196349979D01*
G75*
G02*
X63725000Y196249979I0J-100000D01*
G01*
X63725000Y195449979D01*
G75*
G02*
X63625000Y195349979I-100000J0D01*
G01*
X62375000Y195349979D01*
G75*
G02*
X62275000Y195449979I0J100000D01*
G01*
X62275000Y196249979D01*
G75*
G02*
X62375000Y196349979I100000J0D01*
G01*
G37*
G04 #@! TD*
G04 #@! TO.C,R1*
G36*
G01*
X72375000Y198250001D02*
X73625000Y198250001D01*
G75*
G02*
X73725000Y198150001I0J-100000D01*
G01*
X73725000Y197350001D01*
G75*
G02*
X73625000Y197250001I-100000J0D01*
G01*
X72375000Y197250001D01*
G75*
G02*
X72275000Y197350001I0J100000D01*
G01*
X72275000Y198150001D01*
G75*
G02*
X72375000Y198250001I100000J0D01*
G01*
G37*
G36*
G01*
X72375000Y196349979D02*
X73625000Y196349979D01*
G75*
G02*
X73725000Y196249979I0J-100000D01*
G01*
X73725000Y195449979D01*
G75*
G02*
X73625000Y195349979I-100000J0D01*
G01*
X72375000Y195349979D01*
G75*
G02*
X72275000Y195449979I0J100000D01*
G01*
X72275000Y196249979D01*
G75*
G02*
X72375000Y196349979I100000J0D01*
G01*
G37*
G04 #@! TD*
G04 #@! TO.C,R22*
G36*
G01*
X109375000Y198250001D02*
X110625000Y198250001D01*
G75*
G02*
X110725000Y198150001I0J-100000D01*
G01*
X110725000Y197350001D01*
G75*
G02*
X110625000Y197250001I-100000J0D01*
G01*
X109375000Y197250001D01*
G75*
G02*
X109275000Y197350001I0J100000D01*
G01*
X109275000Y198150001D01*
G75*
G02*
X109375000Y198250001I100000J0D01*
G01*
G37*
G36*
G01*
X109375000Y196349979D02*
X110625000Y196349979D01*
G75*
G02*
X110725000Y196249979I0J-100000D01*
G01*
X110725000Y195449979D01*
G75*
G02*
X110625000Y195349979I-100000J0D01*
G01*
X109375000Y195349979D01*
G75*
G02*
X109275000Y195449979I0J100000D01*
G01*
X109275000Y196249979D01*
G75*
G02*
X109375000Y196349979I100000J0D01*
G01*
G37*
G04 #@! TD*
G04 #@! TO.C,R26*
G36*
G01*
X124375000Y198250001D02*
X125625000Y198250001D01*
G75*
G02*
X125725000Y198150001I0J-100000D01*
G01*
X125725000Y197350001D01*
G75*
G02*
X125625000Y197250001I-100000J0D01*
G01*
X124375000Y197250001D01*
G75*
G02*
X124275000Y197350001I0J100000D01*
G01*
X124275000Y198150001D01*
G75*
G02*
X124375000Y198250001I100000J0D01*
G01*
G37*
G36*
G01*
X124375000Y196349979D02*
X125625000Y196349979D01*
G75*
G02*
X125725000Y196249979I0J-100000D01*
G01*
X125725000Y195449979D01*
G75*
G02*
X125625000Y195349979I-100000J0D01*
G01*
X124375000Y195349979D01*
G75*
G02*
X124275000Y195449979I0J100000D01*
G01*
X124275000Y196249979D01*
G75*
G02*
X124375000Y196349979I100000J0D01*
G01*
G37*
G04 #@! TD*
G04 #@! TO.C,R6*
G36*
G01*
X59350000Y192190000D02*
X59350000Y191410000D01*
G75*
G02*
X59280000Y191340000I-70000J0D01*
G01*
X58720000Y191340000D01*
G75*
G02*
X58650000Y191410000I0J70000D01*
G01*
X58650000Y192190000D01*
G75*
G02*
X58720000Y192260000I70000J0D01*
G01*
X59280000Y192260000D01*
G75*
G02*
X59350000Y192190000I0J-70000D01*
G01*
G37*
G36*
G01*
X57750000Y192190000D02*
X57750000Y191410000D01*
G75*
G02*
X57680000Y191340000I-70000J0D01*
G01*
X57120000Y191340000D01*
G75*
G02*
X57050000Y191410000I0J70000D01*
G01*
X57050000Y192190000D01*
G75*
G02*
X57120000Y192260000I70000J0D01*
G01*
X57680000Y192260000D01*
G75*
G02*
X57750000Y192190000I0J-70000D01*
G01*
G37*
G04 #@! TD*
G04 #@! TO.C,R19*
G36*
G01*
X54875000Y198250001D02*
X56125000Y198250001D01*
G75*
G02*
X56225000Y198150001I0J-100000D01*
G01*
X56225000Y197350001D01*
G75*
G02*
X56125000Y197250001I-100000J0D01*
G01*
X54875000Y197250001D01*
G75*
G02*
X54775000Y197350001I0J100000D01*
G01*
X54775000Y198150001D01*
G75*
G02*
X54875000Y198250001I100000J0D01*
G01*
G37*
G36*
G01*
X54875000Y196349979D02*
X56125000Y196349979D01*
G75*
G02*
X56225000Y196249979I0J-100000D01*
G01*
X56225000Y195449979D01*
G75*
G02*
X56125000Y195349979I-100000J0D01*
G01*
X54875000Y195349979D01*
G75*
G02*
X54775000Y195449979I0J100000D01*
G01*
X54775000Y196249979D01*
G75*
G02*
X54875000Y196349979I100000J0D01*
G01*
G37*
G04 #@! TD*
G04 #@! TO.C,R11*
G36*
G01*
X64875000Y198250001D02*
X66125000Y198250001D01*
G75*
G02*
X66225000Y198150001I0J-100000D01*
G01*
X66225000Y197350001D01*
G75*
G02*
X66125000Y197250001I-100000J0D01*
G01*
X64875000Y197250001D01*
G75*
G02*
X64775000Y197350001I0J100000D01*
G01*
X64775000Y198150001D01*
G75*
G02*
X64875000Y198250001I100000J0D01*
G01*
G37*
G36*
G01*
X64875000Y196349979D02*
X66125000Y196349979D01*
G75*
G02*
X66225000Y196249979I0J-100000D01*
G01*
X66225000Y195449979D01*
G75*
G02*
X66125000Y195349979I-100000J0D01*
G01*
X64875000Y195349979D01*
G75*
G02*
X64775000Y195449979I0J100000D01*
G01*
X64775000Y196249979D01*
G75*
G02*
X64875000Y196349979I100000J0D01*
G01*
G37*
G04 #@! TD*
D10*
G04 #@! TO.C,D4*
X128500000Y83000000D03*
X132500000Y83000000D03*
G04 #@! TD*
G04 #@! TO.C,R29*
G36*
G01*
X55400000Y73750001D02*
X56650000Y73750001D01*
G75*
G02*
X56750000Y73650001I0J-100000D01*
G01*
X56750000Y72850001D01*
G75*
G02*
X56650000Y72750001I-100000J0D01*
G01*
X55400000Y72750001D01*
G75*
G02*
X55300000Y72850001I0J100000D01*
G01*
X55300000Y73650001D01*
G75*
G02*
X55400000Y73750001I100000J0D01*
G01*
G37*
G36*
G01*
X55400000Y71849979D02*
X56650000Y71849979D01*
G75*
G02*
X56750000Y71749979I0J-100000D01*
G01*
X56750000Y70949979D01*
G75*
G02*
X56650000Y70849979I-100000J0D01*
G01*
X55400000Y70849979D01*
G75*
G02*
X55300000Y70949979I0J100000D01*
G01*
X55300000Y71749979D01*
G75*
G02*
X55400000Y71849979I100000J0D01*
G01*
G37*
G04 #@! TD*
M02*
