G75*
G70*
%OFA0B0*%
%FSLAX25Y25*%
%IPPOS*%
%LPD*%
%AMOC8*
5,1,8,0,0,1.08239X$1,22.5*
%
%AMM16*
21,1,0.040950,0.030320,-0.000000,-0.000000,0.000000*
21,1,0.028350,0.042910,-0.000000,-0.000000,0.000000*
1,1,0.012600,0.014170,-0.015160*
1,1,0.012600,-0.014170,-0.015160*
1,1,0.012600,-0.014170,0.015160*
1,1,0.012600,0.014170,0.015160*
%
%AMM17*
21,1,0.038980,0.026770,-0.000000,-0.000000,180.000000*
21,1,0.026770,0.038980,-0.000000,-0.000000,180.000000*
1,1,0.012210,-0.013390,0.013390*
1,1,0.012210,0.013390,0.013390*
1,1,0.012210,0.013390,-0.013390*
1,1,0.012210,-0.013390,-0.013390*
%
%AMM18*
21,1,0.033070,0.030710,-0.000000,-0.000000,0.000000*
21,1,0.022050,0.041730,-0.000000,-0.000000,0.000000*
1,1,0.011020,0.011020,-0.015350*
1,1,0.011020,-0.011020,-0.015350*
1,1,0.011020,-0.011020,0.015350*
1,1,0.011020,0.011020,0.015350*
%
%ADD10C,0.06693*%
%ADD101O,0.02520X0.01535*%
%ADD102O,0.01535X0.02520*%
%ADD104O,0.09213X0.02913*%
%ADD107C,0.02913*%
%ADD109R,0.08661X0.04724*%
%ADD11C,0.06000*%
%ADD110R,0.25197X0.22835*%
%ADD111R,0.01772X0.05709*%
%ADD112R,0.02559X0.04803*%
%ADD113R,0.07874X0.07500*%
%ADD114O,0.07874X0.07500*%
%ADD12R,0.09843X0.07087*%
%ADD13C,0.02362*%
%ADD131M16*%
%ADD132M17*%
%ADD133M18*%
%ADD23O,0.01969X0.00984*%
%ADD25O,0.00984X0.01969*%
%ADD26C,0.09449*%
%ADD27O,0.06693X0.07677*%
%ADD28C,0.06299*%
%ADD38R,0.06693X0.06693*%
%ADD39O,0.06693X0.06693*%
%ADD40R,0.07087X0.09843*%
%ADD45C,0.07874*%
%ADD46C,0.16929*%
%ADD47C,0.13780*%
%ADD64R,0.02559X0.01575*%
%ADD71R,0.01575X0.02559*%
%ADD74C,0.05118*%
%ADD77R,0.03543X0.03150*%
%ADD80R,0.03150X0.03543*%
%ADD88C,0.03100*%
%ADD91C,0.03900*%
X0000000Y0000000D02*
%LPD*%
G01*
D10*
X0576772Y0568898D03*
X0051181Y0781496D03*
X0299528Y0150079D03*
X0299528Y0160079D03*
X0299528Y0170079D03*
X0299528Y0180079D03*
X0299528Y0190079D03*
X0309528Y0150079D03*
X0309528Y0160079D03*
X0309528Y0170079D03*
X0309528Y0180079D03*
X0309528Y0190079D03*
X0319528Y0150079D03*
X0319528Y0160079D03*
X0319528Y0170079D03*
X0319528Y0180079D03*
X0319528Y0190079D03*
X0535433Y0366142D03*
D11*
X0188976Y0782498D03*
G36*
G01*
X0186516Y0780707D02*
X0191437Y0780707D01*
G75*
G02*
X0191831Y0780313I0000000J-000394D01*
G01*
X0191831Y0777163D01*
G75*
G02*
X0191437Y0776770I-000394J0000000D01*
G01*
X0186516Y0776770D01*
G75*
G02*
X0186122Y0777163I0000000J0000394D01*
G01*
X0186122Y0780313D01*
G75*
G02*
X0186516Y0780707I0000394J0000000D01*
G01*
G37*
G36*
G01*
X0186516Y0773226D02*
X0191437Y0773226D01*
G75*
G02*
X0191831Y0772833I0000000J-000394D01*
G01*
X0191831Y0769683D01*
G75*
G02*
X0191437Y0769289I-000394J0000000D01*
G01*
X0186516Y0769289D01*
G75*
G02*
X0186122Y0769683I0000000J0000394D01*
G01*
X0186122Y0772833D01*
G75*
G02*
X0186516Y0773226I0000394J0000000D01*
G01*
G37*
X0188976Y0767498D03*
D46*
X0305118Y0015748D03*
D10*
X0521654Y0743307D03*
X0486220Y0743307D03*
D11*
X0228346Y0782303D03*
G36*
G01*
X0225886Y0780512D02*
X0230807Y0780512D01*
G75*
G02*
X0231201Y0780118I0000000J-000394D01*
G01*
X0231201Y0776969D01*
G75*
G02*
X0230807Y0776575I-000394J0000000D01*
G01*
X0225886Y0776575D01*
G75*
G02*
X0225492Y0776969I0000000J0000394D01*
G01*
X0225492Y0780118D01*
G75*
G02*
X0225886Y0780512I0000394J0000000D01*
G01*
G37*
G36*
G01*
X0225886Y0773031D02*
X0230807Y0773031D01*
G75*
G02*
X0231201Y0772638I0000000J-000394D01*
G01*
X0231201Y0769488D01*
G75*
G02*
X0230807Y0769094I-000394J0000000D01*
G01*
X0225886Y0769094D01*
G75*
G02*
X0225492Y0769488I0000000J0000394D01*
G01*
X0225492Y0772638D01*
G75*
G02*
X0225886Y0773031I0000394J0000000D01*
G01*
G37*
X0228346Y0767303D03*
D10*
X0450787Y0773622D03*
X0446850Y0743307D03*
X0535433Y0326772D03*
D46*
X0019685Y0405512D03*
G36*
G01*
X0154134Y0768465D02*
X0154134Y0765394D01*
G75*
G02*
X0153858Y0765118I-000276J0000000D01*
G01*
X0151654Y0765118D01*
G75*
G02*
X0151378Y0765394I0000000J0000276D01*
G01*
X0151378Y0768465D01*
G75*
G02*
X0151654Y0768740I0000276J0000000D01*
G01*
X0153858Y0768740D01*
G75*
G02*
X0154134Y0768465I0000000J-000276D01*
G01*
G37*
G36*
G01*
X0147835Y0768465D02*
X0147835Y0765394D01*
G75*
G02*
X0147559Y0765118I-000276J0000000D01*
G01*
X0145354Y0765118D01*
G75*
G02*
X0145079Y0765394I0000000J0000276D01*
G01*
X0145079Y0768465D01*
G75*
G02*
X0145354Y0768740I0000276J0000000D01*
G01*
X0147559Y0768740D01*
G75*
G02*
X0147835Y0768465I0000000J-000276D01*
G01*
G37*
D12*
X0505906Y0307087D03*
X0521654Y0307087D03*
D11*
X0501969Y0782303D03*
G36*
G01*
X0499508Y0780512D02*
X0504429Y0780512D01*
G75*
G02*
X0504823Y0780118I0000000J-000394D01*
G01*
X0504823Y0776969D01*
G75*
G02*
X0504429Y0776575I-000394J0000000D01*
G01*
X0499508Y0776575D01*
G75*
G02*
X0499114Y0776969I0000000J0000394D01*
G01*
X0499114Y0780118D01*
G75*
G02*
X0499508Y0780512I0000394J0000000D01*
G01*
G37*
G36*
G01*
X0499508Y0773031D02*
X0504429Y0773031D01*
G75*
G02*
X0504823Y0772638I0000000J-000394D01*
G01*
X0504823Y0769488D01*
G75*
G02*
X0504429Y0769094I-000394J0000000D01*
G01*
X0499508Y0769094D01*
G75*
G02*
X0499114Y0769488I0000000J0000394D01*
G01*
X0499114Y0772638D01*
G75*
G02*
X0499508Y0773031I0000394J0000000D01*
G01*
G37*
X0501969Y0767303D03*
D10*
X0031496Y0592520D03*
X0576772Y0596457D03*
D46*
X0015748Y0839370D03*
D10*
X0250000Y0755118D03*
X0137795Y0768898D03*
X0031496Y0568898D03*
X0285433Y0425197D03*
D13*
X0220571Y0304724D03*
X0250098Y0304724D03*
X0253248Y0304724D03*
X0256398Y0304724D03*
X0228051Y0373720D03*
X0224114Y0373720D03*
D10*
X0074803Y0781496D03*
X0541339Y0768898D03*
D46*
X0590551Y0062992D03*
D10*
X0535433Y0307087D03*
X0551969Y0501575D03*
X0179134Y0739370D03*
X0541339Y0780709D03*
X0329528Y0200079D03*
X0319528Y0200079D03*
X0309528Y0200079D03*
X0299528Y0200079D03*
X0289528Y0200079D03*
X0329528Y0210079D03*
X0319528Y0210079D03*
X0309528Y0210079D03*
X0299528Y0210079D03*
X0289528Y0210079D03*
X0329528Y0220079D03*
X0319528Y0220079D03*
X0309528Y0220079D03*
X0299528Y0220079D03*
X0289528Y0220079D03*
D23*
X0124262Y0275249D03*
D25*
X0165010Y0275052D03*
X0163041Y0275052D03*
D13*
X0137254Y0270919D03*
X0140699Y0268852D03*
X0136073Y0265899D03*
X0136368Y0251923D03*
D10*
X0576772Y0616142D03*
D45*
X0544291Y0480413D03*
X0544291Y0730020D03*
X0473032Y0474508D03*
X0473032Y0735925D03*
X0404134Y0535531D03*
X0398228Y0464272D03*
X0211614Y0464272D03*
X0205709Y0535531D03*
X0136811Y0474508D03*
X0136811Y0735925D03*
X0065551Y0480413D03*
X0065551Y0730020D03*
D26*
X0517520Y0518602D03*
X0517520Y0534350D03*
X0517520Y0550098D03*
X0517520Y0565846D03*
X0517520Y0581594D03*
X0517520Y0597343D03*
X0517520Y0613091D03*
X0517520Y0628839D03*
X0517520Y0644587D03*
X0517520Y0660335D03*
X0517520Y0676083D03*
X0517520Y0691831D03*
X0501772Y0526476D03*
X0501772Y0542224D03*
X0501772Y0557972D03*
X0501772Y0573720D03*
X0501772Y0589469D03*
X0501772Y0605217D03*
X0501772Y0620965D03*
X0501772Y0636713D03*
X0501772Y0652461D03*
X0501772Y0668209D03*
X0501772Y0683957D03*
X0486024Y0518602D03*
X0486024Y0534350D03*
X0486024Y0550098D03*
X0486024Y0565846D03*
X0486024Y0581594D03*
X0486024Y0597343D03*
X0486024Y0613091D03*
X0486024Y0628839D03*
X0486024Y0644587D03*
X0486024Y0660335D03*
X0486024Y0676083D03*
X0486024Y0691831D03*
X0249803Y0491043D03*
X0265551Y0491043D03*
X0281299Y0491043D03*
X0297047Y0491043D03*
X0312795Y0491043D03*
X0328543Y0491043D03*
X0344291Y0491043D03*
X0360039Y0491043D03*
X0257677Y0506791D03*
X0273425Y0506791D03*
X0289173Y0506791D03*
X0304921Y0506791D03*
X0320669Y0506791D03*
X0336417Y0506791D03*
X0352165Y0506791D03*
X0249803Y0522539D03*
X0265551Y0522539D03*
X0281299Y0522539D03*
X0297047Y0522539D03*
X0312795Y0522539D03*
X0328543Y0522539D03*
X0344291Y0522539D03*
X0360039Y0522539D03*
X0092323Y0691831D03*
X0092323Y0676083D03*
X0092323Y0660335D03*
X0092323Y0644587D03*
X0092323Y0628839D03*
X0092323Y0613091D03*
X0092323Y0597343D03*
X0092323Y0581594D03*
X0092323Y0565846D03*
X0092323Y0550098D03*
X0092323Y0534350D03*
X0092323Y0518602D03*
X0108071Y0683957D03*
X0108071Y0668209D03*
X0108071Y0652461D03*
X0108071Y0636713D03*
X0108071Y0620965D03*
X0108071Y0605217D03*
X0108071Y0589469D03*
X0108071Y0573720D03*
X0108071Y0557972D03*
X0108071Y0542224D03*
X0108071Y0526476D03*
X0123819Y0691831D03*
X0123819Y0676083D03*
X0123819Y0660335D03*
X0123819Y0644587D03*
X0123819Y0628839D03*
X0123819Y0613091D03*
X0123819Y0597343D03*
X0123819Y0581594D03*
X0123819Y0565846D03*
X0123819Y0550098D03*
X0123819Y0534350D03*
X0123819Y0518602D03*
D10*
X0299528Y0100079D03*
X0299528Y0110079D03*
X0299528Y0120079D03*
X0299528Y0130079D03*
X0299528Y0140079D03*
X0309528Y0100079D03*
X0309528Y0110079D03*
X0309528Y0120079D03*
X0309528Y0130079D03*
X0309528Y0140079D03*
X0319528Y0100079D03*
X0319528Y0110079D03*
X0319528Y0120079D03*
X0319528Y0130079D03*
X0319528Y0140079D03*
G36*
G01*
X0072441Y0055295D02*
X0072441Y0061004D01*
G75*
G02*
X0073425Y0061988I0000984J0000000D01*
G01*
X0078150Y0061988D01*
G75*
G02*
X0079134Y0061004I0000000J-000984D01*
G01*
X0079134Y0055295D01*
G75*
G02*
X0078150Y0054311I-000984J0000000D01*
G01*
X0073425Y0054311D01*
G75*
G02*
X0072441Y0055295I0000000J0000984D01*
G01*
G37*
D27*
X0085630Y0058150D03*
X0095472Y0058150D03*
X0105315Y0058150D03*
X0115157Y0058150D03*
X0125000Y0058150D03*
X0134843Y0058150D03*
X0144685Y0058150D03*
X0154528Y0058150D03*
X0164370Y0058150D03*
D10*
X0375073Y0775591D03*
X0551969Y0525197D03*
G36*
G01*
X0173819Y0753583D02*
X0173819Y0756654D01*
G75*
G02*
X0174094Y0756929I0000276J0000000D01*
G01*
X0176299Y0756929D01*
G75*
G02*
X0176575Y0756654I0000000J-000276D01*
G01*
X0176575Y0753583D01*
G75*
G02*
X0176299Y0753307I-000276J0000000D01*
G01*
X0174094Y0753307D01*
G75*
G02*
X0173819Y0753583I0000000J0000276D01*
G01*
G37*
G36*
G01*
X0180118Y0753583D02*
X0180118Y0756654D01*
G75*
G02*
X0180394Y0756929I0000276J0000000D01*
G01*
X0182598Y0756929D01*
G75*
G02*
X0182874Y0756654I0000000J-000276D01*
G01*
X0182874Y0753583D01*
G75*
G02*
X0182598Y0753307I-000276J0000000D01*
G01*
X0180394Y0753307D01*
G75*
G02*
X0180118Y0753583I0000000J0000276D01*
G01*
G37*
D11*
X0478346Y0782303D03*
G36*
G01*
X0475886Y0780512D02*
X0480807Y0780512D01*
G75*
G02*
X0481201Y0780118I0000000J-000394D01*
G01*
X0481201Y0776969D01*
G75*
G02*
X0480807Y0776575I-000394J0000000D01*
G01*
X0475886Y0776575D01*
G75*
G02*
X0475492Y0776969I0000000J0000394D01*
G01*
X0475492Y0780118D01*
G75*
G02*
X0475886Y0780512I0000394J0000000D01*
G01*
G37*
G36*
G01*
X0475886Y0773031D02*
X0480807Y0773031D01*
G75*
G02*
X0481201Y0772638I0000000J-000394D01*
G01*
X0481201Y0769488D01*
G75*
G02*
X0480807Y0769094I-000394J0000000D01*
G01*
X0475886Y0769094D01*
G75*
G02*
X0475492Y0769488I0000000J0000394D01*
G01*
X0475492Y0772638D01*
G75*
G02*
X0475886Y0773031I0000394J0000000D01*
G01*
G37*
X0478346Y0767303D03*
X0198819Y0782303D03*
G36*
G01*
X0196358Y0780512D02*
X0201280Y0780512D01*
G75*
G02*
X0201673Y0780118I0000000J-000394D01*
G01*
X0201673Y0776969D01*
G75*
G02*
X0201280Y0776575I-000394J0000000D01*
G01*
X0196358Y0776575D01*
G75*
G02*
X0195965Y0776969I0000000J0000394D01*
G01*
X0195965Y0780118D01*
G75*
G02*
X0196358Y0780512I0000394J0000000D01*
G01*
G37*
G36*
G01*
X0196358Y0773031D02*
X0201280Y0773031D01*
G75*
G02*
X0201673Y0772638I0000000J-000394D01*
G01*
X0201673Y0769488D01*
G75*
G02*
X0201280Y0769094I-000394J0000000D01*
G01*
X0196358Y0769094D01*
G75*
G02*
X0195965Y0769488I0000000J0000394D01*
G01*
X0195965Y0772638D01*
G75*
G02*
X0196358Y0773031I0000394J0000000D01*
G01*
G37*
X0198819Y0767303D03*
X0267717Y0782303D03*
G36*
G01*
X0265256Y0780512D02*
X0270177Y0780512D01*
G75*
G02*
X0270571Y0780118I0000000J-000394D01*
G01*
X0270571Y0776969D01*
G75*
G02*
X0270177Y0776575I-000394J0000000D01*
G01*
X0265256Y0776575D01*
G75*
G02*
X0264862Y0776969I0000000J0000394D01*
G01*
X0264862Y0780118D01*
G75*
G02*
X0265256Y0780512I0000394J0000000D01*
G01*
G37*
G36*
G01*
X0265256Y0773031D02*
X0270177Y0773031D01*
G75*
G02*
X0270571Y0772638I0000000J-000394D01*
G01*
X0270571Y0769488D01*
G75*
G02*
X0270177Y0769094I-000394J0000000D01*
G01*
X0265256Y0769094D01*
G75*
G02*
X0264862Y0769488I0000000J0000394D01*
G01*
X0264862Y0772638D01*
G75*
G02*
X0265256Y0773031I0000394J0000000D01*
G01*
G37*
X0267717Y0767303D03*
X0387008Y0786655D03*
G36*
G01*
X0383465Y0781360D02*
X0383465Y0784076D01*
G75*
G02*
X0384370Y0784982I0000906J0000000D01*
G01*
X0389646Y0784982D01*
G75*
G02*
X0390551Y0784076I0000000J-000906D01*
G01*
X0390551Y0781360D01*
G75*
G02*
X0389646Y0780454I-000906J0000000D01*
G01*
X0384370Y0780454D01*
G75*
G02*
X0383465Y0781360I0000000J0000906D01*
G01*
G37*
G36*
G01*
X0383465Y0769942D02*
X0383465Y0772659D01*
G75*
G02*
X0384370Y0773564I0000906J0000000D01*
G01*
X0389646Y0773564D01*
G75*
G02*
X0390551Y0772659I0000000J-000906D01*
G01*
X0390551Y0769942D01*
G75*
G02*
X0389646Y0769037I-000906J0000000D01*
G01*
X0384370Y0769037D01*
G75*
G02*
X0383465Y0769942I0000000J0000906D01*
G01*
G37*
X0387008Y0767364D03*
X0511811Y0782303D03*
G36*
G01*
X0509350Y0780512D02*
X0514272Y0780512D01*
G75*
G02*
X0514665Y0780118I0000000J-000394D01*
G01*
X0514665Y0776969D01*
G75*
G02*
X0514272Y0776575I-000394J0000000D01*
G01*
X0509350Y0776575D01*
G75*
G02*
X0508957Y0776969I0000000J0000394D01*
G01*
X0508957Y0780118D01*
G75*
G02*
X0509350Y0780512I0000394J0000000D01*
G01*
G37*
G36*
G01*
X0509350Y0773031D02*
X0514272Y0773031D01*
G75*
G02*
X0514665Y0772638I0000000J-000394D01*
G01*
X0514665Y0769488D01*
G75*
G02*
X0514272Y0769094I-000394J0000000D01*
G01*
X0509350Y0769094D01*
G75*
G02*
X0508957Y0769488I0000000J0000394D01*
G01*
X0508957Y0772638D01*
G75*
G02*
X0509350Y0773031I0000394J0000000D01*
G01*
G37*
X0511811Y0767303D03*
D10*
X0062992Y0781496D03*
X0529528Y0768898D03*
X0329528Y0150079D03*
X0329528Y0160079D03*
X0329528Y0170079D03*
X0329528Y0180079D03*
X0329528Y0190079D03*
X0339528Y0150079D03*
X0339528Y0160079D03*
X0339528Y0170079D03*
X0339528Y0180079D03*
X0339528Y0190079D03*
X0349528Y0150079D03*
X0349528Y0160079D03*
X0349528Y0170079D03*
X0349528Y0180079D03*
X0349528Y0190079D03*
G36*
G01*
X0211220Y0756654D02*
X0211220Y0753583D01*
G75*
G02*
X0210945Y0753307I-000276J0000000D01*
G01*
X0208740Y0753307D01*
G75*
G02*
X0208465Y0753583I0000000J0000276D01*
G01*
X0208465Y0756654D01*
G75*
G02*
X0208740Y0756929I0000276J0000000D01*
G01*
X0210945Y0756929D01*
G75*
G02*
X0211220Y0756654I0000000J-000276D01*
G01*
G37*
G36*
G01*
X0204921Y0756654D02*
X0204921Y0753583D01*
G75*
G02*
X0204646Y0753307I-000276J0000000D01*
G01*
X0202441Y0753307D01*
G75*
G02*
X0202165Y0753583I0000000J0000276D01*
G01*
X0202165Y0756654D01*
G75*
G02*
X0202441Y0756929I0000276J0000000D01*
G01*
X0204646Y0756929D01*
G75*
G02*
X0204921Y0756654I0000000J-000276D01*
G01*
G37*
D46*
X0590551Y0405512D03*
D12*
X0420866Y0777953D03*
X0405118Y0777953D03*
G36*
G01*
X0465748Y0779547D02*
X0465748Y0782264D01*
G75*
G02*
X0466654Y0783169I0000906J0000000D01*
G01*
X0471929Y0783169D01*
G75*
G02*
X0472835Y0782264I0000000J-000906D01*
G01*
X0472835Y0779547D01*
G75*
G02*
X0471929Y0778642I-000906J0000000D01*
G01*
X0466654Y0778642D01*
G75*
G02*
X0465748Y0779547I0000000J0000906D01*
G01*
G37*
G36*
G01*
X0465748Y0768130D02*
X0465748Y0770846D01*
G75*
G02*
X0466654Y0771752I0000906J0000000D01*
G01*
X0471929Y0771752D01*
G75*
G02*
X0472835Y0770846I0000000J-000906D01*
G01*
X0472835Y0768130D01*
G75*
G02*
X0471929Y0767224I-000906J0000000D01*
G01*
X0466654Y0767224D01*
G75*
G02*
X0465748Y0768130I0000000J0000906D01*
G01*
G37*
D10*
X0031496Y0515748D03*
X0372047Y0425197D03*
D46*
X0015748Y0062992D03*
D10*
X0240157Y0743307D03*
X0269528Y0100079D03*
X0269528Y0110079D03*
X0269528Y0120079D03*
X0269528Y0130079D03*
X0269528Y0140079D03*
X0279528Y0100079D03*
X0279528Y0110079D03*
X0279528Y0120079D03*
X0279528Y0130079D03*
X0279528Y0140079D03*
X0289528Y0100079D03*
X0289528Y0110079D03*
X0289528Y0120079D03*
X0289528Y0130079D03*
X0289528Y0140079D03*
X0551969Y0513386D03*
D12*
X0505906Y0366142D03*
X0521654Y0366142D03*
D10*
X0202756Y0739370D03*
D47*
X0054134Y0866929D03*
X0279134Y0866929D03*
X0556102Y0866929D03*
D28*
X0554528Y0798425D03*
X0543504Y0798425D03*
X0532480Y0798425D03*
X0521457Y0798425D03*
X0499409Y0798425D03*
X0488386Y0798425D03*
X0477362Y0798425D03*
X0455315Y0798425D03*
X0444291Y0798425D03*
X0432087Y0798425D03*
X0418307Y0798425D03*
X0554528Y0814961D03*
X0543504Y0814961D03*
X0532480Y0814961D03*
X0521457Y0814961D03*
X0510433Y0814961D03*
X0499409Y0814961D03*
X0488386Y0814961D03*
X0477362Y0814961D03*
X0466339Y0814961D03*
X0455315Y0814961D03*
X0444291Y0814961D03*
X0432087Y0814961D03*
X0418307Y0814961D03*
X0532480Y0831496D03*
X0521457Y0831496D03*
X0510433Y0831496D03*
X0488386Y0831496D03*
X0477362Y0831496D03*
X0466339Y0831496D03*
X0455315Y0831496D03*
X0432087Y0831496D03*
X0393504Y0798425D03*
X0379724Y0798425D03*
X0356496Y0798425D03*
X0345472Y0798425D03*
X0334449Y0798425D03*
X0312402Y0798425D03*
X0301378Y0798425D03*
X0290354Y0798425D03*
X0393504Y0814961D03*
X0379724Y0814961D03*
X0367520Y0814961D03*
X0356496Y0814961D03*
X0345472Y0814961D03*
X0334449Y0814961D03*
X0323425Y0814961D03*
X0312402Y0814961D03*
X0301378Y0814961D03*
X0290354Y0814961D03*
X0393504Y0831496D03*
X0379724Y0831496D03*
X0356496Y0831496D03*
X0345472Y0831496D03*
X0323425Y0831496D03*
X0312402Y0831496D03*
X0301378Y0831496D03*
X0267913Y0798425D03*
X0256890Y0798425D03*
X0245866Y0798425D03*
X0234843Y0798425D03*
X0212795Y0798425D03*
X0201772Y0798425D03*
X0190748Y0798425D03*
X0168701Y0798425D03*
X0157677Y0798425D03*
X0146654Y0798425D03*
X0267913Y0814961D03*
X0256890Y0814961D03*
X0245866Y0814961D03*
X0234843Y0814961D03*
X0223819Y0814961D03*
X0212795Y0814961D03*
X0201772Y0814961D03*
X0190748Y0814961D03*
X0179724Y0814961D03*
X0168701Y0814961D03*
X0157677Y0814961D03*
X0146654Y0814961D03*
X0256890Y0831496D03*
X0245866Y0831496D03*
X0234843Y0831496D03*
X0212795Y0831496D03*
X0201772Y0831496D03*
X0190748Y0831496D03*
X0168701Y0831496D03*
X0157677Y0831496D03*
X0146654Y0831496D03*
X0124213Y0798425D03*
X0102165Y0798425D03*
X0091142Y0798425D03*
X0080118Y0798425D03*
X0056890Y0798425D03*
X0124213Y0814961D03*
X0113189Y0814961D03*
X0102165Y0814961D03*
X0091142Y0814961D03*
X0080118Y0814961D03*
X0069094Y0814961D03*
X0056890Y0814961D03*
X0124213Y0831496D03*
X0113189Y0831496D03*
X0102165Y0831496D03*
X0080118Y0831496D03*
D11*
X0179134Y0782303D03*
G36*
G01*
X0176673Y0780512D02*
X0181594Y0780512D01*
G75*
G02*
X0181988Y0780118I0000000J-000394D01*
G01*
X0181988Y0776969D01*
G75*
G02*
X0181594Y0776575I-000394J0000000D01*
G01*
X0176673Y0776575D01*
G75*
G02*
X0176280Y0776969I0000000J0000394D01*
G01*
X0176280Y0780118D01*
G75*
G02*
X0176673Y0780512I0000394J0000000D01*
G01*
G37*
G36*
G01*
X0176673Y0773031D02*
X0181594Y0773031D01*
G75*
G02*
X0181988Y0772638I0000000J-000394D01*
G01*
X0181988Y0769488D01*
G75*
G02*
X0181594Y0769094I-000394J0000000D01*
G01*
X0176673Y0769094D01*
G75*
G02*
X0176280Y0769488I0000000J0000394D01*
G01*
X0176280Y0772638D01*
G75*
G02*
X0176673Y0773031I0000394J0000000D01*
G01*
G37*
X0179134Y0767303D03*
G36*
G01*
X0222638Y0756654D02*
X0222638Y0753583D01*
G75*
G02*
X0222362Y0753307I-000276J0000000D01*
G01*
X0220157Y0753307D01*
G75*
G02*
X0219882Y0753583I0000000J0000276D01*
G01*
X0219882Y0756654D01*
G75*
G02*
X0220157Y0756929I0000276J0000000D01*
G01*
X0222362Y0756929D01*
G75*
G02*
X0222638Y0756654I0000000J-000276D01*
G01*
G37*
G36*
G01*
X0216339Y0756654D02*
X0216339Y0753583D01*
G75*
G02*
X0216063Y0753307I-000276J0000000D01*
G01*
X0213858Y0753307D01*
G75*
G02*
X0213583Y0753583I0000000J0000276D01*
G01*
X0213583Y0756654D01*
G75*
G02*
X0213858Y0756929I0000276J0000000D01*
G01*
X0216063Y0756929D01*
G75*
G02*
X0216339Y0756654I0000000J-000276D01*
G01*
G37*
X0519685Y0782303D03*
G36*
G01*
X0517224Y0780512D02*
X0522146Y0780512D01*
G75*
G02*
X0522539Y0780118I0000000J-000394D01*
G01*
X0522539Y0776969D01*
G75*
G02*
X0522146Y0776575I-000394J0000000D01*
G01*
X0517224Y0776575D01*
G75*
G02*
X0516831Y0776969I0000000J0000394D01*
G01*
X0516831Y0780118D01*
G75*
G02*
X0517224Y0780512I0000394J0000000D01*
G01*
G37*
G36*
G01*
X0517224Y0773031D02*
X0522146Y0773031D01*
G75*
G02*
X0522539Y0772638I0000000J-000394D01*
G01*
X0522539Y0769488D01*
G75*
G02*
X0522146Y0769094I-000394J0000000D01*
G01*
X0517224Y0769094D01*
G75*
G02*
X0516831Y0769488I0000000J0000394D01*
G01*
X0516831Y0772638D01*
G75*
G02*
X0517224Y0773031I0000394J0000000D01*
G01*
G37*
X0519685Y0767303D03*
D10*
X0551969Y0537008D03*
D46*
X0594488Y0839370D03*
D10*
X0348425Y0425197D03*
D11*
X0277559Y0782303D03*
G36*
G01*
X0275098Y0780512D02*
X0280020Y0780512D01*
G75*
G02*
X0280413Y0780118I0000000J-000394D01*
G01*
X0280413Y0776969D01*
G75*
G02*
X0280020Y0776575I-000394J0000000D01*
G01*
X0275098Y0776575D01*
G75*
G02*
X0274705Y0776969I0000000J0000394D01*
G01*
X0274705Y0780118D01*
G75*
G02*
X0275098Y0780512I0000394J0000000D01*
G01*
G37*
G36*
G01*
X0275098Y0773031D02*
X0280020Y0773031D01*
G75*
G02*
X0280413Y0772638I0000000J-000394D01*
G01*
X0280413Y0769488D01*
G75*
G02*
X0280020Y0769094I-000394J0000000D01*
G01*
X0275098Y0769094D01*
G75*
G02*
X0274705Y0769488I0000000J0000394D01*
G01*
X0274705Y0772638D01*
G75*
G02*
X0275098Y0773031I0000394J0000000D01*
G01*
G37*
X0277559Y0767303D03*
D10*
X0535433Y0346457D03*
D11*
X0559055Y0782303D03*
G36*
G01*
X0556594Y0780512D02*
X0561516Y0780512D01*
G75*
G02*
X0561909Y0780118I0000000J-000394D01*
G01*
X0561909Y0776969D01*
G75*
G02*
X0561516Y0776575I-000394J0000000D01*
G01*
X0556594Y0776575D01*
G75*
G02*
X0556201Y0776969I0000000J0000394D01*
G01*
X0556201Y0780118D01*
G75*
G02*
X0556594Y0780512I0000394J0000000D01*
G01*
G37*
G36*
G01*
X0556594Y0773031D02*
X0561516Y0773031D01*
G75*
G02*
X0561909Y0772638I0000000J-000394D01*
G01*
X0561909Y0769488D01*
G75*
G02*
X0561516Y0769094I-000394J0000000D01*
G01*
X0556594Y0769094D01*
G75*
G02*
X0556201Y0769488I0000000J0000394D01*
G01*
X0556201Y0772638D01*
G75*
G02*
X0556594Y0773031I0000394J0000000D01*
G01*
G37*
X0559055Y0767303D03*
D10*
X0137795Y0784646D03*
X0261811Y0755118D03*
G36*
G01*
X0185630Y0753583D02*
X0185630Y0756654D01*
G75*
G02*
X0185906Y0756929I0000276J0000000D01*
G01*
X0188110Y0756929D01*
G75*
G02*
X0188386Y0756654I0000000J-000276D01*
G01*
X0188386Y0753583D01*
G75*
G02*
X0188110Y0753307I-000276J0000000D01*
G01*
X0185906Y0753307D01*
G75*
G02*
X0185630Y0753583I0000000J0000276D01*
G01*
G37*
G36*
G01*
X0191929Y0753583D02*
X0191929Y0756654D01*
G75*
G02*
X0192205Y0756929I0000276J0000000D01*
G01*
X0194409Y0756929D01*
G75*
G02*
X0194685Y0756654I0000000J-000276D01*
G01*
X0194685Y0753583D01*
G75*
G02*
X0194409Y0753307I-000276J0000000D01*
G01*
X0192205Y0753307D01*
G75*
G02*
X0191929Y0753583I0000000J0000276D01*
G01*
G37*
X0329528Y0100079D03*
X0329528Y0110079D03*
X0329528Y0120079D03*
X0329528Y0130079D03*
X0329528Y0140079D03*
X0339528Y0100079D03*
X0339528Y0110079D03*
X0339528Y0120079D03*
X0339528Y0130079D03*
X0339528Y0140079D03*
X0349528Y0100079D03*
X0349528Y0110079D03*
X0349528Y0120079D03*
X0349528Y0130079D03*
X0349528Y0140079D03*
D38*
X0090551Y0188189D03*
D39*
X0090551Y0198189D03*
X0090551Y0208189D03*
X0090551Y0218189D03*
X0090551Y0228189D03*
X0090551Y0238189D03*
D10*
X0214567Y0739370D03*
X0031496Y0639764D03*
X0273622Y0425197D03*
D11*
X0238268Y0782303D03*
G36*
G01*
X0235807Y0780512D02*
X0240728Y0780512D01*
G75*
G02*
X0241122Y0780118I0000000J-000394D01*
G01*
X0241122Y0776969D01*
G75*
G02*
X0240728Y0776575I-000394J0000000D01*
G01*
X0235807Y0776575D01*
G75*
G02*
X0235413Y0776969I0000000J0000394D01*
G01*
X0235413Y0780118D01*
G75*
G02*
X0235807Y0780512I0000394J0000000D01*
G01*
G37*
G36*
G01*
X0235807Y0773031D02*
X0240728Y0773031D01*
G75*
G02*
X0241122Y0772638I0000000J-000394D01*
G01*
X0241122Y0769488D01*
G75*
G02*
X0240728Y0769094I-000394J0000000D01*
G01*
X0235807Y0769094D01*
G75*
G02*
X0235413Y0769488I0000000J0000394D01*
G01*
X0235413Y0772638D01*
G75*
G02*
X0235807Y0773031I0000394J0000000D01*
G01*
G37*
X0238268Y0767303D03*
X0159449Y0782303D03*
G36*
G01*
X0156988Y0780512D02*
X0161909Y0780512D01*
G75*
G02*
X0162303Y0780118I0000000J-000394D01*
G01*
X0162303Y0776969D01*
G75*
G02*
X0161909Y0776575I-000394J0000000D01*
G01*
X0156988Y0776575D01*
G75*
G02*
X0156594Y0776969I0000000J0000394D01*
G01*
X0156594Y0780118D01*
G75*
G02*
X0156988Y0780512I0000394J0000000D01*
G01*
G37*
G36*
G01*
X0156988Y0773031D02*
X0161909Y0773031D01*
G75*
G02*
X0162303Y0772638I0000000J-000394D01*
G01*
X0162303Y0769488D01*
G75*
G02*
X0161909Y0769094I-000394J0000000D01*
G01*
X0156988Y0769094D01*
G75*
G02*
X0156594Y0769488I0000000J0000394D01*
G01*
X0156594Y0772638D01*
G75*
G02*
X0156988Y0773031I0000394J0000000D01*
G01*
G37*
X0159449Y0767303D03*
D10*
X0555118Y0663386D03*
X0110236Y0781496D03*
X0086614Y0781496D03*
X0555118Y0677165D03*
D11*
X0208661Y0782303D03*
G36*
G01*
X0206201Y0780512D02*
X0211122Y0780512D01*
G75*
G02*
X0211516Y0780118I0000000J-000394D01*
G01*
X0211516Y0776969D01*
G75*
G02*
X0211122Y0776575I-000394J0000000D01*
G01*
X0206201Y0776575D01*
G75*
G02*
X0205807Y0776969I0000000J0000394D01*
G01*
X0205807Y0780118D01*
G75*
G02*
X0206201Y0780512I0000394J0000000D01*
G01*
G37*
G36*
G01*
X0206201Y0773031D02*
X0211122Y0773031D01*
G75*
G02*
X0211516Y0772638I0000000J-000394D01*
G01*
X0211516Y0769488D01*
G75*
G02*
X0211122Y0769094I-000394J0000000D01*
G01*
X0206201Y0769094D01*
G75*
G02*
X0205807Y0769488I0000000J0000394D01*
G01*
X0205807Y0772638D01*
G75*
G02*
X0206201Y0773031I0000394J0000000D01*
G01*
G37*
X0208661Y0767303D03*
D10*
X0576772Y0580709D03*
D11*
X0460630Y0782303D03*
G36*
G01*
X0458169Y0780512D02*
X0463091Y0780512D01*
G75*
G02*
X0463484Y0780118I0000000J-000394D01*
G01*
X0463484Y0776969D01*
G75*
G02*
X0463091Y0776575I-000394J0000000D01*
G01*
X0458169Y0776575D01*
G75*
G02*
X0457776Y0776969I0000000J0000394D01*
G01*
X0457776Y0780118D01*
G75*
G02*
X0458169Y0780512I0000394J0000000D01*
G01*
G37*
G36*
G01*
X0458169Y0773031D02*
X0463091Y0773031D01*
G75*
G02*
X0463484Y0772638I0000000J-000394D01*
G01*
X0463484Y0769488D01*
G75*
G02*
X0463091Y0769094I-000394J0000000D01*
G01*
X0458169Y0769094D01*
G75*
G02*
X0457776Y0769488I0000000J0000394D01*
G01*
X0457776Y0772638D01*
G75*
G02*
X0458169Y0773031I0000394J0000000D01*
G01*
G37*
X0460630Y0767303D03*
D12*
X0505906Y0346457D03*
X0521654Y0346457D03*
D10*
X0576772Y0627953D03*
X0312992Y0431102D03*
D40*
X0570866Y0769192D03*
X0570866Y0784941D03*
D10*
X0576772Y0661417D03*
X0031496Y0580709D03*
X0500000Y0743307D03*
X0169291Y0774803D03*
D11*
X0248031Y0782303D03*
G36*
G01*
X0245571Y0780512D02*
X0250492Y0780512D01*
G75*
G02*
X0250886Y0780118I0000000J-000394D01*
G01*
X0250886Y0776969D01*
G75*
G02*
X0250492Y0776575I-000394J0000000D01*
G01*
X0245571Y0776575D01*
G75*
G02*
X0245177Y0776969I0000000J0000394D01*
G01*
X0245177Y0780118D01*
G75*
G02*
X0245571Y0780512I0000394J0000000D01*
G01*
G37*
G36*
G01*
X0245571Y0773031D02*
X0250492Y0773031D01*
G75*
G02*
X0250886Y0772638I0000000J-000394D01*
G01*
X0250886Y0769488D01*
G75*
G02*
X0250492Y0769094I-000394J0000000D01*
G01*
X0245571Y0769094D01*
G75*
G02*
X0245177Y0769488I0000000J0000394D01*
G01*
X0245177Y0772638D01*
G75*
G02*
X0245571Y0773031I0000394J0000000D01*
G01*
G37*
X0248031Y0767303D03*
X0287402Y0782303D03*
G36*
G01*
X0284941Y0780512D02*
X0289862Y0780512D01*
G75*
G02*
X0290256Y0780118I0000000J-000394D01*
G01*
X0290256Y0776969D01*
G75*
G02*
X0289862Y0776575I-000394J0000000D01*
G01*
X0284941Y0776575D01*
G75*
G02*
X0284547Y0776969I0000000J0000394D01*
G01*
X0284547Y0780118D01*
G75*
G02*
X0284941Y0780512I0000394J0000000D01*
G01*
G37*
G36*
G01*
X0284941Y0773031D02*
X0289862Y0773031D01*
G75*
G02*
X0290256Y0772638I0000000J-000394D01*
G01*
X0290256Y0769488D01*
G75*
G02*
X0289862Y0769094I-000394J0000000D01*
G01*
X0284941Y0769094D01*
G75*
G02*
X0284547Y0769488I0000000J0000394D01*
G01*
X0284547Y0772638D01*
G75*
G02*
X0284941Y0773031I0000394J0000000D01*
G01*
G37*
X0287402Y0767303D03*
X0433071Y0782303D03*
G36*
G01*
X0430610Y0780512D02*
X0435531Y0780512D01*
G75*
G02*
X0435925Y0780118I0000000J-000394D01*
G01*
X0435925Y0776969D01*
G75*
G02*
X0435531Y0776575I-000394J0000000D01*
G01*
X0430610Y0776575D01*
G75*
G02*
X0430217Y0776969I0000000J0000394D01*
G01*
X0430217Y0780118D01*
G75*
G02*
X0430610Y0780512I0000394J0000000D01*
G01*
G37*
G36*
G01*
X0430610Y0773031D02*
X0435531Y0773031D01*
G75*
G02*
X0435925Y0772638I0000000J-000394D01*
G01*
X0435925Y0769488D01*
G75*
G02*
X0435531Y0769094I-000394J0000000D01*
G01*
X0430610Y0769094D01*
G75*
G02*
X0430217Y0769488I0000000J0000394D01*
G01*
X0430217Y0772638D01*
G75*
G02*
X0430610Y0773031I0000394J0000000D01*
G01*
G37*
X0433071Y0767303D03*
D10*
X0098425Y0781496D03*
D11*
X0492126Y0782303D03*
G36*
G01*
X0489665Y0780512D02*
X0494587Y0780512D01*
G75*
G02*
X0494980Y0780118I0000000J-000394D01*
G01*
X0494980Y0776969D01*
G75*
G02*
X0494587Y0776575I-000394J0000000D01*
G01*
X0489665Y0776575D01*
G75*
G02*
X0489272Y0776969I0000000J0000394D01*
G01*
X0489272Y0780118D01*
G75*
G02*
X0489665Y0780512I0000394J0000000D01*
G01*
G37*
G36*
G01*
X0489665Y0773031D02*
X0494587Y0773031D01*
G75*
G02*
X0494980Y0772638I0000000J-000394D01*
G01*
X0494980Y0769488D01*
G75*
G02*
X0494587Y0769094I-000394J0000000D01*
G01*
X0489665Y0769094D01*
G75*
G02*
X0489272Y0769488I0000000J0000394D01*
G01*
X0489272Y0772638D01*
G75*
G02*
X0489665Y0773031I0000394J0000000D01*
G01*
G37*
X0492126Y0767303D03*
D10*
X0125984Y0784646D03*
G36*
G01*
X0233661Y0756654D02*
X0233661Y0753583D01*
G75*
G02*
X0233386Y0753307I-000276J0000000D01*
G01*
X0231181Y0753307D01*
G75*
G02*
X0230906Y0753583I0000000J0000276D01*
G01*
X0230906Y0756654D01*
G75*
G02*
X0231181Y0756929I0000276J0000000D01*
G01*
X0233386Y0756929D01*
G75*
G02*
X0233661Y0756654I0000000J-000276D01*
G01*
G37*
G36*
G01*
X0227362Y0756654D02*
X0227362Y0753583D01*
G75*
G02*
X0227087Y0753307I-000276J0000000D01*
G01*
X0224882Y0753307D01*
G75*
G02*
X0224606Y0753583I0000000J0000276D01*
G01*
X0224606Y0756654D01*
G75*
G02*
X0224882Y0756929I0000276J0000000D01*
G01*
X0227087Y0756929D01*
G75*
G02*
X0227362Y0756654I0000000J-000276D01*
G01*
G37*
X0240157Y0725591D03*
D46*
X0305118Y0405512D03*
D10*
X0360236Y0425197D03*
X0269528Y0150079D03*
X0269528Y0160079D03*
X0269528Y0170079D03*
X0269528Y0180079D03*
X0269528Y0190079D03*
X0279528Y0150079D03*
X0279528Y0160079D03*
X0279528Y0170079D03*
X0279528Y0180079D03*
X0279528Y0190079D03*
X0289528Y0150079D03*
X0289528Y0160079D03*
X0289528Y0170079D03*
X0289528Y0180079D03*
X0289528Y0190079D03*
X0576772Y0649606D03*
X0576772Y0549213D03*
X0324803Y0425197D03*
X0285433Y0755118D03*
X0031496Y0616142D03*
X0031496Y0627953D03*
X0460630Y0743307D03*
X0031496Y0604331D03*
X0149606Y0780709D03*
X0190945Y0739370D03*
X0336614Y0425197D03*
X0555118Y0690945D03*
D11*
X0218504Y0782303D03*
G36*
G01*
X0216043Y0780512D02*
X0220965Y0780512D01*
G75*
G02*
X0221358Y0780118I0000000J-000394D01*
G01*
X0221358Y0776969D01*
G75*
G02*
X0220965Y0776575I-000394J0000000D01*
G01*
X0216043Y0776575D01*
G75*
G02*
X0215650Y0776969I0000000J0000394D01*
G01*
X0215650Y0780118D01*
G75*
G02*
X0216043Y0780512I0000394J0000000D01*
G01*
G37*
G36*
G01*
X0216043Y0773031D02*
X0220965Y0773031D01*
G75*
G02*
X0221358Y0772638I0000000J-000394D01*
G01*
X0221358Y0769488D01*
G75*
G02*
X0220965Y0769094I-000394J0000000D01*
G01*
X0216043Y0769094D01*
G75*
G02*
X0215650Y0769488I0000000J0000394D01*
G01*
X0215650Y0772638D01*
G75*
G02*
X0216043Y0773031I0000394J0000000D01*
G01*
G37*
X0218504Y0767303D03*
X0257874Y0782303D03*
G36*
G01*
X0255413Y0780512D02*
X0260335Y0780512D01*
G75*
G02*
X0260728Y0780118I0000000J-000394D01*
G01*
X0260728Y0776969D01*
G75*
G02*
X0260335Y0776575I-000394J0000000D01*
G01*
X0255413Y0776575D01*
G75*
G02*
X0255020Y0776969I0000000J0000394D01*
G01*
X0255020Y0780118D01*
G75*
G02*
X0255413Y0780512I0000394J0000000D01*
G01*
G37*
G36*
G01*
X0255413Y0773031D02*
X0260335Y0773031D01*
G75*
G02*
X0260728Y0772638I0000000J-000394D01*
G01*
X0260728Y0769488D01*
G75*
G02*
X0260335Y0769094I-000394J0000000D01*
G01*
X0255413Y0769094D01*
G75*
G02*
X0255020Y0769488I0000000J0000394D01*
G01*
X0255020Y0772638D01*
G75*
G02*
X0255413Y0773031I0000394J0000000D01*
G01*
G37*
X0257874Y0767303D03*
D12*
X0505906Y0326772D03*
X0521654Y0326772D03*
D11*
X0220571Y0292146D03*
G36*
G01*
X0218110Y0290354D02*
X0223031Y0290354D01*
G75*
G02*
X0223425Y0289961I0000000J-000394D01*
G01*
X0223425Y0286811D01*
G75*
G02*
X0223031Y0286417I-000394J0000000D01*
G01*
X0218110Y0286417D01*
G75*
G02*
X0217717Y0286811I0000000J0000394D01*
G01*
X0217717Y0289961D01*
G75*
G02*
X0218110Y0290354I0000394J0000000D01*
G01*
G37*
G36*
G01*
X0218110Y0282874D02*
X0223031Y0282874D01*
G75*
G02*
X0223425Y0282480I0000000J-000394D01*
G01*
X0223425Y0279331D01*
G75*
G02*
X0223031Y0278937I-000394J0000000D01*
G01*
X0218110Y0278937D01*
G75*
G02*
X0217717Y0279331I0000000J0000394D01*
G01*
X0217717Y0282480D01*
G75*
G02*
X0218110Y0282874I0000394J0000000D01*
G01*
G37*
X0220571Y0277146D03*
X0217126Y0375197D02*
%LPD*%
G01*
G36*
G01*
X0224272Y0313307D02*
X0225728Y0313307D01*
G75*
G02*
X0226260Y0312776I0000000J-000531D01*
G01*
X0226260Y0311713D01*
G75*
G02*
X0225728Y0311181I-000531J0000000D01*
G01*
X0224272Y0311181D01*
G75*
G02*
X0223740Y0311713I0000000J0000531D01*
G01*
X0223740Y0312776D01*
G75*
G02*
X0224272Y0313307I0000531J0000000D01*
G01*
G37*
G36*
G01*
X0224272Y0309291D02*
X0225728Y0309291D01*
G75*
G02*
X0226260Y0308760I0000000J-000531D01*
G01*
X0226260Y0307697D01*
G75*
G02*
X0225728Y0307166I-000531J0000000D01*
G01*
X0224272Y0307166D01*
G75*
G02*
X0223740Y0307697I0000000J0000531D01*
G01*
X0223740Y0308760D01*
G75*
G02*
X0224272Y0309291I0000531J0000000D01*
G01*
G37*
G36*
G01*
X0271654Y0331457D02*
X0270472Y0331457D01*
G75*
G02*
X0269882Y0332047I0000000J0000591D01*
G01*
X0269882Y0336083D01*
G75*
G02*
X0270472Y0336673I0000591J0000000D01*
G01*
X0271654Y0336673D01*
G75*
G02*
X0272244Y0336083I0000000J-000591D01*
G01*
X0272244Y0332047D01*
G75*
G02*
X0271654Y0331457I-000591J0000000D01*
G01*
G37*
G36*
G01*
X0275394Y0331457D02*
X0274213Y0331457D01*
G75*
G02*
X0273622Y0332047I0000000J0000591D01*
G01*
X0273622Y0336083D01*
G75*
G02*
X0274213Y0336673I0000591J0000000D01*
G01*
X0275394Y0336673D01*
G75*
G02*
X0275984Y0336083I0000000J-000591D01*
G01*
X0275984Y0332047D01*
G75*
G02*
X0275394Y0331457I-000591J0000000D01*
G01*
G37*
G36*
G01*
X0279134Y0331457D02*
X0277953Y0331457D01*
G75*
G02*
X0277362Y0332047I0000000J0000591D01*
G01*
X0277362Y0336083D01*
G75*
G02*
X0277953Y0336673I0000591J0000000D01*
G01*
X0279134Y0336673D01*
G75*
G02*
X0279724Y0336083I0000000J-000591D01*
G01*
X0279724Y0332047D01*
G75*
G02*
X0279134Y0331457I-000591J0000000D01*
G01*
G37*
G36*
G01*
X0279134Y0340414D02*
X0277953Y0340414D01*
G75*
G02*
X0277362Y0341004I0000000J0000591D01*
G01*
X0277362Y0345040D01*
G75*
G02*
X0277953Y0345630I0000591J0000000D01*
G01*
X0279134Y0345630D01*
G75*
G02*
X0279724Y0345040I0000000J-000591D01*
G01*
X0279724Y0341004D01*
G75*
G02*
X0279134Y0340414I-000591J0000000D01*
G01*
G37*
G36*
G01*
X0271654Y0340414D02*
X0270472Y0340414D01*
G75*
G02*
X0269882Y0341004I0000000J0000591D01*
G01*
X0269882Y0345040D01*
G75*
G02*
X0270472Y0345630I0000591J0000000D01*
G01*
X0271654Y0345630D01*
G75*
G02*
X0272244Y0345040I0000000J-000591D01*
G01*
X0272244Y0341004D01*
G75*
G02*
X0271654Y0340414I-000591J0000000D01*
G01*
G37*
G36*
G01*
X0264646Y0323110D02*
X0263307Y0323110D01*
G75*
G02*
X0262756Y0323662I0000000J0000551D01*
G01*
X0262756Y0324764D01*
G75*
G02*
X0263307Y0325315I0000551J0000000D01*
G01*
X0264646Y0325315D01*
G75*
G02*
X0265197Y0324764I0000000J-000551D01*
G01*
X0265197Y0323662D01*
G75*
G02*
X0264646Y0323110I-000551J0000000D01*
G01*
G37*
G36*
G01*
X0264646Y0326890D02*
X0263307Y0326890D01*
G75*
G02*
X0262756Y0327441I0000000J0000551D01*
G01*
X0262756Y0328543D01*
G75*
G02*
X0263307Y0329095I0000551J0000000D01*
G01*
X0264646Y0329095D01*
G75*
G02*
X0265197Y0328543I0000000J-000551D01*
G01*
X0265197Y0327441D01*
G75*
G02*
X0264646Y0326890I-000551J0000000D01*
G01*
G37*
G36*
G01*
X0251988Y0372421D02*
X0253169Y0372421D01*
G75*
G02*
X0253760Y0371831I0000000J-000591D01*
G01*
X0253760Y0365335D01*
G75*
G02*
X0253169Y0364744I-000591J0000000D01*
G01*
X0251988Y0364744D01*
G75*
G02*
X0251398Y0365335I0000000J0000591D01*
G01*
X0251398Y0371831D01*
G75*
G02*
X0251988Y0372421I0000591J0000000D01*
G01*
G37*
G36*
G01*
X0246988Y0372421D02*
X0248169Y0372421D01*
G75*
G02*
X0248760Y0371831I0000000J-000591D01*
G01*
X0248760Y0365335D01*
G75*
G02*
X0248169Y0364744I-000591J0000000D01*
G01*
X0246988Y0364744D01*
G75*
G02*
X0246398Y0365335I0000000J0000591D01*
G01*
X0246398Y0371831D01*
G75*
G02*
X0246988Y0372421I0000591J0000000D01*
G01*
G37*
G36*
G01*
X0241988Y0372421D02*
X0243169Y0372421D01*
G75*
G02*
X0243760Y0371831I0000000J-000591D01*
G01*
X0243760Y0365335D01*
G75*
G02*
X0243169Y0364744I-000591J0000000D01*
G01*
X0241988Y0364744D01*
G75*
G02*
X0241398Y0365335I0000000J0000591D01*
G01*
X0241398Y0371831D01*
G75*
G02*
X0241988Y0372421I0000591J0000000D01*
G01*
G37*
G36*
G01*
X0236988Y0372421D02*
X0238169Y0372421D01*
G75*
G02*
X0238760Y0371831I0000000J-000591D01*
G01*
X0238760Y0365335D01*
G75*
G02*
X0238169Y0364744I-000591J0000000D01*
G01*
X0236988Y0364744D01*
G75*
G02*
X0236398Y0365335I0000000J0000591D01*
G01*
X0236398Y0371831D01*
G75*
G02*
X0236988Y0372421I0000591J0000000D01*
G01*
G37*
G36*
G01*
X0236988Y0352933D02*
X0238169Y0352933D01*
G75*
G02*
X0238760Y0352343I0000000J-000591D01*
G01*
X0238760Y0345847D01*
G75*
G02*
X0238169Y0345256I-000591J0000000D01*
G01*
X0236988Y0345256D01*
G75*
G02*
X0236398Y0345847I0000000J0000591D01*
G01*
X0236398Y0352343D01*
G75*
G02*
X0236988Y0352933I0000591J0000000D01*
G01*
G37*
G36*
G01*
X0241988Y0352933D02*
X0243169Y0352933D01*
G75*
G02*
X0243760Y0352343I0000000J-000591D01*
G01*
X0243760Y0345847D01*
G75*
G02*
X0243169Y0345256I-000591J0000000D01*
G01*
X0241988Y0345256D01*
G75*
G02*
X0241398Y0345847I0000000J0000591D01*
G01*
X0241398Y0352343D01*
G75*
G02*
X0241988Y0352933I0000591J0000000D01*
G01*
G37*
G36*
G01*
X0246988Y0352933D02*
X0248169Y0352933D01*
G75*
G02*
X0248760Y0352343I0000000J-000591D01*
G01*
X0248760Y0345847D01*
G75*
G02*
X0248169Y0345256I-000591J0000000D01*
G01*
X0246988Y0345256D01*
G75*
G02*
X0246398Y0345847I0000000J0000591D01*
G01*
X0246398Y0352343D01*
G75*
G02*
X0246988Y0352933I0000591J0000000D01*
G01*
G37*
G36*
G01*
X0251988Y0352933D02*
X0253169Y0352933D01*
G75*
G02*
X0253760Y0352343I0000000J-000591D01*
G01*
X0253760Y0345847D01*
G75*
G02*
X0253169Y0345256I-000591J0000000D01*
G01*
X0251988Y0345256D01*
G75*
G02*
X0251398Y0345847I0000000J0000591D01*
G01*
X0251398Y0352343D01*
G75*
G02*
X0251988Y0352933I0000591J0000000D01*
G01*
G37*
G36*
G01*
X0268465Y0365079D02*
X0268465Y0366417D01*
G75*
G02*
X0269016Y0366969I0000551J0000000D01*
G01*
X0270118Y0366969D01*
G75*
G02*
X0270669Y0366417I0000000J-000551D01*
G01*
X0270669Y0365079D01*
G75*
G02*
X0270118Y0364528I-000551J0000000D01*
G01*
X0269016Y0364528D01*
G75*
G02*
X0268465Y0365079I0000000J0000551D01*
G01*
G37*
G36*
G01*
X0272244Y0365079D02*
X0272244Y0366417D01*
G75*
G02*
X0272795Y0366969I0000551J0000000D01*
G01*
X0273898Y0366969D01*
G75*
G02*
X0274449Y0366417I0000000J-000551D01*
G01*
X0274449Y0365079D01*
G75*
G02*
X0273898Y0364528I-000551J0000000D01*
G01*
X0272795Y0364528D01*
G75*
G02*
X0272244Y0365079I0000000J0000551D01*
G01*
G37*
D71*
X0264705Y0362284D03*
X0262146Y0362284D03*
X0259587Y0362284D03*
X0259587Y0354803D03*
X0262146Y0354803D03*
X0264705Y0354803D03*
G36*
G01*
X0257106Y0345276D02*
X0257106Y0346614D01*
G75*
G02*
X0257657Y0347166I0000551J0000000D01*
G01*
X0258760Y0347166D01*
G75*
G02*
X0259311Y0346614I0000000J-000551D01*
G01*
X0259311Y0345276D01*
G75*
G02*
X0258760Y0344725I-000551J0000000D01*
G01*
X0257657Y0344725D01*
G75*
G02*
X0257106Y0345276I0000000J0000551D01*
G01*
G37*
G36*
G01*
X0260886Y0345276D02*
X0260886Y0346614D01*
G75*
G02*
X0261437Y0347166I0000551J0000000D01*
G01*
X0262539Y0347166D01*
G75*
G02*
X0263091Y0346614I0000000J-000551D01*
G01*
X0263091Y0345276D01*
G75*
G02*
X0262539Y0344725I-000551J0000000D01*
G01*
X0261437Y0344725D01*
G75*
G02*
X0260886Y0345276I0000000J0000551D01*
G01*
G37*
D13*
X0220571Y0304725D03*
X0250098Y0304725D03*
X0253248Y0304725D03*
X0256398Y0304725D03*
X0228051Y0373721D03*
X0224114Y0373721D03*
G36*
G01*
X0263248Y0321378D02*
X0264705Y0321378D01*
G75*
G02*
X0265236Y0320847I0000000J-000531D01*
G01*
X0265236Y0319784D01*
G75*
G02*
X0264705Y0319252I-000531J0000000D01*
G01*
X0263248Y0319252D01*
G75*
G02*
X0262717Y0319784I0000000J0000531D01*
G01*
X0262717Y0320847D01*
G75*
G02*
X0263248Y0321378I0000531J0000000D01*
G01*
G37*
G36*
G01*
X0263248Y0317362D02*
X0264705Y0317362D01*
G75*
G02*
X0265236Y0316831I0000000J-000531D01*
G01*
X0265236Y0315768D01*
G75*
G02*
X0264705Y0315236I-000531J0000000D01*
G01*
X0263248Y0315236D01*
G75*
G02*
X0262717Y0315768I0000000J0000531D01*
G01*
X0262717Y0316831D01*
G75*
G02*
X0263248Y0317362I0000531J0000000D01*
G01*
G37*
G36*
G01*
X0254134Y0342284D02*
X0254134Y0340945D01*
G75*
G02*
X0253583Y0340394I-000551J0000000D01*
G01*
X0252480Y0340394D01*
G75*
G02*
X0251929Y0340945I0000000J0000551D01*
G01*
X0251929Y0342284D01*
G75*
G02*
X0252480Y0342835I0000551J0000000D01*
G01*
X0253583Y0342835D01*
G75*
G02*
X0254134Y0342284I0000000J-000551D01*
G01*
G37*
G36*
G01*
X0250354Y0342284D02*
X0250354Y0340945D01*
G75*
G02*
X0249803Y0340394I-000551J0000000D01*
G01*
X0248701Y0340394D01*
G75*
G02*
X0248150Y0340945I0000000J0000551D01*
G01*
X0248150Y0342284D01*
G75*
G02*
X0248701Y0342835I0000551J0000000D01*
G01*
X0249803Y0342835D01*
G75*
G02*
X0250354Y0342284I0000000J-000551D01*
G01*
G37*
G36*
G01*
X0257106Y0349213D02*
X0257106Y0350551D01*
G75*
G02*
X0257657Y0351103I0000551J0000000D01*
G01*
X0258760Y0351103D01*
G75*
G02*
X0259311Y0350551I0000000J-000551D01*
G01*
X0259311Y0349213D01*
G75*
G02*
X0258760Y0348662I-000551J0000000D01*
G01*
X0257657Y0348662D01*
G75*
G02*
X0257106Y0349213I0000000J0000551D01*
G01*
G37*
G36*
G01*
X0260886Y0349213D02*
X0260886Y0350551D01*
G75*
G02*
X0261437Y0351103I0000551J0000000D01*
G01*
X0262539Y0351103D01*
G75*
G02*
X0263091Y0350551I0000000J-000551D01*
G01*
X0263091Y0349213D01*
G75*
G02*
X0262539Y0348662I-000551J0000000D01*
G01*
X0261437Y0348662D01*
G75*
G02*
X0260886Y0349213I0000000J0000551D01*
G01*
G37*
G36*
G01*
X0272520Y0315236D02*
X0271181Y0315236D01*
G75*
G02*
X0270630Y0315788I0000000J0000551D01*
G01*
X0270630Y0316890D01*
G75*
G02*
X0271181Y0317441I0000551J0000000D01*
G01*
X0272520Y0317441D01*
G75*
G02*
X0273071Y0316890I0000000J-000551D01*
G01*
X0273071Y0315788D01*
G75*
G02*
X0272520Y0315236I-000551J0000000D01*
G01*
G37*
G36*
G01*
X0272520Y0319016D02*
X0271181Y0319016D01*
G75*
G02*
X0270630Y0319567I0000000J0000551D01*
G01*
X0270630Y0320669D01*
G75*
G02*
X0271181Y0321221I0000551J0000000D01*
G01*
X0272520Y0321221D01*
G75*
G02*
X0273071Y0320669I0000000J-000551D01*
G01*
X0273071Y0319567D01*
G75*
G02*
X0272520Y0319016I-000551J0000000D01*
G01*
G37*
G36*
G01*
X0262913Y0311673D02*
X0262913Y0313130D01*
G75*
G02*
X0263445Y0313662I0000531J0000000D01*
G01*
X0264508Y0313662D01*
G75*
G02*
X0265039Y0313130I0000000J-000531D01*
G01*
X0265039Y0311673D01*
G75*
G02*
X0264508Y0311142I-000531J0000000D01*
G01*
X0263445Y0311142D01*
G75*
G02*
X0262913Y0311673I0000000J0000531D01*
G01*
G37*
G36*
G01*
X0266929Y0311673D02*
X0266929Y0313130D01*
G75*
G02*
X0267461Y0313662I0000531J0000000D01*
G01*
X0268524Y0313662D01*
G75*
G02*
X0269055Y0313130I0000000J-000531D01*
G01*
X0269055Y0311673D01*
G75*
G02*
X0268524Y0311142I-000531J0000000D01*
G01*
X0267461Y0311142D01*
G75*
G02*
X0266929Y0311673I0000000J0000531D01*
G01*
G37*
G36*
G01*
X0233425Y0342205D02*
X0233425Y0340866D01*
G75*
G02*
X0232874Y0340315I-000551J0000000D01*
G01*
X0231772Y0340315D01*
G75*
G02*
X0231220Y0340866I0000000J0000551D01*
G01*
X0231220Y0342205D01*
G75*
G02*
X0231772Y0342756I0000551J0000000D01*
G01*
X0232874Y0342756D01*
G75*
G02*
X0233425Y0342205I0000000J-000551D01*
G01*
G37*
G36*
G01*
X0229646Y0342205D02*
X0229646Y0340866D01*
G75*
G02*
X0229095Y0340315I-000551J0000000D01*
G01*
X0227992Y0340315D01*
G75*
G02*
X0227441Y0340866I0000000J0000551D01*
G01*
X0227441Y0342205D01*
G75*
G02*
X0227992Y0342756I0000551J0000000D01*
G01*
X0229095Y0342756D01*
G75*
G02*
X0229646Y0342205I0000000J-000551D01*
G01*
G37*
G36*
G01*
X0225630Y0342205D02*
X0225630Y0340866D01*
G75*
G02*
X0225079Y0340315I-000551J0000000D01*
G01*
X0223976Y0340315D01*
G75*
G02*
X0223425Y0340866I0000000J0000551D01*
G01*
X0223425Y0342205D01*
G75*
G02*
X0223976Y0342756I0000551J0000000D01*
G01*
X0225079Y0342756D01*
G75*
G02*
X0225630Y0342205I0000000J-000551D01*
G01*
G37*
G36*
G01*
X0221850Y0342205D02*
X0221850Y0340866D01*
G75*
G02*
X0221299Y0340315I-000551J0000000D01*
G01*
X0220197Y0340315D01*
G75*
G02*
X0219646Y0340866I0000000J0000551D01*
G01*
X0219646Y0342205D01*
G75*
G02*
X0220197Y0342756I0000551J0000000D01*
G01*
X0221299Y0342756D01*
G75*
G02*
X0221850Y0342205I0000000J-000551D01*
G01*
G37*
G36*
G01*
X0229685Y0338366D02*
X0229685Y0336910D01*
G75*
G02*
X0229154Y0336378I-000531J0000000D01*
G01*
X0228091Y0336378D01*
G75*
G02*
X0227559Y0336910I0000000J0000531D01*
G01*
X0227559Y0338366D01*
G75*
G02*
X0228091Y0338898I0000531J0000000D01*
G01*
X0229154Y0338898D01*
G75*
G02*
X0229685Y0338366I0000000J-000531D01*
G01*
G37*
G36*
G01*
X0225669Y0338366D02*
X0225669Y0336910D01*
G75*
G02*
X0225138Y0336378I-000531J0000000D01*
G01*
X0224075Y0336378D01*
G75*
G02*
X0223543Y0336910I0000000J0000531D01*
G01*
X0223543Y0338366D01*
G75*
G02*
X0224075Y0338898I0000531J0000000D01*
G01*
X0225138Y0338898D01*
G75*
G02*
X0225669Y0338366I0000000J-000531D01*
G01*
G37*
G36*
G01*
X0227874Y0323347D02*
X0229213Y0323347D01*
G75*
G02*
X0229764Y0322795I0000000J-000551D01*
G01*
X0229764Y0321693D01*
G75*
G02*
X0229213Y0321142I-000551J0000000D01*
G01*
X0227874Y0321142D01*
G75*
G02*
X0227323Y0321693I0000000J0000551D01*
G01*
X0227323Y0322795D01*
G75*
G02*
X0227874Y0323347I0000551J0000000D01*
G01*
G37*
G36*
G01*
X0227874Y0319567D02*
X0229213Y0319567D01*
G75*
G02*
X0229764Y0319016I0000000J-000551D01*
G01*
X0229764Y0317914D01*
G75*
G02*
X0229213Y0317362I-000551J0000000D01*
G01*
X0227874Y0317362D01*
G75*
G02*
X0227323Y0317914I0000000J0000551D01*
G01*
X0227323Y0319016D01*
G75*
G02*
X0227874Y0319567I0000551J0000000D01*
G01*
G37*
G36*
G01*
X0260433Y0312992D02*
X0260433Y0312205D01*
G75*
G02*
X0260039Y0311811I-000394J0000000D01*
G01*
X0255020Y0311811D01*
G75*
G02*
X0254626Y0312205I0000000J0000394D01*
G01*
X0254626Y0312992D01*
G75*
G02*
X0255020Y0313386I0000394J0000000D01*
G01*
X0260039Y0313386D01*
G75*
G02*
X0260433Y0312992I0000000J-000394D01*
G01*
G37*
G36*
G01*
X0260433Y0315551D02*
X0260433Y0314764D01*
G75*
G02*
X0260039Y0314370I-000394J0000000D01*
G01*
X0255020Y0314370D01*
G75*
G02*
X0254626Y0314764I0000000J0000394D01*
G01*
X0254626Y0315551D01*
G75*
G02*
X0255020Y0315945I0000394J0000000D01*
G01*
X0260039Y0315945D01*
G75*
G02*
X0260433Y0315551I0000000J-000394D01*
G01*
G37*
G36*
G01*
X0260433Y0318110D02*
X0260433Y0317323D01*
G75*
G02*
X0260039Y0316929I-000394J0000000D01*
G01*
X0255020Y0316929D01*
G75*
G02*
X0254626Y0317323I0000000J0000394D01*
G01*
X0254626Y0318110D01*
G75*
G02*
X0255020Y0318504I0000394J0000000D01*
G01*
X0260039Y0318504D01*
G75*
G02*
X0260433Y0318110I0000000J-000394D01*
G01*
G37*
G36*
G01*
X0260433Y0320669D02*
X0260433Y0319882D01*
G75*
G02*
X0260039Y0319488I-000394J0000000D01*
G01*
X0255020Y0319488D01*
G75*
G02*
X0254626Y0319882I0000000J0000394D01*
G01*
X0254626Y0320669D01*
G75*
G02*
X0255020Y0321063I0000394J0000000D01*
G01*
X0260039Y0321063D01*
G75*
G02*
X0260433Y0320669I0000000J-000394D01*
G01*
G37*
G36*
G01*
X0260433Y0323228D02*
X0260433Y0322441D01*
G75*
G02*
X0260039Y0322047I-000394J0000000D01*
G01*
X0255020Y0322047D01*
G75*
G02*
X0254626Y0322441I0000000J0000394D01*
G01*
X0254626Y0323228D01*
G75*
G02*
X0255020Y0323622I0000394J0000000D01*
G01*
X0260039Y0323622D01*
G75*
G02*
X0260433Y0323228I0000000J-000394D01*
G01*
G37*
G36*
G01*
X0260433Y0325788D02*
X0260433Y0325000D01*
G75*
G02*
X0260039Y0324606I-000394J0000000D01*
G01*
X0255020Y0324606D01*
G75*
G02*
X0254626Y0325000I0000000J0000394D01*
G01*
X0254626Y0325788D01*
G75*
G02*
X0255020Y0326181I0000394J0000000D01*
G01*
X0260039Y0326181D01*
G75*
G02*
X0260433Y0325788I0000000J-000394D01*
G01*
G37*
G36*
G01*
X0260433Y0328347D02*
X0260433Y0327559D01*
G75*
G02*
X0260039Y0327166I-000394J0000000D01*
G01*
X0255020Y0327166D01*
G75*
G02*
X0254626Y0327559I0000000J0000394D01*
G01*
X0254626Y0328347D01*
G75*
G02*
X0255020Y0328740I0000394J0000000D01*
G01*
X0260039Y0328740D01*
G75*
G02*
X0260433Y0328347I0000000J-000394D01*
G01*
G37*
G36*
G01*
X0237894Y0328347D02*
X0237894Y0327559D01*
G75*
G02*
X0237500Y0327166I-000394J0000000D01*
G01*
X0232480Y0327166D01*
G75*
G02*
X0232087Y0327559I0000000J0000394D01*
G01*
X0232087Y0328347D01*
G75*
G02*
X0232480Y0328740I0000394J0000000D01*
G01*
X0237500Y0328740D01*
G75*
G02*
X0237894Y0328347I0000000J-000394D01*
G01*
G37*
G36*
G01*
X0237894Y0325788D02*
X0237894Y0325000D01*
G75*
G02*
X0237500Y0324606I-000394J0000000D01*
G01*
X0232480Y0324606D01*
G75*
G02*
X0232087Y0325000I0000000J0000394D01*
G01*
X0232087Y0325788D01*
G75*
G02*
X0232480Y0326181I0000394J0000000D01*
G01*
X0237500Y0326181D01*
G75*
G02*
X0237894Y0325788I0000000J-000394D01*
G01*
G37*
G36*
G01*
X0237894Y0323228D02*
X0237894Y0322441D01*
G75*
G02*
X0237500Y0322047I-000394J0000000D01*
G01*
X0232480Y0322047D01*
G75*
G02*
X0232087Y0322441I0000000J0000394D01*
G01*
X0232087Y0323228D01*
G75*
G02*
X0232480Y0323622I0000394J0000000D01*
G01*
X0237500Y0323622D01*
G75*
G02*
X0237894Y0323228I0000000J-000394D01*
G01*
G37*
G36*
G01*
X0237894Y0320669D02*
X0237894Y0319882D01*
G75*
G02*
X0237500Y0319488I-000394J0000000D01*
G01*
X0232480Y0319488D01*
G75*
G02*
X0232087Y0319882I0000000J0000394D01*
G01*
X0232087Y0320669D01*
G75*
G02*
X0232480Y0321063I0000394J0000000D01*
G01*
X0237500Y0321063D01*
G75*
G02*
X0237894Y0320669I0000000J-000394D01*
G01*
G37*
G36*
G01*
X0237894Y0318110D02*
X0237894Y0317323D01*
G75*
G02*
X0237500Y0316929I-000394J0000000D01*
G01*
X0232480Y0316929D01*
G75*
G02*
X0232087Y0317323I0000000J0000394D01*
G01*
X0232087Y0318110D01*
G75*
G02*
X0232480Y0318504I0000394J0000000D01*
G01*
X0237500Y0318504D01*
G75*
G02*
X0237894Y0318110I0000000J-000394D01*
G01*
G37*
G36*
G01*
X0237894Y0315551D02*
X0237894Y0314764D01*
G75*
G02*
X0237500Y0314370I-000394J0000000D01*
G01*
X0232480Y0314370D01*
G75*
G02*
X0232087Y0314764I0000000J0000394D01*
G01*
X0232087Y0315551D01*
G75*
G02*
X0232480Y0315945I0000394J0000000D01*
G01*
X0237500Y0315945D01*
G75*
G02*
X0237894Y0315551I0000000J-000394D01*
G01*
G37*
G36*
G01*
X0237894Y0312992D02*
X0237894Y0312205D01*
G75*
G02*
X0237500Y0311811I-000394J0000000D01*
G01*
X0232480Y0311811D01*
G75*
G02*
X0232087Y0312205I0000000J0000394D01*
G01*
X0232087Y0312992D01*
G75*
G02*
X0232480Y0313386I0000394J0000000D01*
G01*
X0237500Y0313386D01*
G75*
G02*
X0237894Y0312992I0000000J-000394D01*
G01*
G37*
G36*
G01*
X0279552Y0319390D02*
X0277534Y0319390D01*
G75*
G02*
X0276673Y0320251I0000000J0000861D01*
G01*
X0276673Y0321974D01*
G75*
G02*
X0277534Y0322835I0000861J0000000D01*
G01*
X0279552Y0322835D01*
G75*
G02*
X0280413Y0321974I0000000J-000861D01*
G01*
X0280413Y0320251D01*
G75*
G02*
X0279552Y0319390I-000861J0000000D01*
G01*
G37*
G36*
G01*
X0279552Y0325591D02*
X0277534Y0325591D01*
G75*
G02*
X0276673Y0326452I0000000J0000861D01*
G01*
X0276673Y0328174D01*
G75*
G02*
X0277534Y0329036I0000861J0000000D01*
G01*
X0279552Y0329036D01*
G75*
G02*
X0280413Y0328174I0000000J-000861D01*
G01*
X0280413Y0326452D01*
G75*
G02*
X0279552Y0325591I-000861J0000000D01*
G01*
G37*
G36*
G01*
X0228346Y0372490D02*
X0231890Y0372490D01*
G75*
G02*
X0232874Y0371506I0000000J-000984D01*
G01*
X0232874Y0369439D01*
G75*
G02*
X0231890Y0368455I-000984J0000000D01*
G01*
X0228346Y0368455D01*
G75*
G02*
X0227362Y0369439I0000000J0000984D01*
G01*
X0227362Y0371506D01*
G75*
G02*
X0228346Y0372490I0000984J0000000D01*
G01*
G37*
G36*
G01*
X0228346Y0365305D02*
X0231890Y0365305D01*
G75*
G02*
X0232874Y0364321I0000000J-000984D01*
G01*
X0232874Y0362254D01*
G75*
G02*
X0231890Y0361270I-000984J0000000D01*
G01*
X0228346Y0361270D01*
G75*
G02*
X0227362Y0362254I0000000J0000984D01*
G01*
X0227362Y0364321D01*
G75*
G02*
X0228346Y0365305I0000984J0000000D01*
G01*
G37*
G36*
G01*
X0223504Y0329390D02*
X0223504Y0330847D01*
G75*
G02*
X0224035Y0331378I0000531J0000000D01*
G01*
X0225098Y0331378D01*
G75*
G02*
X0225630Y0330847I0000000J-000531D01*
G01*
X0225630Y0329390D01*
G75*
G02*
X0225098Y0328858I-000531J0000000D01*
G01*
X0224035Y0328858D01*
G75*
G02*
X0223504Y0329390I0000000J0000531D01*
G01*
G37*
G36*
G01*
X0227520Y0329390D02*
X0227520Y0330847D01*
G75*
G02*
X0228051Y0331378I0000531J0000000D01*
G01*
X0229114Y0331378D01*
G75*
G02*
X0229646Y0330847I0000000J-000531D01*
G01*
X0229646Y0329390D01*
G75*
G02*
X0229114Y0328858I-000531J0000000D01*
G01*
X0228051Y0328858D01*
G75*
G02*
X0227520Y0329390I0000000J0000531D01*
G01*
G37*
G36*
G01*
X0272579Y0323071D02*
X0271122Y0323071D01*
G75*
G02*
X0270591Y0323603I0000000J0000531D01*
G01*
X0270591Y0324666D01*
G75*
G02*
X0271122Y0325197I0000531J0000000D01*
G01*
X0272579Y0325197D01*
G75*
G02*
X0273110Y0324666I0000000J-000531D01*
G01*
X0273110Y0323603D01*
G75*
G02*
X0272579Y0323071I-000531J0000000D01*
G01*
G37*
G36*
G01*
X0272579Y0327087D02*
X0271122Y0327087D01*
G75*
G02*
X0270591Y0327618I0000000J0000531D01*
G01*
X0270591Y0328681D01*
G75*
G02*
X0271122Y0329213I0000531J0000000D01*
G01*
X0272579Y0329213D01*
G75*
G02*
X0273110Y0328681I0000000J-000531D01*
G01*
X0273110Y0327618D01*
G75*
G02*
X0272579Y0327087I-000531J0000000D01*
G01*
G37*
G36*
G01*
X0258819Y0333996D02*
X0258819Y0332540D01*
G75*
G02*
X0258287Y0332008I-000531J0000000D01*
G01*
X0257224Y0332008D01*
G75*
G02*
X0256693Y0332540I0000000J0000531D01*
G01*
X0256693Y0333996D01*
G75*
G02*
X0257224Y0334528I0000531J0000000D01*
G01*
X0258287Y0334528D01*
G75*
G02*
X0258819Y0333996I0000000J-000531D01*
G01*
G37*
G36*
G01*
X0254803Y0333996D02*
X0254803Y0332540D01*
G75*
G02*
X0254272Y0332008I-000531J0000000D01*
G01*
X0253209Y0332008D01*
G75*
G02*
X0252677Y0332540I0000000J0000531D01*
G01*
X0252677Y0333996D01*
G75*
G02*
X0253209Y0334528I0000531J0000000D01*
G01*
X0254272Y0334528D01*
G75*
G02*
X0254803Y0333996I0000000J-000531D01*
G01*
G37*
G36*
G01*
X0265079Y0343199D02*
X0266417Y0343199D01*
G75*
G02*
X0266969Y0342648I0000000J-000551D01*
G01*
X0266969Y0341545D01*
G75*
G02*
X0266417Y0340994I-000551J0000000D01*
G01*
X0265079Y0340994D01*
G75*
G02*
X0264528Y0341545I0000000J0000551D01*
G01*
X0264528Y0342648D01*
G75*
G02*
X0265079Y0343199I0000551J0000000D01*
G01*
G37*
G36*
G01*
X0265079Y0339419D02*
X0266417Y0339419D01*
G75*
G02*
X0266969Y0338868I0000000J-000551D01*
G01*
X0266969Y0337766D01*
G75*
G02*
X0266417Y0337215I-000551J0000000D01*
G01*
X0265079Y0337215D01*
G75*
G02*
X0264528Y0337766I0000000J0000551D01*
G01*
X0264528Y0338868D01*
G75*
G02*
X0265079Y0339419I0000551J0000000D01*
G01*
G37*
G36*
G01*
X0241890Y0307225D02*
X0241890Y0305768D01*
G75*
G02*
X0241358Y0305236I-000531J0000000D01*
G01*
X0240295Y0305236D01*
G75*
G02*
X0239764Y0305768I0000000J0000531D01*
G01*
X0239764Y0307225D01*
G75*
G02*
X0240295Y0307756I0000531J0000000D01*
G01*
X0241358Y0307756D01*
G75*
G02*
X0241890Y0307225I0000000J-000531D01*
G01*
G37*
G36*
G01*
X0237874Y0307225D02*
X0237874Y0305768D01*
G75*
G02*
X0237343Y0305236I-000531J0000000D01*
G01*
X0236280Y0305236D01*
G75*
G02*
X0235748Y0305768I0000000J0000531D01*
G01*
X0235748Y0307225D01*
G75*
G02*
X0236280Y0307756I0000531J0000000D01*
G01*
X0237343Y0307756D01*
G75*
G02*
X0237874Y0307225I0000000J-000531D01*
G01*
G37*
G36*
G01*
X0221398Y0306240D02*
X0219941Y0306240D01*
G75*
G02*
X0219409Y0306772I0000000J0000531D01*
G01*
X0219409Y0307835D01*
G75*
G02*
X0219941Y0308366I0000531J0000000D01*
G01*
X0221398Y0308366D01*
G75*
G02*
X0221929Y0307835I0000000J-000531D01*
G01*
X0221929Y0306772D01*
G75*
G02*
X0221398Y0306240I-000531J0000000D01*
G01*
G37*
G36*
G01*
X0221398Y0310256D02*
X0219941Y0310256D01*
G75*
G02*
X0219409Y0310788I0000000J0000531D01*
G01*
X0219409Y0311851D01*
G75*
G02*
X0219941Y0312382I0000531J0000000D01*
G01*
X0221398Y0312382D01*
G75*
G02*
X0221929Y0311851I0000000J-000531D01*
G01*
X0221929Y0310788D01*
G75*
G02*
X0221398Y0310256I-000531J0000000D01*
G01*
G37*
G36*
G01*
X0263110Y0342402D02*
X0263110Y0340945D01*
G75*
G02*
X0262579Y0340414I-000531J0000000D01*
G01*
X0261516Y0340414D01*
G75*
G02*
X0260984Y0340945I0000000J0000531D01*
G01*
X0260984Y0342402D01*
G75*
G02*
X0261516Y0342933I0000531J0000000D01*
G01*
X0262579Y0342933D01*
G75*
G02*
X0263110Y0342402I0000000J-000531D01*
G01*
G37*
G36*
G01*
X0259095Y0342402D02*
X0259095Y0340945D01*
G75*
G02*
X0258563Y0340414I-000531J0000000D01*
G01*
X0257500Y0340414D01*
G75*
G02*
X0256969Y0340945I0000000J0000531D01*
G01*
X0256969Y0342402D01*
G75*
G02*
X0257500Y0342933I0000531J0000000D01*
G01*
X0258563Y0342933D01*
G75*
G02*
X0259095Y0342402I0000000J-000531D01*
G01*
G37*
G36*
G01*
X0266516Y0344843D02*
X0265177Y0344843D01*
G75*
G02*
X0264626Y0345394I0000000J0000551D01*
G01*
X0264626Y0346496D01*
G75*
G02*
X0265177Y0347047I0000551J0000000D01*
G01*
X0266516Y0347047D01*
G75*
G02*
X0267067Y0346496I0000000J-000551D01*
G01*
X0267067Y0345394D01*
G75*
G02*
X0266516Y0344843I-000551J0000000D01*
G01*
G37*
G36*
G01*
X0266516Y0348622D02*
X0265177Y0348622D01*
G75*
G02*
X0264626Y0349173I0000000J0000551D01*
G01*
X0264626Y0350276D01*
G75*
G02*
X0265177Y0350827I0000551J0000000D01*
G01*
X0266516Y0350827D01*
G75*
G02*
X0267067Y0350276I0000000J-000551D01*
G01*
X0267067Y0349173D01*
G75*
G02*
X0266516Y0348622I-000551J0000000D01*
G01*
G37*
G36*
G01*
X0224016Y0361270D02*
X0220472Y0361270D01*
G75*
G02*
X0219488Y0362254I0000000J0000984D01*
G01*
X0219488Y0364321D01*
G75*
G02*
X0220472Y0365305I0000984J0000000D01*
G01*
X0224016Y0365305D01*
G75*
G02*
X0225000Y0364321I0000000J-000984D01*
G01*
X0225000Y0362254D01*
G75*
G02*
X0224016Y0361270I-000984J0000000D01*
G01*
G37*
G36*
G01*
X0224016Y0368455D02*
X0220472Y0368455D01*
G75*
G02*
X0219488Y0369439I0000000J0000984D01*
G01*
X0219488Y0371506D01*
G75*
G02*
X0220472Y0372490I0000984J0000000D01*
G01*
X0224016Y0372490D01*
G75*
G02*
X0225000Y0371506I0000000J-000984D01*
G01*
X0225000Y0369439D01*
G75*
G02*
X0224016Y0368455I-000984J0000000D01*
G01*
G37*
G36*
G01*
X0270984Y0371791D02*
X0270984Y0370335D01*
G75*
G02*
X0270453Y0369803I-000531J0000000D01*
G01*
X0269390Y0369803D01*
G75*
G02*
X0268858Y0370335I0000000J0000531D01*
G01*
X0268858Y0371791D01*
G75*
G02*
X0269390Y0372323I0000531J0000000D01*
G01*
X0270453Y0372323D01*
G75*
G02*
X0270984Y0371791I0000000J-000531D01*
G01*
G37*
G36*
G01*
X0266969Y0371791D02*
X0266969Y0370335D01*
G75*
G02*
X0266437Y0369803I-000531J0000000D01*
G01*
X0265374Y0369803D01*
G75*
G02*
X0264843Y0370335I0000000J0000531D01*
G01*
X0264843Y0371791D01*
G75*
G02*
X0265374Y0372323I0000531J0000000D01*
G01*
X0266437Y0372323D01*
G75*
G02*
X0266969Y0371791I0000000J-000531D01*
G01*
G37*
G36*
G01*
X0229665Y0309370D02*
X0228209Y0309370D01*
G75*
G02*
X0227677Y0309902I0000000J0000531D01*
G01*
X0227677Y0310965D01*
G75*
G02*
X0228209Y0311496I0000531J0000000D01*
G01*
X0229665Y0311496D01*
G75*
G02*
X0230197Y0310965I0000000J-000531D01*
G01*
X0230197Y0309902D01*
G75*
G02*
X0229665Y0309370I-000531J0000000D01*
G01*
G37*
G36*
G01*
X0229665Y0313386D02*
X0228209Y0313386D01*
G75*
G02*
X0227677Y0313917I0000000J0000531D01*
G01*
X0227677Y0314980D01*
G75*
G02*
X0228209Y0315512I0000531J0000000D01*
G01*
X0229665Y0315512D01*
G75*
G02*
X0230197Y0314980I0000000J-000531D01*
G01*
X0230197Y0313917D01*
G75*
G02*
X0229665Y0313386I-000531J0000000D01*
G01*
G37*
G36*
G01*
X0232992Y0332953D02*
X0231654Y0332953D01*
G75*
G02*
X0231102Y0333504I0000000J0000551D01*
G01*
X0231102Y0334606D01*
G75*
G02*
X0231654Y0335158I0000551J0000000D01*
G01*
X0232992Y0335158D01*
G75*
G02*
X0233543Y0334606I0000000J-000551D01*
G01*
X0233543Y0333504D01*
G75*
G02*
X0232992Y0332953I-000551J0000000D01*
G01*
G37*
G36*
G01*
X0232992Y0336732D02*
X0231654Y0336732D01*
G75*
G02*
X0231102Y0337284I0000000J0000551D01*
G01*
X0231102Y0338386D01*
G75*
G02*
X0231654Y0338937I0000551J0000000D01*
G01*
X0232992Y0338937D01*
G75*
G02*
X0233543Y0338386I0000000J-000551D01*
G01*
X0233543Y0337284D01*
G75*
G02*
X0232992Y0336732I-000551J0000000D01*
G01*
G37*
G36*
G01*
X0219941Y0338898D02*
X0221398Y0338898D01*
G75*
G02*
X0221929Y0338366I0000000J-000531D01*
G01*
X0221929Y0337303D01*
G75*
G02*
X0221398Y0336772I-000531J0000000D01*
G01*
X0219941Y0336772D01*
G75*
G02*
X0219409Y0337303I0000000J0000531D01*
G01*
X0219409Y0338366D01*
G75*
G02*
X0219941Y0338898I0000531J0000000D01*
G01*
G37*
G36*
G01*
X0219941Y0334882D02*
X0221398Y0334882D01*
G75*
G02*
X0221929Y0334351I0000000J-000531D01*
G01*
X0221929Y0333288D01*
G75*
G02*
X0221398Y0332756I-000531J0000000D01*
G01*
X0219941Y0332756D01*
G75*
G02*
X0219409Y0333288I0000000J0000531D01*
G01*
X0219409Y0334351D01*
G75*
G02*
X0219941Y0334882I0000531J0000000D01*
G01*
G37*
D64*
X0237047Y0340433D03*
X0237047Y0337874D03*
X0237047Y0335315D03*
X0244528Y0335315D03*
X0244528Y0337874D03*
X0244528Y0340433D03*
G36*
G01*
X0223878Y0323307D02*
X0225335Y0323307D01*
G75*
G02*
X0225866Y0322776I0000000J-000531D01*
G01*
X0225866Y0321713D01*
G75*
G02*
X0225335Y0321181I-000531J0000000D01*
G01*
X0223878Y0321181D01*
G75*
G02*
X0223346Y0321713I0000000J0000531D01*
G01*
X0223346Y0322776D01*
G75*
G02*
X0223878Y0323307I0000531J0000000D01*
G01*
G37*
G36*
G01*
X0223878Y0319291D02*
X0225335Y0319291D01*
G75*
G02*
X0225866Y0318760I0000000J-000531D01*
G01*
X0225866Y0317697D01*
G75*
G02*
X0225335Y0317166I-000531J0000000D01*
G01*
X0223878Y0317166D01*
G75*
G02*
X0223346Y0317697I0000000J0000531D01*
G01*
X0223346Y0318760D01*
G75*
G02*
X0223878Y0319291I0000531J0000000D01*
G01*
G37*
G36*
G01*
X0229606Y0326910D02*
X0229606Y0325453D01*
G75*
G02*
X0229075Y0324921I-000531J0000000D01*
G01*
X0228012Y0324921D01*
G75*
G02*
X0227480Y0325453I0000000J0000531D01*
G01*
X0227480Y0326910D01*
G75*
G02*
X0228012Y0327441I0000531J0000000D01*
G01*
X0229075Y0327441D01*
G75*
G02*
X0229606Y0326910I0000000J-000531D01*
G01*
G37*
G36*
G01*
X0225591Y0326910D02*
X0225591Y0325453D01*
G75*
G02*
X0225059Y0324921I-000531J0000000D01*
G01*
X0223996Y0324921D01*
G75*
G02*
X0223465Y0325453I0000000J0000531D01*
G01*
X0223465Y0326910D01*
G75*
G02*
X0223996Y0327441I0000531J0000000D01*
G01*
X0225059Y0327441D01*
G75*
G02*
X0225591Y0326910I0000000J-000531D01*
G01*
G37*
G36*
G01*
X0220000Y0319902D02*
X0221339Y0319902D01*
G75*
G02*
X0221890Y0319351I0000000J-000551D01*
G01*
X0221890Y0318248D01*
G75*
G02*
X0221339Y0317697I-000551J0000000D01*
G01*
X0220000Y0317697D01*
G75*
G02*
X0219449Y0318248I0000000J0000551D01*
G01*
X0219449Y0319351D01*
G75*
G02*
X0220000Y0319902I0000551J0000000D01*
G01*
G37*
G36*
G01*
X0220000Y0316122D02*
X0221339Y0316122D01*
G75*
G02*
X0221890Y0315571I0000000J-000551D01*
G01*
X0221890Y0314469D01*
G75*
G02*
X0221339Y0313917I-000551J0000000D01*
G01*
X0220000Y0313917D01*
G75*
G02*
X0219449Y0314469I0000000J0000551D01*
G01*
X0219449Y0315571D01*
G75*
G02*
X0220000Y0316122I0000551J0000000D01*
G01*
G37*
G36*
G01*
X0228740Y0359006D02*
X0229921Y0359006D01*
G75*
G02*
X0230512Y0358416I0000000J-000591D01*
G01*
X0230512Y0354380D01*
G75*
G02*
X0229921Y0353790I-000591J0000000D01*
G01*
X0228740Y0353790D01*
G75*
G02*
X0228150Y0354380I0000000J0000591D01*
G01*
X0228150Y0358416D01*
G75*
G02*
X0228740Y0359006I0000591J0000000D01*
G01*
G37*
G36*
G01*
X0225000Y0359006D02*
X0226181Y0359006D01*
G75*
G02*
X0226772Y0358416I0000000J-000591D01*
G01*
X0226772Y0354380D01*
G75*
G02*
X0226181Y0353790I-000591J0000000D01*
G01*
X0225000Y0353790D01*
G75*
G02*
X0224409Y0354380I0000000J0000591D01*
G01*
X0224409Y0358416D01*
G75*
G02*
X0225000Y0359006I0000591J0000000D01*
G01*
G37*
G36*
G01*
X0221260Y0359006D02*
X0222441Y0359006D01*
G75*
G02*
X0223032Y0358416I0000000J-000591D01*
G01*
X0223032Y0354380D01*
G75*
G02*
X0222441Y0353790I-000591J0000000D01*
G01*
X0221260Y0353790D01*
G75*
G02*
X0220669Y0354380I0000000J0000591D01*
G01*
X0220669Y0358416D01*
G75*
G02*
X0221260Y0359006I0000591J0000000D01*
G01*
G37*
G36*
G01*
X0221260Y0350049D02*
X0222441Y0350049D01*
G75*
G02*
X0223032Y0349459I0000000J-000591D01*
G01*
X0223032Y0345423D01*
G75*
G02*
X0222441Y0344833I-000591J0000000D01*
G01*
X0221260Y0344833D01*
G75*
G02*
X0220669Y0345423I0000000J0000591D01*
G01*
X0220669Y0349459D01*
G75*
G02*
X0221260Y0350049I0000591J0000000D01*
G01*
G37*
G36*
G01*
X0225000Y0350049D02*
X0226181Y0350049D01*
G75*
G02*
X0226772Y0349459I0000000J-000591D01*
G01*
X0226772Y0345423D01*
G75*
G02*
X0226181Y0344833I-000591J0000000D01*
G01*
X0225000Y0344833D01*
G75*
G02*
X0224409Y0345423I0000000J0000591D01*
G01*
X0224409Y0349459D01*
G75*
G02*
X0225000Y0350049I0000591J0000000D01*
G01*
G37*
G36*
G01*
X0228740Y0350049D02*
X0229921Y0350049D01*
G75*
G02*
X0230512Y0349459I0000000J-000591D01*
G01*
X0230512Y0345423D01*
G75*
G02*
X0229921Y0344833I-000591J0000000D01*
G01*
X0228740Y0344833D01*
G75*
G02*
X0228150Y0345423I0000000J0000591D01*
G01*
X0228150Y0349459D01*
G75*
G02*
X0228740Y0350049I0000591J0000000D01*
G01*
G37*
G36*
G01*
X0257106Y0366457D02*
X0257106Y0367795D01*
G75*
G02*
X0257657Y0368347I0000551J0000000D01*
G01*
X0258760Y0368347D01*
G75*
G02*
X0259311Y0367795I0000000J-000551D01*
G01*
X0259311Y0366457D01*
G75*
G02*
X0258760Y0365906I-000551J0000000D01*
G01*
X0257657Y0365906D01*
G75*
G02*
X0257106Y0366457I0000000J0000551D01*
G01*
G37*
G36*
G01*
X0260886Y0366457D02*
X0260886Y0367795D01*
G75*
G02*
X0261437Y0368347I0000551J0000000D01*
G01*
X0262539Y0368347D01*
G75*
G02*
X0263091Y0367795I0000000J-000551D01*
G01*
X0263091Y0366457D01*
G75*
G02*
X0262539Y0365906I-000551J0000000D01*
G01*
X0261437Y0365906D01*
G75*
G02*
X0260886Y0366457I0000000J0000551D01*
G01*
G37*
G36*
G01*
X0227598Y0305827D02*
X0227598Y0307166D01*
G75*
G02*
X0228150Y0307717I0000551J0000000D01*
G01*
X0229252Y0307717D01*
G75*
G02*
X0229803Y0307166I0000000J-000551D01*
G01*
X0229803Y0305827D01*
G75*
G02*
X0229252Y0305276I-000551J0000000D01*
G01*
X0228150Y0305276D01*
G75*
G02*
X0227598Y0305827I0000000J0000551D01*
G01*
G37*
G36*
G01*
X0231378Y0305827D02*
X0231378Y0307166D01*
G75*
G02*
X0231929Y0307717I0000551J0000000D01*
G01*
X0233032Y0307717D01*
G75*
G02*
X0233583Y0307166I0000000J-000551D01*
G01*
X0233583Y0305827D01*
G75*
G02*
X0233032Y0305276I-000551J0000000D01*
G01*
X0231929Y0305276D01*
G75*
G02*
X0231378Y0305827I0000000J0000551D01*
G01*
G37*
G36*
G01*
X0268642Y0315276D02*
X0267185Y0315276D01*
G75*
G02*
X0266654Y0315807I0000000J0000531D01*
G01*
X0266654Y0316870D01*
G75*
G02*
X0267185Y0317402I0000531J0000000D01*
G01*
X0268642Y0317402D01*
G75*
G02*
X0269173Y0316870I0000000J-000531D01*
G01*
X0269173Y0315807D01*
G75*
G02*
X0268642Y0315276I-000531J0000000D01*
G01*
G37*
G36*
G01*
X0268642Y0319291D02*
X0267185Y0319291D01*
G75*
G02*
X0266654Y0319823I0000000J0000531D01*
G01*
X0266654Y0320886D01*
G75*
G02*
X0267185Y0321417I0000531J0000000D01*
G01*
X0268642Y0321417D01*
G75*
G02*
X0269173Y0320886I0000000J-000531D01*
G01*
X0269173Y0319823D01*
G75*
G02*
X0268642Y0319291I-000531J0000000D01*
G01*
G37*
G36*
G01*
X0268583Y0323110D02*
X0267244Y0323110D01*
G75*
G02*
X0266693Y0323662I0000000J0000551D01*
G01*
X0266693Y0324764D01*
G75*
G02*
X0267244Y0325315I0000551J0000000D01*
G01*
X0268583Y0325315D01*
G75*
G02*
X0269134Y0324764I0000000J-000551D01*
G01*
X0269134Y0323662D01*
G75*
G02*
X0268583Y0323110I-000551J0000000D01*
G01*
G37*
G36*
G01*
X0268583Y0326890D02*
X0267244Y0326890D01*
G75*
G02*
X0266693Y0327441I0000000J0000551D01*
G01*
X0266693Y0328543D01*
G75*
G02*
X0267244Y0329095I0000551J0000000D01*
G01*
X0268583Y0329095D01*
G75*
G02*
X0269134Y0328543I0000000J-000551D01*
G01*
X0269134Y0327441D01*
G75*
G02*
X0268583Y0326890I-000551J0000000D01*
G01*
G37*
G36*
G01*
X0219941Y0327480D02*
X0221398Y0327480D01*
G75*
G02*
X0221929Y0326949I0000000J-000531D01*
G01*
X0221929Y0325886D01*
G75*
G02*
X0221398Y0325354I-000531J0000000D01*
G01*
X0219941Y0325354D01*
G75*
G02*
X0219409Y0325886I0000000J0000531D01*
G01*
X0219409Y0326949D01*
G75*
G02*
X0219941Y0327480I0000531J0000000D01*
G01*
G37*
G36*
G01*
X0219941Y0323465D02*
X0221398Y0323465D01*
G75*
G02*
X0221929Y0322933I0000000J-000531D01*
G01*
X0221929Y0321870D01*
G75*
G02*
X0221398Y0321339I-000531J0000000D01*
G01*
X0219941Y0321339D01*
G75*
G02*
X0219409Y0321870I0000000J0000531D01*
G01*
X0219409Y0322933D01*
G75*
G02*
X0219941Y0323465I0000531J0000000D01*
G01*
G37*
G36*
G01*
X0277953Y0362402D02*
X0279134Y0362402D01*
G75*
G02*
X0279724Y0361811I0000000J-000591D01*
G01*
X0279724Y0357776D01*
G75*
G02*
X0279134Y0357185I-000591J0000000D01*
G01*
X0277953Y0357185D01*
G75*
G02*
X0277362Y0357776I0000000J0000591D01*
G01*
X0277362Y0361811D01*
G75*
G02*
X0277953Y0362402I0000591J0000000D01*
G01*
G37*
G36*
G01*
X0274213Y0362402D02*
X0275394Y0362402D01*
G75*
G02*
X0275984Y0361811I0000000J-000591D01*
G01*
X0275984Y0357776D01*
G75*
G02*
X0275394Y0357185I-000591J0000000D01*
G01*
X0274213Y0357185D01*
G75*
G02*
X0273622Y0357776I0000000J0000591D01*
G01*
X0273622Y0361811D01*
G75*
G02*
X0274213Y0362402I0000591J0000000D01*
G01*
G37*
G36*
G01*
X0270472Y0362402D02*
X0271654Y0362402D01*
G75*
G02*
X0272244Y0361811I0000000J-000591D01*
G01*
X0272244Y0357776D01*
G75*
G02*
X0271654Y0357185I-000591J0000000D01*
G01*
X0270472Y0357185D01*
G75*
G02*
X0269882Y0357776I0000000J0000591D01*
G01*
X0269882Y0361811D01*
G75*
G02*
X0270472Y0362402I0000591J0000000D01*
G01*
G37*
G36*
G01*
X0270472Y0353445D02*
X0271654Y0353445D01*
G75*
G02*
X0272244Y0352854I0000000J-000591D01*
G01*
X0272244Y0348819D01*
G75*
G02*
X0271654Y0348228I-000591J0000000D01*
G01*
X0270472Y0348228D01*
G75*
G02*
X0269882Y0348819I0000000J0000591D01*
G01*
X0269882Y0352854D01*
G75*
G02*
X0270472Y0353445I0000591J0000000D01*
G01*
G37*
G36*
G01*
X0277953Y0353445D02*
X0279134Y0353445D01*
G75*
G02*
X0279724Y0352854I0000000J-000591D01*
G01*
X0279724Y0348819D01*
G75*
G02*
X0279134Y0348228I-000591J0000000D01*
G01*
X0277953Y0348228D01*
G75*
G02*
X0277362Y0348819I0000000J0000591D01*
G01*
X0277362Y0352854D01*
G75*
G02*
X0277953Y0353445I0000591J0000000D01*
G01*
G37*
G36*
G01*
X0263091Y0371732D02*
X0263091Y0370394D01*
G75*
G02*
X0262539Y0369843I-000551J0000000D01*
G01*
X0261437Y0369843D01*
G75*
G02*
X0260886Y0370394I0000000J0000551D01*
G01*
X0260886Y0371732D01*
G75*
G02*
X0261437Y0372284I0000551J0000000D01*
G01*
X0262539Y0372284D01*
G75*
G02*
X0263091Y0371732I0000000J-000551D01*
G01*
G37*
G36*
G01*
X0259311Y0371732D02*
X0259311Y0370394D01*
G75*
G02*
X0258760Y0369843I-000551J0000000D01*
G01*
X0257657Y0369843D01*
G75*
G02*
X0257106Y0370394I0000000J0000551D01*
G01*
X0257106Y0371732D01*
G75*
G02*
X0257657Y0372284I0000551J0000000D01*
G01*
X0258760Y0372284D01*
G75*
G02*
X0259311Y0371732I0000000J-000551D01*
G01*
G37*
X0108563Y0241417D02*
%LPD*%
G01*
D74*
X0121161Y0120551D03*
X0121161Y0104803D03*
X0132972Y0112677D03*
D109*
X0149508Y0103700D03*
D110*
X0124705Y0112677D03*
D109*
X0149508Y0121653D03*
G36*
G01*
X0144862Y0172824D02*
X0144862Y0174183D01*
G75*
G02*
X0145443Y0174763I0000581J0000000D01*
G01*
X0146604Y0174763D01*
G75*
G02*
X0147185Y0174183I0000000J-000581D01*
G01*
X0147185Y0172824D01*
G75*
G02*
X0146604Y0172244I-000581J0000000D01*
G01*
X0145443Y0172244D01*
G75*
G02*
X0144862Y0172824I0000000J0000581D01*
G01*
G37*
G36*
G01*
X0148681Y0172824D02*
X0148681Y0174183D01*
G75*
G02*
X0149262Y0174763I0000581J0000000D01*
G01*
X0150423Y0174763D01*
G75*
G02*
X0151004Y0174183I0000000J-000581D01*
G01*
X0151004Y0172824D01*
G75*
G02*
X0150423Y0172244I-000581J0000000D01*
G01*
X0149262Y0172244D01*
G75*
G02*
X0148681Y0172824I0000000J0000581D01*
G01*
G37*
G36*
G01*
X0120205Y0138002D02*
X0118846Y0138002D01*
G75*
G02*
X0118266Y0138582I0000000J0000581D01*
G01*
X0118266Y0139744D01*
G75*
G02*
X0118846Y0140324I0000581J0000000D01*
G01*
X0120205Y0140324D01*
G75*
G02*
X0120785Y0139744I0000000J-000581D01*
G01*
X0120785Y0138582D01*
G75*
G02*
X0120205Y0138002I-000581J0000000D01*
G01*
G37*
G36*
G01*
X0120205Y0141821D02*
X0118846Y0141821D01*
G75*
G02*
X0118266Y0142401I0000000J0000581D01*
G01*
X0118266Y0143563D01*
G75*
G02*
X0118846Y0144143I0000581J0000000D01*
G01*
X0120205Y0144143D01*
G75*
G02*
X0120785Y0143563I0000000J-000581D01*
G01*
X0120785Y0142401D01*
G75*
G02*
X0120205Y0141821I-000581J0000000D01*
G01*
G37*
G36*
G01*
X0145096Y0135393D02*
X0146455Y0135393D01*
G75*
G02*
X0147035Y0134813I0000000J-000581D01*
G01*
X0147035Y0133651D01*
G75*
G02*
X0146455Y0133071I-000581J0000000D01*
G01*
X0145096Y0133071D01*
G75*
G02*
X0144516Y0133651I0000000J0000581D01*
G01*
X0144516Y0134813D01*
G75*
G02*
X0145096Y0135393I0000581J0000000D01*
G01*
G37*
G36*
G01*
X0145096Y0131574D02*
X0146455Y0131574D01*
G75*
G02*
X0147035Y0130994I0000000J-000581D01*
G01*
X0147035Y0129832D01*
G75*
G02*
X0146455Y0129252I-000581J0000000D01*
G01*
X0145096Y0129252D01*
G75*
G02*
X0144516Y0129832I0000000J0000581D01*
G01*
X0144516Y0130994D01*
G75*
G02*
X0145096Y0131574I0000581J0000000D01*
G01*
G37*
G36*
G01*
X0128715Y0235417D02*
X0130073Y0235417D01*
G75*
G02*
X0130654Y0234836I0000000J-000581D01*
G01*
X0130654Y0233675D01*
G75*
G02*
X0130073Y0233094I-000581J0000000D01*
G01*
X0128715Y0233094D01*
G75*
G02*
X0128134Y0233675I0000000J0000581D01*
G01*
X0128134Y0234836D01*
G75*
G02*
X0128715Y0235417I0000581J0000000D01*
G01*
G37*
G36*
G01*
X0128715Y0231598D02*
X0130073Y0231598D01*
G75*
G02*
X0130654Y0231017I0000000J-000581D01*
G01*
X0130654Y0229856D01*
G75*
G02*
X0130073Y0229275I-000581J0000000D01*
G01*
X0128715Y0229275D01*
G75*
G02*
X0128134Y0229856I0000000J0000581D01*
G01*
X0128134Y0231017D01*
G75*
G02*
X0128715Y0231598I0000581J0000000D01*
G01*
G37*
G36*
G01*
X0142717Y0221855D02*
X0142717Y0219837D01*
G75*
G02*
X0141855Y0218976I-000861J0000000D01*
G01*
X0140133Y0218976D01*
G75*
G02*
X0139272Y0219837I0000000J0000861D01*
G01*
X0139272Y0221855D01*
G75*
G02*
X0140133Y0222716I0000861J0000000D01*
G01*
X0141855Y0222716D01*
G75*
G02*
X0142717Y0221855I0000000J-000861D01*
G01*
G37*
G36*
G01*
X0136516Y0221855D02*
X0136516Y0219837D01*
G75*
G02*
X0135655Y0218976I-000861J0000000D01*
G01*
X0133932Y0218976D01*
G75*
G02*
X0133071Y0219837I0000000J0000861D01*
G01*
X0133071Y0221855D01*
G75*
G02*
X0133932Y0222716I0000861J0000000D01*
G01*
X0135655Y0222716D01*
G75*
G02*
X0136516Y0221855I0000000J-000861D01*
G01*
G37*
G36*
G01*
X0145767Y0151145D02*
X0147784Y0151145D01*
G75*
G02*
X0148646Y0150284I0000000J-000861D01*
G01*
X0148646Y0148562D01*
G75*
G02*
X0147784Y0147700I-000861J0000000D01*
G01*
X0145767Y0147700D01*
G75*
G02*
X0144906Y0148562I0000000J0000861D01*
G01*
X0144906Y0150284D01*
G75*
G02*
X0145767Y0151145I0000861J0000000D01*
G01*
G37*
G36*
G01*
X0145767Y0144945D02*
X0147784Y0144945D01*
G75*
G02*
X0148646Y0144083I0000000J-000861D01*
G01*
X0148646Y0142361D01*
G75*
G02*
X0147784Y0141500I-000861J0000000D01*
G01*
X0145767Y0141500D01*
G75*
G02*
X0144906Y0142361I0000000J0000861D01*
G01*
X0144906Y0144083D01*
G75*
G02*
X0145767Y0144945I0000861J0000000D01*
G01*
G37*
G36*
G01*
X0120205Y0145752D02*
X0118846Y0145752D01*
G75*
G02*
X0118266Y0146332I0000000J0000581D01*
G01*
X0118266Y0147494D01*
G75*
G02*
X0118846Y0148074I0000581J0000000D01*
G01*
X0120205Y0148074D01*
G75*
G02*
X0120785Y0147494I0000000J-000581D01*
G01*
X0120785Y0146332D01*
G75*
G02*
X0120205Y0145752I-000581J0000000D01*
G01*
G37*
G36*
G01*
X0120205Y0149571D02*
X0118846Y0149571D01*
G75*
G02*
X0118266Y0150151I0000000J0000581D01*
G01*
X0118266Y0151313D01*
G75*
G02*
X0118846Y0151893I0000581J0000000D01*
G01*
X0120205Y0151893D01*
G75*
G02*
X0120785Y0151313I0000000J-000581D01*
G01*
X0120785Y0150151D01*
G75*
G02*
X0120205Y0149571I-000581J0000000D01*
G01*
G37*
G36*
G01*
X0136705Y0133643D02*
X0136705Y0135002D01*
G75*
G02*
X0137285Y0135582I0000581J0000000D01*
G01*
X0138447Y0135582D01*
G75*
G02*
X0139028Y0135002I0000000J-000581D01*
G01*
X0139028Y0133643D01*
G75*
G02*
X0138447Y0133063I-000581J0000000D01*
G01*
X0137285Y0133063D01*
G75*
G02*
X0136705Y0133643I0000000J0000581D01*
G01*
G37*
G36*
G01*
X0140524Y0133643D02*
X0140524Y0135002D01*
G75*
G02*
X0141104Y0135582I0000581J0000000D01*
G01*
X0142266Y0135582D01*
G75*
G02*
X0142846Y0135002I0000000J-000581D01*
G01*
X0142846Y0133643D01*
G75*
G02*
X0142266Y0133063I-000581J0000000D01*
G01*
X0141104Y0133063D01*
G75*
G02*
X0140524Y0133643I0000000J0000581D01*
G01*
G37*
G36*
G01*
X0158681Y0139931D02*
X0158681Y0138573D01*
G75*
G02*
X0158100Y0137992I-000581J0000000D01*
G01*
X0156939Y0137992D01*
G75*
G02*
X0156358Y0138573I0000000J0000581D01*
G01*
X0156358Y0139931D01*
G75*
G02*
X0156939Y0140511I0000581J0000000D01*
G01*
X0158100Y0140511D01*
G75*
G02*
X0158681Y0139931I0000000J-000581D01*
G01*
G37*
G36*
G01*
X0154862Y0139931D02*
X0154862Y0138573D01*
G75*
G02*
X0154282Y0137992I-000581J0000000D01*
G01*
X0153120Y0137992D01*
G75*
G02*
X0152539Y0138573I0000000J0000581D01*
G01*
X0152539Y0139931D01*
G75*
G02*
X0153120Y0140511I0000581J0000000D01*
G01*
X0154282Y0140511D01*
G75*
G02*
X0154862Y0139931I0000000J-000581D01*
G01*
G37*
G36*
G01*
X0162018Y0144488D02*
X0163376Y0144488D01*
G75*
G02*
X0163957Y0143907I0000000J-000581D01*
G01*
X0163957Y0142746D01*
G75*
G02*
X0163376Y0142165I-000581J0000000D01*
G01*
X0162018Y0142165D01*
G75*
G02*
X0161437Y0142746I0000000J0000581D01*
G01*
X0161437Y0143907D01*
G75*
G02*
X0162018Y0144488I0000581J0000000D01*
G01*
G37*
G36*
G01*
X0162018Y0140669D02*
X0163376Y0140669D01*
G75*
G02*
X0163957Y0140088I0000000J-000581D01*
G01*
X0163957Y0138927D01*
G75*
G02*
X0163376Y0138346I-000581J0000000D01*
G01*
X0162018Y0138346D01*
G75*
G02*
X0161437Y0138927I0000000J0000581D01*
G01*
X0161437Y0140088D01*
G75*
G02*
X0162018Y0140669I0000581J0000000D01*
G01*
G37*
G36*
G01*
X0163199Y0169291D02*
X0164557Y0169291D01*
G75*
G02*
X0165138Y0168710I0000000J-000581D01*
G01*
X0165138Y0167549D01*
G75*
G02*
X0164557Y0166968I-000581J0000000D01*
G01*
X0163199Y0166968D01*
G75*
G02*
X0162618Y0167549I0000000J0000581D01*
G01*
X0162618Y0168710D01*
G75*
G02*
X0163199Y0169291I0000581J0000000D01*
G01*
G37*
G36*
G01*
X0163199Y0165472D02*
X0164557Y0165472D01*
G75*
G02*
X0165138Y0164891I0000000J-000581D01*
G01*
X0165138Y0163730D01*
G75*
G02*
X0164557Y0163149I-000581J0000000D01*
G01*
X0163199Y0163149D01*
G75*
G02*
X0162618Y0163730I0000000J0000581D01*
G01*
X0162618Y0164891D01*
G75*
G02*
X0163199Y0165472I0000581J0000000D01*
G01*
G37*
G36*
G01*
X0120205Y0153502D02*
X0118846Y0153502D01*
G75*
G02*
X0118266Y0154082I0000000J0000581D01*
G01*
X0118266Y0155244D01*
G75*
G02*
X0118846Y0155824I0000581J0000000D01*
G01*
X0120205Y0155824D01*
G75*
G02*
X0120785Y0155244I0000000J-000581D01*
G01*
X0120785Y0154082D01*
G75*
G02*
X0120205Y0153502I-000581J0000000D01*
G01*
G37*
G36*
G01*
X0120205Y0157321D02*
X0118846Y0157321D01*
G75*
G02*
X0118266Y0157901I0000000J0000581D01*
G01*
X0118266Y0159063D01*
G75*
G02*
X0118846Y0159643I0000581J0000000D01*
G01*
X0120205Y0159643D01*
G75*
G02*
X0120785Y0159063I0000000J-000581D01*
G01*
X0120785Y0157901D01*
G75*
G02*
X0120205Y0157321I-000581J0000000D01*
G01*
G37*
G36*
G01*
X0120205Y0161252D02*
X0118846Y0161252D01*
G75*
G02*
X0118266Y0161832I0000000J0000581D01*
G01*
X0118266Y0162994D01*
G75*
G02*
X0118846Y0163574I0000581J0000000D01*
G01*
X0120205Y0163574D01*
G75*
G02*
X0120785Y0162994I0000000J-000581D01*
G01*
X0120785Y0161832D01*
G75*
G02*
X0120205Y0161252I-000581J0000000D01*
G01*
G37*
G36*
G01*
X0120205Y0165071D02*
X0118846Y0165071D01*
G75*
G02*
X0118266Y0165651I0000000J0000581D01*
G01*
X0118266Y0166813D01*
G75*
G02*
X0118846Y0167393I0000581J0000000D01*
G01*
X0120205Y0167393D01*
G75*
G02*
X0120785Y0166813I0000000J-000581D01*
G01*
X0120785Y0165651D01*
G75*
G02*
X0120205Y0165071I-000581J0000000D01*
G01*
G37*
G36*
G01*
X0144705Y0137643D02*
X0144705Y0139002D01*
G75*
G02*
X0145285Y0139582I0000581J0000000D01*
G01*
X0146447Y0139582D01*
G75*
G02*
X0147028Y0139002I0000000J-000581D01*
G01*
X0147028Y0137643D01*
G75*
G02*
X0146447Y0137063I-000581J0000000D01*
G01*
X0145285Y0137063D01*
G75*
G02*
X0144705Y0137643I0000000J0000581D01*
G01*
G37*
G36*
G01*
X0148524Y0137643D02*
X0148524Y0139002D01*
G75*
G02*
X0149104Y0139582I0000581J0000000D01*
G01*
X0150266Y0139582D01*
G75*
G02*
X0150846Y0139002I0000000J-000581D01*
G01*
X0150846Y0137643D01*
G75*
G02*
X0150266Y0137063I-000581J0000000D01*
G01*
X0149104Y0137063D01*
G75*
G02*
X0148524Y0137643I0000000J0000581D01*
G01*
G37*
D80*
X0134754Y0227409D03*
X0142234Y0227409D03*
X0138494Y0235283D03*
D111*
X0140453Y0163937D03*
X0137894Y0163937D03*
X0135335Y0163937D03*
X0132776Y0163937D03*
X0130217Y0163937D03*
X0127657Y0163937D03*
X0125098Y0163937D03*
X0125098Y0140708D03*
X0127657Y0140708D03*
X0130217Y0140708D03*
X0132776Y0140708D03*
X0135335Y0140708D03*
X0137894Y0140708D03*
X0140453Y0140708D03*
G36*
G01*
X0136705Y0129643D02*
X0136705Y0131002D01*
G75*
G02*
X0137285Y0131582I0000581J0000000D01*
G01*
X0138447Y0131582D01*
G75*
G02*
X0139028Y0131002I0000000J-000581D01*
G01*
X0139028Y0129643D01*
G75*
G02*
X0138447Y0129063I-000581J0000000D01*
G01*
X0137285Y0129063D01*
G75*
G02*
X0136705Y0129643I0000000J0000581D01*
G01*
G37*
G36*
G01*
X0140524Y0129643D02*
X0140524Y0131002D01*
G75*
G02*
X0141104Y0131582I0000581J0000000D01*
G01*
X0142266Y0131582D01*
G75*
G02*
X0142846Y0131002I0000000J-000581D01*
G01*
X0142846Y0129643D01*
G75*
G02*
X0142266Y0129063I-000581J0000000D01*
G01*
X0141104Y0129063D01*
G75*
G02*
X0140524Y0129643I0000000J0000581D01*
G01*
G37*
G36*
G01*
X0159459Y0176771D02*
X0160817Y0176771D01*
G75*
G02*
X0161398Y0176191I0000000J-000581D01*
G01*
X0161398Y0175029D01*
G75*
G02*
X0160817Y0174448I-000581J0000000D01*
G01*
X0159459Y0174448D01*
G75*
G02*
X0158878Y0175029I0000000J0000581D01*
G01*
X0158878Y0176191D01*
G75*
G02*
X0159459Y0176771I0000581J0000000D01*
G01*
G37*
G36*
G01*
X0159459Y0172952D02*
X0160817Y0172952D01*
G75*
G02*
X0161398Y0172372I0000000J-000581D01*
G01*
X0161398Y0171210D01*
G75*
G02*
X0160817Y0170630I-000581J0000000D01*
G01*
X0159459Y0170630D01*
G75*
G02*
X0158878Y0171210I0000000J0000581D01*
G01*
X0158878Y0172372D01*
G75*
G02*
X0159459Y0172952I0000581J0000000D01*
G01*
G37*
G36*
G01*
X0164557Y0170630D02*
X0163199Y0170630D01*
G75*
G02*
X0162618Y0171210I0000000J0000581D01*
G01*
X0162618Y0172372D01*
G75*
G02*
X0163199Y0172952I0000581J0000000D01*
G01*
X0164557Y0172952D01*
G75*
G02*
X0165138Y0172372I0000000J-000581D01*
G01*
X0165138Y0171210D01*
G75*
G02*
X0164557Y0170630I-000581J0000000D01*
G01*
G37*
G36*
G01*
X0164557Y0174448D02*
X0163199Y0174448D01*
G75*
G02*
X0162618Y0175029I0000000J0000581D01*
G01*
X0162618Y0176191D01*
G75*
G02*
X0163199Y0176771I0000581J0000000D01*
G01*
X0164557Y0176771D01*
G75*
G02*
X0165138Y0176191I0000000J-000581D01*
G01*
X0165138Y0175029D01*
G75*
G02*
X0164557Y0174448I-000581J0000000D01*
G01*
G37*
G36*
G01*
X0143524Y0174183D02*
X0143524Y0172824D01*
G75*
G02*
X0142943Y0172244I-000581J0000000D01*
G01*
X0141782Y0172244D01*
G75*
G02*
X0141201Y0172824I0000000J0000581D01*
G01*
X0141201Y0174183D01*
G75*
G02*
X0141782Y0174763I0000581J0000000D01*
G01*
X0142943Y0174763D01*
G75*
G02*
X0143524Y0174183I0000000J-000581D01*
G01*
G37*
G36*
G01*
X0139705Y0174183D02*
X0139705Y0172824D01*
G75*
G02*
X0139124Y0172244I-000581J0000000D01*
G01*
X0137963Y0172244D01*
G75*
G02*
X0137382Y0172824I0000000J0000581D01*
G01*
X0137382Y0174183D01*
G75*
G02*
X0137963Y0174763I0000581J0000000D01*
G01*
X0139124Y0174763D01*
G75*
G02*
X0139705Y0174183I0000000J-000581D01*
G01*
G37*
G36*
G01*
X0153720Y0127746D02*
X0153720Y0129104D01*
G75*
G02*
X0154301Y0129685I0000581J0000000D01*
G01*
X0155463Y0129685D01*
G75*
G02*
X0156043Y0129104I0000000J-000581D01*
G01*
X0156043Y0127746D01*
G75*
G02*
X0155463Y0127165I-000581J0000000D01*
G01*
X0154301Y0127165D01*
G75*
G02*
X0153720Y0127746I0000000J0000581D01*
G01*
G37*
G36*
G01*
X0157539Y0127746D02*
X0157539Y0129104D01*
G75*
G02*
X0158120Y0129685I0000581J0000000D01*
G01*
X0159282Y0129685D01*
G75*
G02*
X0159862Y0129104I0000000J-000581D01*
G01*
X0159862Y0127746D01*
G75*
G02*
X0159282Y0127165I-000581J0000000D01*
G01*
X0158120Y0127165D01*
G75*
G02*
X0157539Y0127746I0000000J0000581D01*
G01*
G37*
G36*
G01*
X0163199Y0202303D02*
X0164557Y0202303D01*
G75*
G02*
X0165138Y0201722I0000000J-000581D01*
G01*
X0165138Y0200561D01*
G75*
G02*
X0164557Y0199980I-000581J0000000D01*
G01*
X0163199Y0199980D01*
G75*
G02*
X0162618Y0200561I0000000J0000581D01*
G01*
X0162618Y0201722D01*
G75*
G02*
X0163199Y0202303I0000581J0000000D01*
G01*
G37*
G36*
G01*
X0163199Y0198484D02*
X0164557Y0198484D01*
G75*
G02*
X0165138Y0197903I0000000J-000581D01*
G01*
X0165138Y0196742D01*
G75*
G02*
X0164557Y0196161I-000581J0000000D01*
G01*
X0163199Y0196161D01*
G75*
G02*
X0162618Y0196742I0000000J0000581D01*
G01*
X0162618Y0197903D01*
G75*
G02*
X0163199Y0198484I0000581J0000000D01*
G01*
G37*
G36*
G01*
X0127382Y0178907D02*
X0127382Y0177549D01*
G75*
G02*
X0126801Y0176968I-000581J0000000D01*
G01*
X0125640Y0176968D01*
G75*
G02*
X0125059Y0177549I0000000J0000581D01*
G01*
X0125059Y0178907D01*
G75*
G02*
X0125640Y0179488I0000581J0000000D01*
G01*
X0126801Y0179488D01*
G75*
G02*
X0127382Y0178907I0000000J-000581D01*
G01*
G37*
G36*
G01*
X0123563Y0178907D02*
X0123563Y0177549D01*
G75*
G02*
X0122982Y0176968I-000581J0000000D01*
G01*
X0121821Y0176968D01*
G75*
G02*
X0121240Y0177549I0000000J0000581D01*
G01*
X0121240Y0178907D01*
G75*
G02*
X0121821Y0179488I0000581J0000000D01*
G01*
X0122982Y0179488D01*
G75*
G02*
X0123563Y0178907I0000000J-000581D01*
G01*
G37*
G36*
G01*
X0156476Y0213376D02*
X0156476Y0214734D01*
G75*
G02*
X0157057Y0215315I0000581J0000000D01*
G01*
X0158219Y0215315D01*
G75*
G02*
X0158799Y0214734I0000000J-000581D01*
G01*
X0158799Y0213376D01*
G75*
G02*
X0158219Y0212795I-000581J0000000D01*
G01*
X0157057Y0212795D01*
G75*
G02*
X0156476Y0213376I0000000J0000581D01*
G01*
G37*
G36*
G01*
X0160295Y0213376D02*
X0160295Y0214734D01*
G75*
G02*
X0160876Y0215315I0000581J0000000D01*
G01*
X0162037Y0215315D01*
G75*
G02*
X0162618Y0214734I0000000J-000581D01*
G01*
X0162618Y0213376D01*
G75*
G02*
X0162037Y0212795I-000581J0000000D01*
G01*
X0160876Y0212795D01*
G75*
G02*
X0160295Y0213376I0000000J0000581D01*
G01*
G37*
G36*
G01*
X0115561Y0134901D02*
X0116919Y0134901D01*
G75*
G02*
X0117500Y0134321I0000000J-000581D01*
G01*
X0117500Y0133159D01*
G75*
G02*
X0116919Y0132578I-000581J0000000D01*
G01*
X0115561Y0132578D01*
G75*
G02*
X0114980Y0133159I0000000J0000581D01*
G01*
X0114980Y0134321D01*
G75*
G02*
X0115561Y0134901I0000581J0000000D01*
G01*
G37*
G36*
G01*
X0115561Y0131082D02*
X0116919Y0131082D01*
G75*
G02*
X0117500Y0130502I0000000J-000581D01*
G01*
X0117500Y0129340D01*
G75*
G02*
X0116919Y0128760I-000581J0000000D01*
G01*
X0115561Y0128760D01*
G75*
G02*
X0114980Y0129340I0000000J0000581D01*
G01*
X0114980Y0130502D01*
G75*
G02*
X0115561Y0131082I0000581J0000000D01*
G01*
G37*
G36*
G01*
X0121240Y0173021D02*
X0121240Y0174380D01*
G75*
G02*
X0121821Y0174960I0000581J0000000D01*
G01*
X0122982Y0174960D01*
G75*
G02*
X0123563Y0174380I0000000J-000581D01*
G01*
X0123563Y0173021D01*
G75*
G02*
X0122982Y0172441I-000581J0000000D01*
G01*
X0121821Y0172441D01*
G75*
G02*
X0121240Y0173021I0000000J0000581D01*
G01*
G37*
G36*
G01*
X0125059Y0173021D02*
X0125059Y0174380D01*
G75*
G02*
X0125640Y0174960I0000581J0000000D01*
G01*
X0126801Y0174960D01*
G75*
G02*
X0127382Y0174380I0000000J-000581D01*
G01*
X0127382Y0173021D01*
G75*
G02*
X0126801Y0172441I-000581J0000000D01*
G01*
X0125640Y0172441D01*
G75*
G02*
X0125059Y0173021I0000000J0000581D01*
G01*
G37*
G36*
G01*
X0161821Y0136673D02*
X0163179Y0136673D01*
G75*
G02*
X0163760Y0136092I0000000J-000581D01*
G01*
X0163760Y0134931D01*
G75*
G02*
X0163179Y0134350I-000581J0000000D01*
G01*
X0161821Y0134350D01*
G75*
G02*
X0161240Y0134931I0000000J0000581D01*
G01*
X0161240Y0136092D01*
G75*
G02*
X0161821Y0136673I0000581J0000000D01*
G01*
G37*
G36*
G01*
X0161821Y0132854D02*
X0163179Y0132854D01*
G75*
G02*
X0163760Y0132273I0000000J-000581D01*
G01*
X0163760Y0131112D01*
G75*
G02*
X0163179Y0130531I-000581J0000000D01*
G01*
X0161821Y0130531D01*
G75*
G02*
X0161240Y0131112I0000000J0000581D01*
G01*
X0161240Y0132273D01*
G75*
G02*
X0161821Y0132854I0000581J0000000D01*
G01*
G37*
G36*
G01*
X0128346Y0170502D02*
X0128346Y0169143D01*
G75*
G02*
X0127766Y0168563I-000581J0000000D01*
G01*
X0126604Y0168563D01*
G75*
G02*
X0126024Y0169143I0000000J0000581D01*
G01*
X0126024Y0170502D01*
G75*
G02*
X0126604Y0171082I0000581J0000000D01*
G01*
X0127766Y0171082D01*
G75*
G02*
X0128346Y0170502I0000000J-000581D01*
G01*
G37*
G36*
G01*
X0124528Y0170502D02*
X0124528Y0169143D01*
G75*
G02*
X0123947Y0168563I-000581J0000000D01*
G01*
X0122785Y0168563D01*
G75*
G02*
X0122205Y0169143I0000000J0000581D01*
G01*
X0122205Y0170502D01*
G75*
G02*
X0122785Y0171082I0000581J0000000D01*
G01*
X0123947Y0171082D01*
G75*
G02*
X0124528Y0170502I0000000J-000581D01*
G01*
G37*
G36*
G01*
X0128750Y0224606D02*
X0130108Y0224606D01*
G75*
G02*
X0130689Y0224025I0000000J-000581D01*
G01*
X0130689Y0222864D01*
G75*
G02*
X0130108Y0222283I-000581J0000000D01*
G01*
X0128750Y0222283D01*
G75*
G02*
X0128169Y0222864I0000000J0000581D01*
G01*
X0128169Y0224025D01*
G75*
G02*
X0128750Y0224606I0000581J0000000D01*
G01*
G37*
G36*
G01*
X0128750Y0220787D02*
X0130108Y0220787D01*
G75*
G02*
X0130689Y0220206I0000000J-000581D01*
G01*
X0130689Y0219045D01*
G75*
G02*
X0130108Y0218464I-000581J0000000D01*
G01*
X0128750Y0218464D01*
G75*
G02*
X0128169Y0219045I0000000J0000581D01*
G01*
X0128169Y0220206D01*
G75*
G02*
X0128750Y0220787I0000581J0000000D01*
G01*
G37*
G36*
G01*
X0118784Y0185500D02*
X0116767Y0185500D01*
G75*
G02*
X0115906Y0186361I0000000J0000861D01*
G01*
X0115906Y0188083D01*
G75*
G02*
X0116767Y0188945I0000861J0000000D01*
G01*
X0118784Y0188945D01*
G75*
G02*
X0119646Y0188083I0000000J-000861D01*
G01*
X0119646Y0186361D01*
G75*
G02*
X0118784Y0185500I-000861J0000000D01*
G01*
G37*
G36*
G01*
X0118784Y0191700D02*
X0116767Y0191700D01*
G75*
G02*
X0115906Y0192562I0000000J0000861D01*
G01*
X0115906Y0194284D01*
G75*
G02*
X0116767Y0195145I0000861J0000000D01*
G01*
X0118784Y0195145D01*
G75*
G02*
X0119646Y0194284I0000000J-000861D01*
G01*
X0119646Y0192562D01*
G75*
G02*
X0118784Y0191700I-000861J0000000D01*
G01*
G37*
G36*
G01*
X0118455Y0177252D02*
X0117096Y0177252D01*
G75*
G02*
X0116516Y0177832I0000000J0000581D01*
G01*
X0116516Y0178994D01*
G75*
G02*
X0117096Y0179574I0000581J0000000D01*
G01*
X0118455Y0179574D01*
G75*
G02*
X0119035Y0178994I0000000J-000581D01*
G01*
X0119035Y0177832D01*
G75*
G02*
X0118455Y0177252I-000581J0000000D01*
G01*
G37*
G36*
G01*
X0118455Y0181071D02*
X0117096Y0181071D01*
G75*
G02*
X0116516Y0181651I0000000J0000581D01*
G01*
X0116516Y0182813D01*
G75*
G02*
X0117096Y0183393I0000581J0000000D01*
G01*
X0118455Y0183393D01*
G75*
G02*
X0119035Y0182813I0000000J-000581D01*
G01*
X0119035Y0181651D01*
G75*
G02*
X0118455Y0181071I-000581J0000000D01*
G01*
G37*
G36*
G01*
X0146455Y0164752D02*
X0145096Y0164752D01*
G75*
G02*
X0144516Y0165332I0000000J0000581D01*
G01*
X0144516Y0166494D01*
G75*
G02*
X0145096Y0167074I0000581J0000000D01*
G01*
X0146455Y0167074D01*
G75*
G02*
X0147035Y0166494I0000000J-000581D01*
G01*
X0147035Y0165332D01*
G75*
G02*
X0146455Y0164752I-000581J0000000D01*
G01*
G37*
G36*
G01*
X0146455Y0168571D02*
X0145096Y0168571D01*
G75*
G02*
X0144516Y0169151I0000000J0000581D01*
G01*
X0144516Y0170313D01*
G75*
G02*
X0145096Y0170893I0000581J0000000D01*
G01*
X0146455Y0170893D01*
G75*
G02*
X0147035Y0170313I0000000J-000581D01*
G01*
X0147035Y0169151D01*
G75*
G02*
X0146455Y0168571I-000581J0000000D01*
G01*
G37*
G36*
G01*
X0150846Y0159002D02*
X0150846Y0157643D01*
G75*
G02*
X0150266Y0157063I-000581J0000000D01*
G01*
X0149104Y0157063D01*
G75*
G02*
X0148524Y0157643I0000000J0000581D01*
G01*
X0148524Y0159002D01*
G75*
G02*
X0149104Y0159582I0000581J0000000D01*
G01*
X0150266Y0159582D01*
G75*
G02*
X0150846Y0159002I0000000J-000581D01*
G01*
G37*
G36*
G01*
X0147028Y0159002D02*
X0147028Y0157643D01*
G75*
G02*
X0146447Y0157063I-000581J0000000D01*
G01*
X0145285Y0157063D01*
G75*
G02*
X0144705Y0157643I0000000J0000581D01*
G01*
X0144705Y0159002D01*
G75*
G02*
X0145285Y0159582I0000581J0000000D01*
G01*
X0146447Y0159582D01*
G75*
G02*
X0147028Y0159002I0000000J-000581D01*
G01*
G37*
G36*
G01*
X0150846Y0162765D02*
X0150846Y0161407D01*
G75*
G02*
X0150266Y0160826I-000581J0000000D01*
G01*
X0149104Y0160826D01*
G75*
G02*
X0148524Y0161407I0000000J0000581D01*
G01*
X0148524Y0162765D01*
G75*
G02*
X0149104Y0163346I0000581J0000000D01*
G01*
X0150266Y0163346D01*
G75*
G02*
X0150846Y0162765I0000000J-000581D01*
G01*
G37*
G36*
G01*
X0147028Y0162765D02*
X0147028Y0161407D01*
G75*
G02*
X0146447Y0160826I-000581J0000000D01*
G01*
X0145285Y0160826D01*
G75*
G02*
X0144705Y0161407I0000000J0000581D01*
G01*
X0144705Y0162765D01*
G75*
G02*
X0145285Y0163346I0000581J0000000D01*
G01*
X0146447Y0163346D01*
G75*
G02*
X0147028Y0162765I0000000J-000581D01*
G01*
G37*
G36*
G01*
X0150455Y0164752D02*
X0149096Y0164752D01*
G75*
G02*
X0148516Y0165332I0000000J0000581D01*
G01*
X0148516Y0166494D01*
G75*
G02*
X0149096Y0167074I0000581J0000000D01*
G01*
X0150455Y0167074D01*
G75*
G02*
X0151035Y0166494I0000000J-000581D01*
G01*
X0151035Y0165332D01*
G75*
G02*
X0150455Y0164752I-000581J0000000D01*
G01*
G37*
G36*
G01*
X0150455Y0168571D02*
X0149096Y0168571D01*
G75*
G02*
X0148516Y0169151I0000000J0000581D01*
G01*
X0148516Y0170313D01*
G75*
G02*
X0149096Y0170893I0000581J0000000D01*
G01*
X0150455Y0170893D01*
G75*
G02*
X0151035Y0170313I0000000J-000581D01*
G01*
X0151035Y0169151D01*
G75*
G02*
X0150455Y0168571I-000581J0000000D01*
G01*
G37*
D112*
X0155020Y0148661D03*
X0158760Y0148661D03*
X0162500Y0148661D03*
X0162500Y0158976D03*
X0155020Y0158976D03*
G36*
G01*
X0150846Y0155002D02*
X0150846Y0153643D01*
G75*
G02*
X0150266Y0153063I-000581J0000000D01*
G01*
X0149104Y0153063D01*
G75*
G02*
X0148524Y0153643I0000000J0000581D01*
G01*
X0148524Y0155002D01*
G75*
G02*
X0149104Y0155582I0000581J0000000D01*
G01*
X0150266Y0155582D01*
G75*
G02*
X0150846Y0155002I0000000J-000581D01*
G01*
G37*
G36*
G01*
X0147028Y0155002D02*
X0147028Y0153643D01*
G75*
G02*
X0146447Y0153063I-000581J0000000D01*
G01*
X0145285Y0153063D01*
G75*
G02*
X0144705Y0153643I0000000J0000581D01*
G01*
X0144705Y0155002D01*
G75*
G02*
X0145285Y0155582I0000581J0000000D01*
G01*
X0146447Y0155582D01*
G75*
G02*
X0147028Y0155002I0000000J-000581D01*
G01*
G37*
G36*
G01*
X0157894Y0143868D02*
X0157894Y0142510D01*
G75*
G02*
X0157313Y0141929I-000581J0000000D01*
G01*
X0156152Y0141929D01*
G75*
G02*
X0155571Y0142510I0000000J0000581D01*
G01*
X0155571Y0143868D01*
G75*
G02*
X0156152Y0144448I0000581J0000000D01*
G01*
X0157313Y0144448D01*
G75*
G02*
X0157894Y0143868I0000000J-000581D01*
G01*
G37*
G36*
G01*
X0154075Y0143868D02*
X0154075Y0142510D01*
G75*
G02*
X0153494Y0141929I-000581J0000000D01*
G01*
X0152333Y0141929D01*
G75*
G02*
X0151752Y0142510I0000000J0000581D01*
G01*
X0151752Y0143868D01*
G75*
G02*
X0152333Y0144448I0000581J0000000D01*
G01*
X0153494Y0144448D01*
G75*
G02*
X0154075Y0143868I0000000J-000581D01*
G01*
G37*
G36*
G01*
X0135346Y0130502D02*
X0135346Y0129143D01*
G75*
G02*
X0134766Y0128563I-000581J0000000D01*
G01*
X0133604Y0128563D01*
G75*
G02*
X0133024Y0129143I0000000J0000581D01*
G01*
X0133024Y0130502D01*
G75*
G02*
X0133604Y0131082I0000581J0000000D01*
G01*
X0134766Y0131082D01*
G75*
G02*
X0135346Y0130502I0000000J-000581D01*
G01*
G37*
G36*
G01*
X0131528Y0130502D02*
X0131528Y0129143D01*
G75*
G02*
X0130947Y0128563I-000581J0000000D01*
G01*
X0129785Y0128563D01*
G75*
G02*
X0129205Y0129143I0000000J0000581D01*
G01*
X0129205Y0130502D01*
G75*
G02*
X0129785Y0131082I0000581J0000000D01*
G01*
X0130947Y0131082D01*
G75*
G02*
X0131528Y0130502I0000000J-000581D01*
G01*
G37*
G36*
G01*
X0148953Y0132314D02*
X0148953Y0134331D01*
G75*
G02*
X0149814Y0135193I0000861J0000000D01*
G01*
X0151536Y0135193D01*
G75*
G02*
X0152398Y0134331I0000000J-000861D01*
G01*
X0152398Y0132314D01*
G75*
G02*
X0151536Y0131452I-000861J0000000D01*
G01*
X0149814Y0131452D01*
G75*
G02*
X0148953Y0132314I0000000J0000861D01*
G01*
G37*
G36*
G01*
X0155154Y0132314D02*
X0155154Y0134331D01*
G75*
G02*
X0156015Y0135193I0000861J0000000D01*
G01*
X0157737Y0135193D01*
G75*
G02*
X0158598Y0134331I0000000J-000861D01*
G01*
X0158598Y0132314D01*
G75*
G02*
X0157737Y0131452I-000861J0000000D01*
G01*
X0156015Y0131452D01*
G75*
G02*
X0155154Y0132314I0000000J0000861D01*
G01*
G37*
G36*
G01*
X0123829Y0134901D02*
X0125187Y0134901D01*
G75*
G02*
X0125768Y0134321I0000000J-000581D01*
G01*
X0125768Y0133159D01*
G75*
G02*
X0125187Y0132578I-000581J0000000D01*
G01*
X0123829Y0132578D01*
G75*
G02*
X0123248Y0133159I0000000J0000581D01*
G01*
X0123248Y0134321D01*
G75*
G02*
X0123829Y0134901I0000581J0000000D01*
G01*
G37*
G36*
G01*
X0123829Y0131082D02*
X0125187Y0131082D01*
G75*
G02*
X0125768Y0130502I0000000J-000581D01*
G01*
X0125768Y0129340D01*
G75*
G02*
X0125187Y0128760I-000581J0000000D01*
G01*
X0123829Y0128760D01*
G75*
G02*
X0123248Y0129340I0000000J0000581D01*
G01*
X0123248Y0130502D01*
G75*
G02*
X0123829Y0131082I0000581J0000000D01*
G01*
G37*
G36*
G01*
X0121053Y0128760D02*
X0119695Y0128760D01*
G75*
G02*
X0119114Y0129340I0000000J0000581D01*
G01*
X0119114Y0130502D01*
G75*
G02*
X0119695Y0131082I0000581J0000000D01*
G01*
X0121053Y0131082D01*
G75*
G02*
X0121634Y0130502I0000000J-000581D01*
G01*
X0121634Y0129340D01*
G75*
G02*
X0121053Y0128760I-000581J0000000D01*
G01*
G37*
G36*
G01*
X0121053Y0132578D02*
X0119695Y0132578D01*
G75*
G02*
X0119114Y0133159I0000000J0000581D01*
G01*
X0119114Y0134321D01*
G75*
G02*
X0119695Y0134901I0000581J0000000D01*
G01*
X0121053Y0134901D01*
G75*
G02*
X0121634Y0134321I0000000J-000581D01*
G01*
X0121634Y0133159D01*
G75*
G02*
X0121053Y0132578I-000581J0000000D01*
G01*
G37*
G36*
G01*
X0116767Y0207145D02*
X0118784Y0207145D01*
G75*
G02*
X0119646Y0206284I0000000J-000861D01*
G01*
X0119646Y0204562D01*
G75*
G02*
X0118784Y0203700I-000861J0000000D01*
G01*
X0116767Y0203700D01*
G75*
G02*
X0115906Y0204562I0000000J0000861D01*
G01*
X0115906Y0206284D01*
G75*
G02*
X0116767Y0207145I0000861J0000000D01*
G01*
G37*
G36*
G01*
X0116767Y0200945D02*
X0118784Y0200945D01*
G75*
G02*
X0119646Y0200083I0000000J-000861D01*
G01*
X0119646Y0198361D01*
G75*
G02*
X0118784Y0197500I-000861J0000000D01*
G01*
X0116767Y0197500D01*
G75*
G02*
X0115906Y0198361I0000000J0000861D01*
G01*
X0115906Y0200083D01*
G75*
G02*
X0116767Y0200945I0000861J0000000D01*
G01*
G37*
G36*
G01*
X0112215Y0210374D02*
X0113573Y0210374D01*
G75*
G02*
X0114154Y0209793I0000000J-000581D01*
G01*
X0114154Y0208632D01*
G75*
G02*
X0113573Y0208051I-000581J0000000D01*
G01*
X0112215Y0208051D01*
G75*
G02*
X0111634Y0208632I0000000J0000581D01*
G01*
X0111634Y0209793D01*
G75*
G02*
X0112215Y0210374I0000581J0000000D01*
G01*
G37*
G36*
G01*
X0112215Y0206555D02*
X0113573Y0206555D01*
G75*
G02*
X0114154Y0205974I0000000J-000581D01*
G01*
X0114154Y0204813D01*
G75*
G02*
X0113573Y0204232I-000581J0000000D01*
G01*
X0112215Y0204232D01*
G75*
G02*
X0111634Y0204813I0000000J0000581D01*
G01*
X0111634Y0205974D01*
G75*
G02*
X0112215Y0206555I0000581J0000000D01*
G01*
G37*
G36*
G01*
X0154321Y0163149D02*
X0152963Y0163149D01*
G75*
G02*
X0152382Y0163730I0000000J0000581D01*
G01*
X0152382Y0164891D01*
G75*
G02*
X0152963Y0165472I0000581J0000000D01*
G01*
X0154321Y0165472D01*
G75*
G02*
X0154902Y0164891I0000000J-000581D01*
G01*
X0154902Y0163730D01*
G75*
G02*
X0154321Y0163149I-000581J0000000D01*
G01*
G37*
G36*
G01*
X0154321Y0166968D02*
X0152963Y0166968D01*
G75*
G02*
X0152382Y0167549I0000000J0000581D01*
G01*
X0152382Y0168710D01*
G75*
G02*
X0152963Y0169291I0000581J0000000D01*
G01*
X0154321Y0169291D01*
G75*
G02*
X0154902Y0168710I0000000J-000581D01*
G01*
X0154902Y0167549D01*
G75*
G02*
X0154321Y0166968I-000581J0000000D01*
G01*
G37*
G36*
G01*
X0130709Y0176555D02*
X0129724Y0176555D01*
G75*
G02*
X0129232Y0177047I0000000J0000492D01*
G01*
X0129232Y0181968D01*
G75*
G02*
X0129724Y0182460I0000492J0000000D01*
G01*
X0130709Y0182460D01*
G75*
G02*
X0131201Y0181968I0000000J-000492D01*
G01*
X0131201Y0177047D01*
G75*
G02*
X0130709Y0176555I-000492J0000000D01*
G01*
G37*
G36*
G01*
X0133858Y0176555D02*
X0132874Y0176555D01*
G75*
G02*
X0132382Y0177047I0000000J0000492D01*
G01*
X0132382Y0181968D01*
G75*
G02*
X0132874Y0182460I0000492J0000000D01*
G01*
X0133858Y0182460D01*
G75*
G02*
X0134350Y0181968I0000000J-000492D01*
G01*
X0134350Y0177047D01*
G75*
G02*
X0133858Y0176555I-000492J0000000D01*
G01*
G37*
G36*
G01*
X0137008Y0176555D02*
X0136024Y0176555D01*
G75*
G02*
X0135532Y0177047I0000000J0000492D01*
G01*
X0135532Y0181968D01*
G75*
G02*
X0136024Y0182460I0000492J0000000D01*
G01*
X0137008Y0182460D01*
G75*
G02*
X0137500Y0181968I0000000J-000492D01*
G01*
X0137500Y0177047D01*
G75*
G02*
X0137008Y0176555I-000492J0000000D01*
G01*
G37*
G36*
G01*
X0140157Y0176555D02*
X0139173Y0176555D01*
G75*
G02*
X0138681Y0177047I0000000J0000492D01*
G01*
X0138681Y0181968D01*
G75*
G02*
X0139173Y0182460I0000492J0000000D01*
G01*
X0140157Y0182460D01*
G75*
G02*
X0140650Y0181968I0000000J-000492D01*
G01*
X0140650Y0177047D01*
G75*
G02*
X0140157Y0176555I-000492J0000000D01*
G01*
G37*
G36*
G01*
X0143307Y0176555D02*
X0142323Y0176555D01*
G75*
G02*
X0141831Y0177047I0000000J0000492D01*
G01*
X0141831Y0181968D01*
G75*
G02*
X0142323Y0182460I0000492J0000000D01*
G01*
X0143307Y0182460D01*
G75*
G02*
X0143799Y0181968I0000000J-000492D01*
G01*
X0143799Y0177047D01*
G75*
G02*
X0143307Y0176555I-000492J0000000D01*
G01*
G37*
G36*
G01*
X0146457Y0176555D02*
X0145472Y0176555D01*
G75*
G02*
X0144980Y0177047I0000000J0000492D01*
G01*
X0144980Y0181968D01*
G75*
G02*
X0145472Y0182460I0000492J0000000D01*
G01*
X0146457Y0182460D01*
G75*
G02*
X0146949Y0181968I0000000J-000492D01*
G01*
X0146949Y0177047D01*
G75*
G02*
X0146457Y0176555I-000492J0000000D01*
G01*
G37*
G36*
G01*
X0149606Y0176555D02*
X0148622Y0176555D01*
G75*
G02*
X0148130Y0177047I0000000J0000492D01*
G01*
X0148130Y0181968D01*
G75*
G02*
X0148622Y0182460I0000492J0000000D01*
G01*
X0149606Y0182460D01*
G75*
G02*
X0150098Y0181968I0000000J-000492D01*
G01*
X0150098Y0177047D01*
G75*
G02*
X0149606Y0176555I-000492J0000000D01*
G01*
G37*
G36*
G01*
X0152756Y0176555D02*
X0151772Y0176555D01*
G75*
G02*
X0151280Y0177047I0000000J0000492D01*
G01*
X0151280Y0181968D01*
G75*
G02*
X0151772Y0182460I0000492J0000000D01*
G01*
X0152756Y0182460D01*
G75*
G02*
X0153248Y0181968I0000000J-000492D01*
G01*
X0153248Y0177047D01*
G75*
G02*
X0152756Y0176555I-000492J0000000D01*
G01*
G37*
G36*
G01*
X0160138Y0183937D02*
X0155217Y0183937D01*
G75*
G02*
X0154724Y0184429I0000000J0000492D01*
G01*
X0154724Y0185413D01*
G75*
G02*
X0155217Y0185905I0000492J0000000D01*
G01*
X0160138Y0185905D01*
G75*
G02*
X0160630Y0185413I0000000J-000492D01*
G01*
X0160630Y0184429D01*
G75*
G02*
X0160138Y0183937I-000492J0000000D01*
G01*
G37*
G36*
G01*
X0160138Y0187086D02*
X0155217Y0187086D01*
G75*
G02*
X0154724Y0187578I0000000J0000492D01*
G01*
X0154724Y0188563D01*
G75*
G02*
X0155217Y0189055I0000492J0000000D01*
G01*
X0160138Y0189055D01*
G75*
G02*
X0160630Y0188563I0000000J-000492D01*
G01*
X0160630Y0187578D01*
G75*
G02*
X0160138Y0187086I-000492J0000000D01*
G01*
G37*
G36*
G01*
X0160138Y0190236D02*
X0155217Y0190236D01*
G75*
G02*
X0154724Y0190728I0000000J0000492D01*
G01*
X0154724Y0191712D01*
G75*
G02*
X0155217Y0192204I0000492J0000000D01*
G01*
X0160138Y0192204D01*
G75*
G02*
X0160630Y0191712I0000000J-000492D01*
G01*
X0160630Y0190728D01*
G75*
G02*
X0160138Y0190236I-000492J0000000D01*
G01*
G37*
G36*
G01*
X0160138Y0193386D02*
X0155217Y0193386D01*
G75*
G02*
X0154724Y0193878I0000000J0000492D01*
G01*
X0154724Y0194862D01*
G75*
G02*
X0155217Y0195354I0000492J0000000D01*
G01*
X0160138Y0195354D01*
G75*
G02*
X0160630Y0194862I0000000J-000492D01*
G01*
X0160630Y0193878D01*
G75*
G02*
X0160138Y0193386I-000492J0000000D01*
G01*
G37*
G36*
G01*
X0160138Y0196535D02*
X0155217Y0196535D01*
G75*
G02*
X0154724Y0197027I0000000J0000492D01*
G01*
X0154724Y0198011D01*
G75*
G02*
X0155217Y0198504I0000492J0000000D01*
G01*
X0160138Y0198504D01*
G75*
G02*
X0160630Y0198011I0000000J-000492D01*
G01*
X0160630Y0197027D01*
G75*
G02*
X0160138Y0196535I-000492J0000000D01*
G01*
G37*
G36*
G01*
X0160138Y0199685D02*
X0155217Y0199685D01*
G75*
G02*
X0154724Y0200177I0000000J0000492D01*
G01*
X0154724Y0201161D01*
G75*
G02*
X0155217Y0201653I0000492J0000000D01*
G01*
X0160138Y0201653D01*
G75*
G02*
X0160630Y0201161I0000000J-000492D01*
G01*
X0160630Y0200177D01*
G75*
G02*
X0160138Y0199685I-000492J0000000D01*
G01*
G37*
G36*
G01*
X0160138Y0202834D02*
X0155217Y0202834D01*
G75*
G02*
X0154724Y0203326I0000000J0000492D01*
G01*
X0154724Y0204311D01*
G75*
G02*
X0155217Y0204803I0000492J0000000D01*
G01*
X0160138Y0204803D01*
G75*
G02*
X0160630Y0204311I0000000J-000492D01*
G01*
X0160630Y0203326D01*
G75*
G02*
X0160138Y0202834I-000492J0000000D01*
G01*
G37*
G36*
G01*
X0160138Y0205984D02*
X0155217Y0205984D01*
G75*
G02*
X0154724Y0206476I0000000J0000492D01*
G01*
X0154724Y0207460D01*
G75*
G02*
X0155217Y0207952I0000492J0000000D01*
G01*
X0160138Y0207952D01*
G75*
G02*
X0160630Y0207460I0000000J-000492D01*
G01*
X0160630Y0206476D01*
G75*
G02*
X0160138Y0205984I-000492J0000000D01*
G01*
G37*
G36*
G01*
X0152756Y0209429D02*
X0151772Y0209429D01*
G75*
G02*
X0151280Y0209921I0000000J0000492D01*
G01*
X0151280Y0214842D01*
G75*
G02*
X0151772Y0215334I0000492J0000000D01*
G01*
X0152756Y0215334D01*
G75*
G02*
X0153248Y0214842I0000000J-000492D01*
G01*
X0153248Y0209921D01*
G75*
G02*
X0152756Y0209429I-000492J0000000D01*
G01*
G37*
G36*
G01*
X0149606Y0209429D02*
X0148622Y0209429D01*
G75*
G02*
X0148130Y0209921I0000000J0000492D01*
G01*
X0148130Y0214842D01*
G75*
G02*
X0148622Y0215334I0000492J0000000D01*
G01*
X0149606Y0215334D01*
G75*
G02*
X0150098Y0214842I0000000J-000492D01*
G01*
X0150098Y0209921D01*
G75*
G02*
X0149606Y0209429I-000492J0000000D01*
G01*
G37*
G36*
G01*
X0146457Y0209429D02*
X0145472Y0209429D01*
G75*
G02*
X0144980Y0209921I0000000J0000492D01*
G01*
X0144980Y0214842D01*
G75*
G02*
X0145472Y0215334I0000492J0000000D01*
G01*
X0146457Y0215334D01*
G75*
G02*
X0146949Y0214842I0000000J-000492D01*
G01*
X0146949Y0209921D01*
G75*
G02*
X0146457Y0209429I-000492J0000000D01*
G01*
G37*
G36*
G01*
X0143307Y0209429D02*
X0142323Y0209429D01*
G75*
G02*
X0141831Y0209921I0000000J0000492D01*
G01*
X0141831Y0214842D01*
G75*
G02*
X0142323Y0215334I0000492J0000000D01*
G01*
X0143307Y0215334D01*
G75*
G02*
X0143799Y0214842I0000000J-000492D01*
G01*
X0143799Y0209921D01*
G75*
G02*
X0143307Y0209429I-000492J0000000D01*
G01*
G37*
G36*
G01*
X0140157Y0209429D02*
X0139173Y0209429D01*
G75*
G02*
X0138681Y0209921I0000000J0000492D01*
G01*
X0138681Y0214842D01*
G75*
G02*
X0139173Y0215334I0000492J0000000D01*
G01*
X0140157Y0215334D01*
G75*
G02*
X0140650Y0214842I0000000J-000492D01*
G01*
X0140650Y0209921D01*
G75*
G02*
X0140157Y0209429I-000492J0000000D01*
G01*
G37*
G36*
G01*
X0137008Y0209429D02*
X0136024Y0209429D01*
G75*
G02*
X0135532Y0209921I0000000J0000492D01*
G01*
X0135532Y0214842D01*
G75*
G02*
X0136024Y0215334I0000492J0000000D01*
G01*
X0137008Y0215334D01*
G75*
G02*
X0137500Y0214842I0000000J-000492D01*
G01*
X0137500Y0209921D01*
G75*
G02*
X0137008Y0209429I-000492J0000000D01*
G01*
G37*
G36*
G01*
X0133858Y0209429D02*
X0132874Y0209429D01*
G75*
G02*
X0132382Y0209921I0000000J0000492D01*
G01*
X0132382Y0214842D01*
G75*
G02*
X0132874Y0215334I0000492J0000000D01*
G01*
X0133858Y0215334D01*
G75*
G02*
X0134350Y0214842I0000000J-000492D01*
G01*
X0134350Y0209921D01*
G75*
G02*
X0133858Y0209429I-000492J0000000D01*
G01*
G37*
G36*
G01*
X0130709Y0209429D02*
X0129724Y0209429D01*
G75*
G02*
X0129232Y0209921I0000000J0000492D01*
G01*
X0129232Y0214842D01*
G75*
G02*
X0129724Y0215334I0000492J0000000D01*
G01*
X0130709Y0215334D01*
G75*
G02*
X0131201Y0214842I0000000J-000492D01*
G01*
X0131201Y0209921D01*
G75*
G02*
X0130709Y0209429I-000492J0000000D01*
G01*
G37*
G36*
G01*
X0127264Y0205984D02*
X0122343Y0205984D01*
G75*
G02*
X0121850Y0206476I0000000J0000492D01*
G01*
X0121850Y0207460D01*
G75*
G02*
X0122343Y0207952I0000492J0000000D01*
G01*
X0127264Y0207952D01*
G75*
G02*
X0127756Y0207460I0000000J-000492D01*
G01*
X0127756Y0206476D01*
G75*
G02*
X0127264Y0205984I-000492J0000000D01*
G01*
G37*
G36*
G01*
X0127264Y0202834D02*
X0122343Y0202834D01*
G75*
G02*
X0121850Y0203326I0000000J0000492D01*
G01*
X0121850Y0204311D01*
G75*
G02*
X0122343Y0204803I0000492J0000000D01*
G01*
X0127264Y0204803D01*
G75*
G02*
X0127756Y0204311I0000000J-000492D01*
G01*
X0127756Y0203326D01*
G75*
G02*
X0127264Y0202834I-000492J0000000D01*
G01*
G37*
G36*
G01*
X0127264Y0199685D02*
X0122343Y0199685D01*
G75*
G02*
X0121850Y0200177I0000000J0000492D01*
G01*
X0121850Y0201161D01*
G75*
G02*
X0122343Y0201653I0000492J0000000D01*
G01*
X0127264Y0201653D01*
G75*
G02*
X0127756Y0201161I0000000J-000492D01*
G01*
X0127756Y0200177D01*
G75*
G02*
X0127264Y0199685I-000492J0000000D01*
G01*
G37*
G36*
G01*
X0127264Y0196535D02*
X0122343Y0196535D01*
G75*
G02*
X0121850Y0197027I0000000J0000492D01*
G01*
X0121850Y0198011D01*
G75*
G02*
X0122343Y0198504I0000492J0000000D01*
G01*
X0127264Y0198504D01*
G75*
G02*
X0127756Y0198011I0000000J-000492D01*
G01*
X0127756Y0197027D01*
G75*
G02*
X0127264Y0196535I-000492J0000000D01*
G01*
G37*
G36*
G01*
X0127264Y0193386D02*
X0122343Y0193386D01*
G75*
G02*
X0121850Y0193878I0000000J0000492D01*
G01*
X0121850Y0194862D01*
G75*
G02*
X0122343Y0195354I0000492J0000000D01*
G01*
X0127264Y0195354D01*
G75*
G02*
X0127756Y0194862I0000000J-000492D01*
G01*
X0127756Y0193878D01*
G75*
G02*
X0127264Y0193386I-000492J0000000D01*
G01*
G37*
G36*
G01*
X0127264Y0190236D02*
X0122343Y0190236D01*
G75*
G02*
X0121850Y0190728I0000000J0000492D01*
G01*
X0121850Y0191712D01*
G75*
G02*
X0122343Y0192204I0000492J0000000D01*
G01*
X0127264Y0192204D01*
G75*
G02*
X0127756Y0191712I0000000J-000492D01*
G01*
X0127756Y0190728D01*
G75*
G02*
X0127264Y0190236I-000492J0000000D01*
G01*
G37*
G36*
G01*
X0127264Y0187086D02*
X0122343Y0187086D01*
G75*
G02*
X0121850Y0187578I0000000J0000492D01*
G01*
X0121850Y0188563D01*
G75*
G02*
X0122343Y0189055I0000492J0000000D01*
G01*
X0127264Y0189055D01*
G75*
G02*
X0127756Y0188563I0000000J-000492D01*
G01*
X0127756Y0187578D01*
G75*
G02*
X0127264Y0187086I-000492J0000000D01*
G01*
G37*
G36*
G01*
X0127264Y0183937D02*
X0122343Y0183937D01*
G75*
G02*
X0121850Y0184429I0000000J0000492D01*
G01*
X0121850Y0185413D01*
G75*
G02*
X0122343Y0185905I0000492J0000000D01*
G01*
X0127264Y0185905D01*
G75*
G02*
X0127756Y0185413I0000000J-000492D01*
G01*
X0127756Y0184429D01*
G75*
G02*
X0127264Y0183937I-000492J0000000D01*
G01*
G37*
G36*
G01*
X0155719Y0176771D02*
X0157077Y0176771D01*
G75*
G02*
X0157657Y0176191I0000000J-000581D01*
G01*
X0157657Y0175029D01*
G75*
G02*
X0157077Y0174448I-000581J0000000D01*
G01*
X0155719Y0174448D01*
G75*
G02*
X0155138Y0175029I0000000J0000581D01*
G01*
X0155138Y0176191D01*
G75*
G02*
X0155719Y0176771I0000581J0000000D01*
G01*
G37*
G36*
G01*
X0155719Y0172952D02*
X0157077Y0172952D01*
G75*
G02*
X0157657Y0172372I0000000J-000581D01*
G01*
X0157657Y0171210D01*
G75*
G02*
X0157077Y0170630I-000581J0000000D01*
G01*
X0155719Y0170630D01*
G75*
G02*
X0155138Y0171210I0000000J0000581D01*
G01*
X0155138Y0172372D01*
G75*
G02*
X0155719Y0172952I0000581J0000000D01*
G01*
G37*
G36*
G01*
X0158258Y0163149D02*
X0156900Y0163149D01*
G75*
G02*
X0156319Y0163730I0000000J0000581D01*
G01*
X0156319Y0164891D01*
G75*
G02*
X0156900Y0165472I0000581J0000000D01*
G01*
X0158258Y0165472D01*
G75*
G02*
X0158839Y0164891I0000000J-000581D01*
G01*
X0158839Y0163730D01*
G75*
G02*
X0158258Y0163149I-000581J0000000D01*
G01*
G37*
G36*
G01*
X0158258Y0166968D02*
X0156900Y0166968D01*
G75*
G02*
X0156319Y0167549I0000000J0000581D01*
G01*
X0156319Y0168710D01*
G75*
G02*
X0156900Y0169291I0000581J0000000D01*
G01*
X0158258Y0169291D01*
G75*
G02*
X0158839Y0168710I0000000J-000581D01*
G01*
X0158839Y0167549D01*
G75*
G02*
X0158258Y0166968I-000581J0000000D01*
G01*
G37*
G36*
G01*
X0133061Y0168661D02*
X0131703Y0168661D01*
G75*
G02*
X0131122Y0169242I0000000J0000581D01*
G01*
X0131122Y0170403D01*
G75*
G02*
X0131703Y0170984I0000581J0000000D01*
G01*
X0133061Y0170984D01*
G75*
G02*
X0133642Y0170403I0000000J-000581D01*
G01*
X0133642Y0169242D01*
G75*
G02*
X0133061Y0168661I-000581J0000000D01*
G01*
G37*
G36*
G01*
X0133061Y0172480D02*
X0131703Y0172480D01*
G75*
G02*
X0131122Y0173061I0000000J0000581D01*
G01*
X0131122Y0174222D01*
G75*
G02*
X0131703Y0174803I0000581J0000000D01*
G01*
X0133061Y0174803D01*
G75*
G02*
X0133642Y0174222I0000000J-000581D01*
G01*
X0133642Y0173061D01*
G75*
G02*
X0133061Y0172480I-000581J0000000D01*
G01*
G37*
G36*
G01*
X0151240Y0221456D02*
X0151240Y0220098D01*
G75*
G02*
X0150659Y0219517I-000581J0000000D01*
G01*
X0149498Y0219517D01*
G75*
G02*
X0148917Y0220098I0000000J0000581D01*
G01*
X0148917Y0221456D01*
G75*
G02*
X0149498Y0222037I0000581J0000000D01*
G01*
X0150659Y0222037D01*
G75*
G02*
X0151240Y0221456I0000000J-000581D01*
G01*
G37*
G36*
G01*
X0147421Y0221456D02*
X0147421Y0220098D01*
G75*
G02*
X0146840Y0219517I-000581J0000000D01*
G01*
X0145679Y0219517D01*
G75*
G02*
X0145098Y0220098I0000000J0000581D01*
G01*
X0145098Y0221456D01*
G75*
G02*
X0145679Y0222037I0000581J0000000D01*
G01*
X0146840Y0222037D01*
G75*
G02*
X0147421Y0221456I0000000J-000581D01*
G01*
G37*
G36*
G01*
X0124882Y0212175D02*
X0124882Y0210817D01*
G75*
G02*
X0124301Y0210236I-000581J0000000D01*
G01*
X0123140Y0210236D01*
G75*
G02*
X0122559Y0210817I0000000J0000581D01*
G01*
X0122559Y0212175D01*
G75*
G02*
X0123140Y0212756I0000581J0000000D01*
G01*
X0124301Y0212756D01*
G75*
G02*
X0124882Y0212175I0000000J-000581D01*
G01*
G37*
G36*
G01*
X0121063Y0212175D02*
X0121063Y0210817D01*
G75*
G02*
X0120482Y0210236I-000581J0000000D01*
G01*
X0119321Y0210236D01*
G75*
G02*
X0118740Y0210817I0000000J0000581D01*
G01*
X0118740Y0212175D01*
G75*
G02*
X0119321Y0212756I0000581J0000000D01*
G01*
X0120482Y0212756D01*
G75*
G02*
X0121063Y0212175I0000000J-000581D01*
G01*
G37*
G36*
G01*
X0147215Y0235917D02*
X0148573Y0235917D01*
G75*
G02*
X0149154Y0235336I0000000J-000581D01*
G01*
X0149154Y0234175D01*
G75*
G02*
X0148573Y0233594I-000581J0000000D01*
G01*
X0147215Y0233594D01*
G75*
G02*
X0146634Y0234175I0000000J0000581D01*
G01*
X0146634Y0235336D01*
G75*
G02*
X0147215Y0235917I0000581J0000000D01*
G01*
G37*
G36*
G01*
X0147215Y0232098D02*
X0148573Y0232098D01*
G75*
G02*
X0149154Y0231517I0000000J-000581D01*
G01*
X0149154Y0230356D01*
G75*
G02*
X0148573Y0229775I-000581J0000000D01*
G01*
X0147215Y0229775D01*
G75*
G02*
X0146634Y0230356I0000000J0000581D01*
G01*
X0146634Y0231517D01*
G75*
G02*
X0147215Y0232098I0000581J0000000D01*
G01*
G37*
D77*
X0152957Y0234586D03*
X0152957Y0227106D03*
X0160831Y0230846D03*
G36*
G01*
X0129205Y0133143D02*
X0129205Y0134502D01*
G75*
G02*
X0129785Y0135082I0000581J0000000D01*
G01*
X0130947Y0135082D01*
G75*
G02*
X0131528Y0134502I0000000J-000581D01*
G01*
X0131528Y0133143D01*
G75*
G02*
X0130947Y0132563I-000581J0000000D01*
G01*
X0129785Y0132563D01*
G75*
G02*
X0129205Y0133143I0000000J0000581D01*
G01*
G37*
G36*
G01*
X0133024Y0133143D02*
X0133024Y0134502D01*
G75*
G02*
X0133604Y0135082I0000581J0000000D01*
G01*
X0134766Y0135082D01*
G75*
G02*
X0135346Y0134502I0000000J-000581D01*
G01*
X0135346Y0133143D01*
G75*
G02*
X0134766Y0132563I-000581J0000000D01*
G01*
X0133604Y0132563D01*
G75*
G02*
X0133024Y0133143I0000000J0000581D01*
G01*
G37*
G36*
G01*
X0162874Y0221491D02*
X0162874Y0219473D01*
G75*
G02*
X0162013Y0218612I-000861J0000000D01*
G01*
X0160290Y0218612D01*
G75*
G02*
X0159429Y0219473I0000000J0000861D01*
G01*
X0159429Y0221491D01*
G75*
G02*
X0160290Y0222352I0000861J0000000D01*
G01*
X0162013Y0222352D01*
G75*
G02*
X0162874Y0221491I0000000J-000861D01*
G01*
G37*
G36*
G01*
X0156673Y0221491D02*
X0156673Y0219473D01*
G75*
G02*
X0155812Y0218612I-000861J0000000D01*
G01*
X0154089Y0218612D01*
G75*
G02*
X0153228Y0219473I0000000J0000861D01*
G01*
X0153228Y0221491D01*
G75*
G02*
X0154089Y0222352I0000861J0000000D01*
G01*
X0155812Y0222352D01*
G75*
G02*
X0156673Y0221491I0000000J-000861D01*
G01*
G37*
D91*
X0119390Y0237244D03*
X0115390Y0217244D03*
X0123390Y0217244D03*
D88*
X0116890Y0232244D03*
X0121890Y0232244D03*
X0116890Y0227244D03*
X0121890Y0227244D03*
X0116890Y0222244D03*
X0121890Y0222244D03*
D113*
X0160138Y0100708D03*
D114*
X0160138Y0110708D03*
X0160138Y0120708D03*
X0167569Y0276332D02*
G01*
G75*
D101*
X0124262Y0275249D02*
D03*
D102*
X0165010Y0275052D02*
D03*
X0163041Y0275052D02*
D03*
D131*
X0156152Y0263320D02*
D03*
X0159892Y0272572D02*
D03*
D131*
X0163632Y0263320D02*
D03*
D104*
X0148593Y0251706D02*
D03*
X0148593Y0256706D02*
D03*
X0148593Y0261706D02*
D03*
X0148593Y0266706D02*
D03*
X0129695Y0251706D02*
D03*
X0129695Y0256706D02*
D03*
X0129695Y0261706D02*
D03*
X0129695Y0266706D02*
D03*
D132*
X0132884Y0272001D02*
D03*
X0126664Y0272001D02*
D03*
X0141230Y0272001D02*
D03*
X0147451Y0272001D02*
D03*
D133*
X0163042Y0258419D02*
D03*
X0156742Y0258419D02*
D03*
D107*
X0152412Y0274462D02*
D03*
X0136368Y0251923D02*
D03*
X0136073Y0265899D02*
D03*
X0137254Y0270919D02*
D03*
X0140699Y0268852D02*
D03*
M02*
