G75*
G70*
%OFA0B0*%
%FSLAX25Y25*%
%IPPOS*%
%LPD*%
%AMOC8*
5,1,8,0,0,1.08239X$1,22.5*
%
%ADD10C,0.06693*%
%ADD107C,0.02913*%
%ADD11C,0.06000*%
%ADD113R,0.07874X0.07500*%
%ADD114O,0.07874X0.07500*%
%ADD13C,0.02362*%
%ADD26C,0.09449*%
%ADD27O,0.06693X0.07677*%
%ADD28C,0.06299*%
%ADD38R,0.06693X0.06693*%
%ADD39O,0.06693X0.06693*%
%ADD45C,0.07874*%
%ADD46C,0.16929*%
%ADD47C,0.13780*%
%ADD74C,0.05118*%
%ADD91C,0.03900*%
X0000000Y0000000D02*
%LPD*%
G01*
D10*
X0576772Y0568898D03*
X0051181Y0781496D03*
X0299528Y0150079D03*
X0299528Y0160079D03*
X0299528Y0170079D03*
X0299528Y0180079D03*
X0299528Y0190079D03*
X0309528Y0150079D03*
X0309528Y0160079D03*
X0309528Y0170079D03*
X0309528Y0180079D03*
X0309528Y0190079D03*
X0319528Y0150079D03*
X0319528Y0160079D03*
X0319528Y0170079D03*
X0319528Y0180079D03*
X0319528Y0190079D03*
X0535433Y0366142D03*
D11*
X0188976Y0782498D03*
X0188976Y0767498D03*
D46*
X0305118Y0015748D03*
D10*
X0521654Y0743307D03*
X0486220Y0743307D03*
D11*
X0228346Y0782303D03*
X0228346Y0767303D03*
D10*
X0450787Y0773622D03*
X0446850Y0743307D03*
X0535433Y0326772D03*
D46*
X0019685Y0405512D03*
D11*
X0501969Y0782303D03*
X0501969Y0767303D03*
D10*
X0031496Y0592520D03*
X0576772Y0596457D03*
D46*
X0015748Y0839370D03*
D10*
X0250000Y0755118D03*
X0137795Y0768898D03*
X0031496Y0568898D03*
X0285433Y0425197D03*
D13*
X0220571Y0304724D03*
X0250098Y0304724D03*
X0253248Y0304724D03*
X0256398Y0304724D03*
X0228051Y0373720D03*
X0224114Y0373720D03*
D10*
X0074803Y0781496D03*
X0541339Y0768898D03*
D46*
X0590551Y0062992D03*
D10*
X0535433Y0307087D03*
X0551969Y0501575D03*
X0179134Y0739370D03*
X0541339Y0780709D03*
X0329528Y0200079D03*
X0319528Y0200079D03*
X0309528Y0200079D03*
X0299528Y0200079D03*
X0289528Y0200079D03*
X0329528Y0210079D03*
X0319528Y0210079D03*
X0309528Y0210079D03*
X0299528Y0210079D03*
X0289528Y0210079D03*
X0329528Y0220079D03*
X0319528Y0220079D03*
X0309528Y0220079D03*
X0299528Y0220079D03*
X0289528Y0220079D03*
D13*
X0137254Y0270919D03*
X0140699Y0268852D03*
X0136073Y0265899D03*
X0136368Y0251923D03*
D10*
X0576772Y0616142D03*
D45*
X0544291Y0480413D03*
X0544291Y0730020D03*
X0473032Y0474508D03*
X0473032Y0735925D03*
X0404134Y0535531D03*
X0398228Y0464272D03*
X0211614Y0464272D03*
X0205709Y0535531D03*
X0136811Y0474508D03*
X0136811Y0735925D03*
X0065551Y0480413D03*
X0065551Y0730020D03*
D26*
X0517520Y0518602D03*
X0517520Y0534350D03*
X0517520Y0550098D03*
X0517520Y0565846D03*
X0517520Y0581594D03*
X0517520Y0597343D03*
X0517520Y0613091D03*
X0517520Y0628839D03*
X0517520Y0644587D03*
X0517520Y0660335D03*
X0517520Y0676083D03*
X0517520Y0691831D03*
X0501772Y0526476D03*
X0501772Y0542224D03*
X0501772Y0557972D03*
X0501772Y0573720D03*
X0501772Y0589469D03*
X0501772Y0605217D03*
X0501772Y0620965D03*
X0501772Y0636713D03*
X0501772Y0652461D03*
X0501772Y0668209D03*
X0501772Y0683957D03*
X0486024Y0518602D03*
X0486024Y0534350D03*
X0486024Y0550098D03*
X0486024Y0565846D03*
X0486024Y0581594D03*
X0486024Y0597343D03*
X0486024Y0613091D03*
X0486024Y0628839D03*
X0486024Y0644587D03*
X0486024Y0660335D03*
X0486024Y0676083D03*
X0486024Y0691831D03*
X0249803Y0491043D03*
X0265551Y0491043D03*
X0281299Y0491043D03*
X0297047Y0491043D03*
X0312795Y0491043D03*
X0328543Y0491043D03*
X0344291Y0491043D03*
X0360039Y0491043D03*
X0257677Y0506791D03*
X0273425Y0506791D03*
X0289173Y0506791D03*
X0304921Y0506791D03*
X0320669Y0506791D03*
X0336417Y0506791D03*
X0352165Y0506791D03*
X0249803Y0522539D03*
X0265551Y0522539D03*
X0281299Y0522539D03*
X0297047Y0522539D03*
X0312795Y0522539D03*
X0328543Y0522539D03*
X0344291Y0522539D03*
X0360039Y0522539D03*
X0092323Y0691831D03*
X0092323Y0676083D03*
X0092323Y0660335D03*
X0092323Y0644587D03*
X0092323Y0628839D03*
X0092323Y0613091D03*
X0092323Y0597343D03*
X0092323Y0581594D03*
X0092323Y0565846D03*
X0092323Y0550098D03*
X0092323Y0534350D03*
X0092323Y0518602D03*
X0108071Y0683957D03*
X0108071Y0668209D03*
X0108071Y0652461D03*
X0108071Y0636713D03*
X0108071Y0620965D03*
X0108071Y0605217D03*
X0108071Y0589469D03*
X0108071Y0573720D03*
X0108071Y0557972D03*
X0108071Y0542224D03*
X0108071Y0526476D03*
X0123819Y0691831D03*
X0123819Y0676083D03*
X0123819Y0660335D03*
X0123819Y0644587D03*
X0123819Y0628839D03*
X0123819Y0613091D03*
X0123819Y0597343D03*
X0123819Y0581594D03*
X0123819Y0565846D03*
X0123819Y0550098D03*
X0123819Y0534350D03*
X0123819Y0518602D03*
D10*
X0299528Y0100079D03*
X0299528Y0110079D03*
X0299528Y0120079D03*
X0299528Y0130079D03*
X0299528Y0140079D03*
X0309528Y0100079D03*
X0309528Y0110079D03*
X0309528Y0120079D03*
X0309528Y0130079D03*
X0309528Y0140079D03*
X0319528Y0100079D03*
X0319528Y0110079D03*
X0319528Y0120079D03*
X0319528Y0130079D03*
X0319528Y0140079D03*
G36*
G01*
X0072441Y0055295D02*
X0072441Y0061004D01*
G75*
G02*
X0073425Y0061988I0000984J0000000D01*
G01*
X0078150Y0061988D01*
G75*
G02*
X0079134Y0061004I0000000J-000984D01*
G01*
X0079134Y0055295D01*
G75*
G02*
X0078150Y0054311I-000984J0000000D01*
G01*
X0073425Y0054311D01*
G75*
G02*
X0072441Y0055295I0000000J0000984D01*
G01*
G37*
D27*
X0085630Y0058150D03*
X0095472Y0058150D03*
X0105315Y0058150D03*
X0115157Y0058150D03*
X0125000Y0058150D03*
X0134843Y0058150D03*
X0144685Y0058150D03*
X0154528Y0058150D03*
X0164370Y0058150D03*
D10*
X0375073Y0775591D03*
X0551969Y0525197D03*
D11*
X0478346Y0782303D03*
X0478346Y0767303D03*
X0198819Y0782303D03*
X0198819Y0767303D03*
X0267717Y0782303D03*
X0267717Y0767303D03*
X0387008Y0786655D03*
X0387008Y0767364D03*
X0511811Y0782303D03*
X0511811Y0767303D03*
D10*
X0062992Y0781496D03*
X0529528Y0768898D03*
X0329528Y0150079D03*
X0329528Y0160079D03*
X0329528Y0170079D03*
X0329528Y0180079D03*
X0329528Y0190079D03*
X0339528Y0150079D03*
X0339528Y0160079D03*
X0339528Y0170079D03*
X0339528Y0180079D03*
X0339528Y0190079D03*
X0349528Y0150079D03*
X0349528Y0160079D03*
X0349528Y0170079D03*
X0349528Y0180079D03*
X0349528Y0190079D03*
D46*
X0590551Y0405512D03*
D10*
X0031496Y0515748D03*
X0372047Y0425197D03*
D46*
X0015748Y0062992D03*
D10*
X0240157Y0743307D03*
X0269528Y0100079D03*
X0269528Y0110079D03*
X0269528Y0120079D03*
X0269528Y0130079D03*
X0269528Y0140079D03*
X0279528Y0100079D03*
X0279528Y0110079D03*
X0279528Y0120079D03*
X0279528Y0130079D03*
X0279528Y0140079D03*
X0289528Y0100079D03*
X0289528Y0110079D03*
X0289528Y0120079D03*
X0289528Y0130079D03*
X0289528Y0140079D03*
X0551969Y0513386D03*
X0202756Y0739370D03*
D47*
X0054134Y0866929D03*
X0279134Y0866929D03*
X0556102Y0866929D03*
D28*
X0554528Y0798425D03*
X0543504Y0798425D03*
X0532480Y0798425D03*
X0521457Y0798425D03*
X0499409Y0798425D03*
X0488386Y0798425D03*
X0477362Y0798425D03*
X0455315Y0798425D03*
X0444291Y0798425D03*
X0432087Y0798425D03*
X0418307Y0798425D03*
X0554528Y0814961D03*
X0543504Y0814961D03*
X0532480Y0814961D03*
X0521457Y0814961D03*
X0510433Y0814961D03*
X0499409Y0814961D03*
X0488386Y0814961D03*
X0477362Y0814961D03*
X0466339Y0814961D03*
X0455315Y0814961D03*
X0444291Y0814961D03*
X0432087Y0814961D03*
X0418307Y0814961D03*
X0532480Y0831496D03*
X0521457Y0831496D03*
X0510433Y0831496D03*
X0488386Y0831496D03*
X0477362Y0831496D03*
X0466339Y0831496D03*
X0455315Y0831496D03*
X0432087Y0831496D03*
X0393504Y0798425D03*
X0379724Y0798425D03*
X0356496Y0798425D03*
X0345472Y0798425D03*
X0334449Y0798425D03*
X0312402Y0798425D03*
X0301378Y0798425D03*
X0290354Y0798425D03*
X0393504Y0814961D03*
X0379724Y0814961D03*
X0367520Y0814961D03*
X0356496Y0814961D03*
X0345472Y0814961D03*
X0334449Y0814961D03*
X0323425Y0814961D03*
X0312402Y0814961D03*
X0301378Y0814961D03*
X0290354Y0814961D03*
X0393504Y0831496D03*
X0379724Y0831496D03*
X0356496Y0831496D03*
X0345472Y0831496D03*
X0323425Y0831496D03*
X0312402Y0831496D03*
X0301378Y0831496D03*
X0267913Y0798425D03*
X0256890Y0798425D03*
X0245866Y0798425D03*
X0234843Y0798425D03*
X0212795Y0798425D03*
X0201772Y0798425D03*
X0190748Y0798425D03*
X0168701Y0798425D03*
X0157677Y0798425D03*
X0146654Y0798425D03*
X0267913Y0814961D03*
X0256890Y0814961D03*
X0245866Y0814961D03*
X0234843Y0814961D03*
X0223819Y0814961D03*
X0212795Y0814961D03*
X0201772Y0814961D03*
X0190748Y0814961D03*
X0179724Y0814961D03*
X0168701Y0814961D03*
X0157677Y0814961D03*
X0146654Y0814961D03*
X0256890Y0831496D03*
X0245866Y0831496D03*
X0234843Y0831496D03*
X0212795Y0831496D03*
X0201772Y0831496D03*
X0190748Y0831496D03*
X0168701Y0831496D03*
X0157677Y0831496D03*
X0146654Y0831496D03*
X0124213Y0798425D03*
X0102165Y0798425D03*
X0091142Y0798425D03*
X0080118Y0798425D03*
X0056890Y0798425D03*
X0124213Y0814961D03*
X0113189Y0814961D03*
X0102165Y0814961D03*
X0091142Y0814961D03*
X0080118Y0814961D03*
X0069094Y0814961D03*
X0056890Y0814961D03*
X0124213Y0831496D03*
X0113189Y0831496D03*
X0102165Y0831496D03*
X0080118Y0831496D03*
D11*
X0179134Y0782303D03*
X0179134Y0767303D03*
X0519685Y0782303D03*
X0519685Y0767303D03*
D10*
X0551969Y0537008D03*
D46*
X0594488Y0839370D03*
D10*
X0348425Y0425197D03*
D11*
X0277559Y0782303D03*
X0277559Y0767303D03*
D10*
X0535433Y0346457D03*
D11*
X0559055Y0782303D03*
X0559055Y0767303D03*
D10*
X0137795Y0784646D03*
X0261811Y0755118D03*
X0329528Y0100079D03*
X0329528Y0110079D03*
X0329528Y0120079D03*
X0329528Y0130079D03*
X0329528Y0140079D03*
X0339528Y0100079D03*
X0339528Y0110079D03*
X0339528Y0120079D03*
X0339528Y0130079D03*
X0339528Y0140079D03*
X0349528Y0100079D03*
X0349528Y0110079D03*
X0349528Y0120079D03*
X0349528Y0130079D03*
X0349528Y0140079D03*
D38*
X0090551Y0188189D03*
D39*
X0090551Y0198189D03*
X0090551Y0208189D03*
X0090551Y0218189D03*
X0090551Y0228189D03*
X0090551Y0238189D03*
D10*
X0214567Y0739370D03*
X0031496Y0639764D03*
X0273622Y0425197D03*
D11*
X0238268Y0782303D03*
X0238268Y0767303D03*
X0159449Y0782303D03*
X0159449Y0767303D03*
D10*
X0555118Y0663386D03*
X0110236Y0781496D03*
X0086614Y0781496D03*
X0555118Y0677165D03*
D11*
X0208661Y0782303D03*
X0208661Y0767303D03*
D10*
X0576772Y0580709D03*
D11*
X0460630Y0782303D03*
X0460630Y0767303D03*
D10*
X0576772Y0627953D03*
X0312992Y0431102D03*
X0576772Y0661417D03*
X0031496Y0580709D03*
X0500000Y0743307D03*
X0169291Y0774803D03*
D11*
X0248031Y0782303D03*
X0248031Y0767303D03*
X0287402Y0782303D03*
X0287402Y0767303D03*
X0433071Y0782303D03*
X0433071Y0767303D03*
D10*
X0098425Y0781496D03*
D11*
X0492126Y0782303D03*
X0492126Y0767303D03*
D10*
X0125984Y0784646D03*
X0240157Y0725591D03*
D46*
X0305118Y0405512D03*
D10*
X0360236Y0425197D03*
X0269528Y0150079D03*
X0269528Y0160079D03*
X0269528Y0170079D03*
X0269528Y0180079D03*
X0269528Y0190079D03*
X0279528Y0150079D03*
X0279528Y0160079D03*
X0279528Y0170079D03*
X0279528Y0180079D03*
X0279528Y0190079D03*
X0289528Y0150079D03*
X0289528Y0160079D03*
X0289528Y0170079D03*
X0289528Y0180079D03*
X0289528Y0190079D03*
X0576772Y0649606D03*
X0576772Y0549213D03*
X0324803Y0425197D03*
X0285433Y0755118D03*
X0031496Y0616142D03*
X0031496Y0627953D03*
X0460630Y0743307D03*
X0031496Y0604331D03*
X0149606Y0780709D03*
X0190945Y0739370D03*
X0336614Y0425197D03*
X0555118Y0690945D03*
D11*
X0218504Y0782303D03*
X0218504Y0767303D03*
X0257874Y0782303D03*
X0257874Y0767303D03*
X0220571Y0292146D03*
X0220571Y0277146D03*
D45*
X0251969Y0404724D03*
X0217126Y0375197D02*
%LPD*%
G01*
D13*
X0220571Y0304725D03*
X0250098Y0304725D03*
X0253248Y0304725D03*
X0256398Y0304725D03*
X0228051Y0373721D03*
X0224114Y0373721D03*
X0108563Y0241417D02*
%LPD*%
G01*
D74*
X0121161Y0120551D03*
X0121161Y0104803D03*
X0132972Y0112677D03*
D91*
X0119390Y0237244D03*
X0115390Y0217244D03*
X0123390Y0217244D03*
D113*
X0160138Y0100708D03*
D114*
X0160138Y0110708D03*
X0160138Y0120708D03*
X0167569Y0276332D02*
G01*
G75*
D107*
X0136368Y0251923D02*
D03*
X0136073Y0265899D02*
D03*
X0137254Y0270919D02*
D03*
X0140699Y0268852D02*
D03*
M02*
