G75*
G70*
%OFA0B0*%
%FSLAX25Y25*%
%IPPOS*%
%LPD*%
%AMOC8*
5,1,8,0,0,1.08239X$1,22.5*
%
%ADD63C,0.00197*%
%ADD73C,0.00079*%
X0000000Y0000000D02*
%LPD*%
G01*
D63*
X0039370Y0023622D02*
G75*
G03*
X0027559Y0035433I-011811J0000000D01*
G01*
X0045276Y0903543D02*
G75*
G03*
X0041339Y0899606I0000000J-003937D01*
G01*
X0037402Y0895669D02*
G75*
G03*
X0041339Y0899606I0000000J0003937D01*
G01*
X0570866Y0023622D02*
X0570866Y0011811D01*
X0011811Y0035433D02*
X0027559Y0035433D01*
X0051181Y0000000D02*
X0559055Y0000000D01*
X0610236Y0883858D02*
G75*
G03*
X0598425Y0895669I-011811J0000000D01*
G01*
X0037402Y0895669D02*
X0011811Y0895669D01*
X0598425Y0035433D02*
X0582677Y0035433D01*
X0011811Y0895669D02*
G75*
G03*
X0000000Y0883858I0000000J-011811D01*
G01*
X0568898Y0899606D02*
G75*
G03*
X0572835Y0895669I0003937J0000000D01*
G01*
X0039370Y0023622D02*
X0039370Y0011811D01*
X0039370Y0011811D02*
G75*
G03*
X0051181Y0000000I0011811J0000000D01*
G01*
X0000000Y0047244D02*
G75*
G03*
X0011811Y0035433I0011811J0000000D01*
G01*
X0559055Y0000000D02*
G75*
G03*
X0570866Y0011811I0000000J0011811D01*
G01*
X0572835Y0895669D02*
X0598425Y0895669D01*
X0598425Y0035433D02*
G75*
G03*
X0610236Y0047244I0000000J0011811D01*
G01*
X0000000Y0883858D02*
X0000000Y0047244D01*
X0582677Y0035433D02*
G75*
G03*
X0570866Y0023622I0000000J-011811D01*
G01*
X0568898Y0899606D02*
G75*
G03*
X0564961Y0903543I-003937J0000000D01*
G01*
X0045276Y0903543D02*
X0564961Y0903543D01*
X0610236Y0883858D02*
X0610236Y0047244D01*
X0217126Y0375197D02*
G01*
G75*
X0108563Y0241417D02*
%LPD*%
G01*
D73*
X0108563Y0241417D02*
X0108563Y0086496D01*
X0108563Y0086496D02*
X0168012Y0086496D01*
X0168012Y0086496D02*
X0168012Y0241417D01*
X0168012Y0241417D02*
X0108563Y0241417D01*
X0167569Y0276332D02*
G01*
G75*
M02*
